<svg width="36" height="32" viewBox="0 0 36 32" fill="none" xmlns="http://www.w3.org/2000/svg">
<path d="M7.80344 2.15397C11.9308 5.28213 16.3699 11.6249 18 15.0283C19.6301 11.6249 24.0692 5.28213 28.1966 2.15397C31.1746 -0.103132 36 -1.84957 36 3.7077C36 4.81753 35.3697 13.0311 35 14.3647C33.7149 19.0006 29.0324 20.183 24.8671 19.4674C32.1479 20.7183 34 24.862 30 29.0057C22.4032 36.8753 19.0813 27.0312 18.2301 24.5087C18.0741 24.0463 18.0011 23.83 18 24.0139C17.9989 23.83 17.9259 24.0463 17.7699 24.5087C16.9187 27.0312 13.5968 36.8753 6 29.0057C2 24.862 3.85211 20.7183 11.1329 19.4674C6.96758 20.183 2.28508 19.0006 1 14.3647C0.630333 13.0311 0 4.81753 0 3.7077C0 -1.84957 4.82543 -0.103132 7.80344 2.15397Z" fill="#1185FE"/>
</svg>
