<svg width="102" height="89" viewBox="0 0 102 89" fill="none" xmlns="http://www.w3.org/2000/svg">
<path d="M37.457 88.1836C29.0306 88.1836 22.3538 86.8958 17.4268 84.3203C12.4997 81.7448 9.81217 78.1335 9.36426 73.4863C9.05632 70.1549 8.77637 66.7536 8.52441 63.2822C8.30046 59.7829 8.13249 55.8076 8.02051 51.3564C7.90853 46.8773 7.85254 41.5443 7.85254 35.3574L12.8916 35.3994C12.8916 41.5303 12.9476 46.8353 13.0596 51.3145C13.1715 55.7656 13.3395 59.7269 13.5635 63.1982C13.7874 66.6416 14.0674 69.931 14.4033 73.0664C14.7393 76.0059 16.9089 78.4134 20.9121 80.2891C24.9154 82.1927 30.4303 83.1445 37.457 83.1445C42.4681 83.1445 46.8073 82.7666 50.4746 82.0107C54.1699 81.2549 57.0954 80.2611 59.251 79.0293V84.6143C56.6195 85.734 53.4701 86.6019 49.8027 87.2178C46.1634 87.8617 42.0482 88.1836 37.457 88.1836ZM36.4492 59.7969C34.0697 59.7969 31.8441 59.335 29.7725 58.4111C27.7008 57.4593 25.8672 56.0176 24.2715 54.0859L27.2529 51.4824C28.5407 53.0221 29.9264 54.1279 31.4102 54.7998C32.8939 55.4717 34.5736 55.8076 36.4492 55.8076C38.3529 55.8076 40.0465 55.4717 41.5303 54.7998C43.014 54.1279 44.3857 53.0221 45.6455 51.4824L48.627 54.0859C47.0312 56.0176 45.1976 57.4593 43.126 58.4111C41.0824 59.335 38.8568 59.7969 36.4492 59.7969ZM25.1953 46.4014C24.0195 46.4014 23.0397 45.9674 22.2559 45.0996C21.5 44.2038 21.1221 43.154 21.1221 41.9502C21.1221 40.7184 21.5 39.6686 22.2559 38.8008C23.0397 37.9329 24.0195 37.499 25.1953 37.499C26.3711 37.499 27.3369 37.9329 28.0928 38.8008C28.8766 39.6686 29.2686 40.7184 29.2686 41.9502C29.2686 43.154 28.8766 44.2038 28.0928 45.0996C27.3369 45.9674 26.3711 46.4014 25.1953 46.4014ZM62.9463 65.5498C62.1624 65.5498 61.4906 65.1719 60.9307 64.416C60.3988 63.6322 60.1328 62.8483 60.1328 62.0645C60.1328 61.4206 60.3428 60.7767 60.7627 60.1328C61.1826 59.4609 61.9385 58.887 63.0303 58.4111C64.1781 57.9072 65.1299 57.6553 65.8857 57.6553C66.7816 57.6553 67.5094 57.9492 68.0693 58.5371C68.6292 59.097 68.9092 59.7969 68.9092 60.6367C68.9092 61.1686 68.7552 61.7005 68.4473 62.2324C68.1673 62.7643 67.7754 63.1003 67.2715 63.2402C66.6276 63.4362 66.0817 63.8001 65.6338 64.332C65.3258 64.696 64.9479 64.9899 64.5 65.2139C64.0801 65.4378 63.5622 65.5498 62.9463 65.5498ZM47.6611 46.4014C46.4854 46.4014 45.5055 45.9674 44.7217 45.0996C43.9658 44.2038 43.5879 43.154 43.5879 41.9502C43.5879 40.7184 43.9658 39.6686 44.7217 38.8008C45.5055 37.9329 46.4854 37.499 47.6611 37.499C48.8369 37.499 49.8027 37.9329 50.5586 38.8008C51.3424 39.6686 51.7344 40.7184 51.7344 41.9502C51.7344 43.154 51.3424 44.2038 50.5586 45.0996C49.8027 45.9674 48.8369 46.4014 47.6611 46.4014ZM8.73438 38.0029C7.02669 38.0029 5.73893 37.527 4.87109 36.5752C4.00326 35.6234 3.56934 34.5876 3.56934 33.4678C3.56934 32.9359 3.70931 32.334 3.98926 31.6621C4.26921 30.9902 4.87109 30.4583 5.79492 30.0664C10.834 27.8268 15.5231 26.1751 19.8623 25.1113C24.2295 24.0195 28.3307 23.3057 32.166 22.9697C36.0293 22.6338 39.7246 22.4658 43.252 22.4658C51.3424 22.4658 59.335 23.5856 67.2295 25.8252C68.2093 26.1051 68.9652 26.609 69.4971 27.3369C70.057 28.0648 70.3369 28.8766 70.3369 29.7725C70.3369 31.1442 69.777 32.278 68.6572 33.1738C67.5374 34.0697 66.3197 34.3356 65.0039 33.9717C61.4486 32.9079 57.8512 32.124 54.2119 31.6201C50.6006 31.1162 46.9473 30.8643 43.252 30.8643C38.3809 30.8643 33.4258 31.2422 28.3867 31.998C23.3477 32.7539 18.1546 34.0277 12.8076 35.8193L8.73438 38.0029ZM9.32227 33.8457C12.8776 32.278 16.6289 31.0322 20.5762 30.1084C24.5234 29.1846 28.4427 28.5267 32.334 28.1348C36.2533 27.7148 39.8926 27.5049 43.252 27.5049C47.0872 27.5049 50.8945 27.7708 54.6738 28.3027C58.4811 28.8066 62.2324 29.5905 65.9277 30.6543C66.2637 30.7663 66.5296 30.7383 66.7256 30.5703C66.9215 30.3743 67.0195 30.1504 67.0195 29.8984C67.0195 29.4225 66.7816 29.1286 66.3057 29.0166C62.5264 27.9528 58.7051 27.1549 54.8418 26.623C51.0065 26.0911 47.1432 25.8252 43.252 25.8252C39.8646 25.8252 36.2113 26.0352 32.292 26.4551C28.3727 26.875 24.4115 27.5609 20.4082 28.5127C16.4049 29.4365 12.5697 30.6823 8.90234 32.25C8.6224 32.362 8.41243 32.5439 8.27246 32.7959C8.16048 33.0199 8.13249 33.2158 8.18848 33.3838C8.24447 33.5798 8.35645 33.7477 8.52441 33.8877C8.72038 33.9997 8.98633 33.9857 9.32227 33.8457ZM68.4053 88.1836C65.1859 88.1836 62.4284 87.5117 60.1328 86.168C57.8652 84.8242 56.7314 83.1725 56.7314 81.2129C56.7314 79.8971 57.0814 78.7913 57.7812 77.8955C58.5091 76.9997 59.335 76.2578 60.2588 75.6699C61.1826 75.082 61.9945 74.5921 62.6943 74.2002C63.4222 73.8363 63.7861 73.5283 63.7861 73.2764C63.7861 73.1644 63.7301 73.0664 63.6182 72.9824C63.5342 72.8984 63.3802 72.8564 63.1562 72.8564C62.3724 72.8564 61.5885 73.1084 60.8047 73.6123C60.0488 74.1162 59.181 74.6201 58.2012 75.124C57.2493 75.6559 56.0456 75.9219 54.5898 75.9219C52.0143 75.9219 49.9287 75.138 48.333 73.5703C46.7373 72.0306 45.9395 69.945 45.9395 67.3135C45.9395 64.7939 46.5973 62.1904 47.9131 59.5029C49.2568 56.8154 51.0625 54.2119 53.3301 51.6924C55.6257 49.1729 58.2152 46.9053 61.0986 44.8896C64.0101 42.874 67.0475 41.2783 70.2109 40.1025C73.3743 38.8988 76.4818 38.2969 79.5332 38.2969C84.0404 38.2969 87.8477 39.1507 90.9551 40.8584C94.0625 42.5381 96.4141 44.8057 98.0098 47.6611C99.6335 50.5166 100.445 53.694 100.445 57.1934C100.445 61.1126 99.5355 64.9199 97.7158 68.6152C95.8962 72.3105 93.4466 75.6279 90.3672 78.5674C87.2878 81.5068 83.8444 83.8444 80.0371 85.5801C76.2298 87.3158 72.3525 88.1836 68.4053 88.1836ZM68.4053 83.9844C71.7926 83.9844 75.124 83.2145 78.3994 81.6748C81.7028 80.1631 84.6982 78.1195 87.3857 75.5439C90.0732 72.9964 92.2148 70.141 93.8105 66.9775C95.4342 63.7861 96.2461 60.5387 96.2461 57.2354C96.2461 53.0641 94.8184 49.5648 91.9629 46.7373C89.1074 43.9098 84.9642 42.4961 79.5332 42.4961C76.9577 42.4961 74.2982 43.014 71.5547 44.0498C68.8392 45.0856 66.2077 46.4714 63.6602 48.207C61.1126 49.9427 58.8171 51.8883 56.7734 54.0439C54.7298 56.1995 53.1061 58.4251 51.9023 60.7207C50.7266 62.9883 50.1387 65.1579 50.1387 67.2295C50.1387 69.0212 50.5166 70.2249 51.2725 70.8408C52.0283 71.4287 53.1341 71.7227 54.5898 71.7227C55.7656 71.7227 56.7874 71.4707 57.6553 70.9668C58.5511 70.4349 59.4189 69.917 60.2588 69.4131C61.1266 68.9092 62.0924 68.6572 63.1562 68.6572C64.444 68.6572 65.5638 69.0911 66.5156 69.959C67.4954 70.7988 67.9854 71.8766 67.9854 73.1924C67.9854 74.3682 67.6214 75.334 66.8936 76.0898C66.1937 76.8457 65.3818 77.4896 64.458 78.0215C63.5342 78.5814 62.7083 79.0993 61.9805 79.5752C61.2806 80.0791 60.9307 80.625 60.9307 81.2129C60.9307 82.0247 61.6445 82.6826 63.0723 83.1865C64.5 83.7184 66.2777 83.9844 68.4053 83.9844ZM78.3574 71.7227C77.4336 71.7227 76.7197 71.4427 76.2158 70.8828C75.7399 70.2949 75.502 69.5391 75.502 68.6152C75.502 67.2995 75.9779 66.2357 76.9297 65.4238C77.9095 64.584 79.0433 64.1641 80.3311 64.1641C81.3109 64.1641 82.0947 64.374 82.6826 64.7939C83.2985 65.1859 83.6064 65.8717 83.6064 66.8516C83.6064 68.1953 83.0186 69.3431 81.8428 70.2949C80.667 71.2467 79.5052 71.7227 78.3574 71.7227ZM81.1709 68.6572C81.7868 68.6572 82.0947 68.2373 82.0947 67.3975C82.0947 66.1937 81.4788 65.5918 80.2471 65.5918C79.6592 65.5918 79.3652 65.7598 79.3652 66.0957C79.3652 66.4036 79.5472 66.6696 79.9111 66.8936C80.2751 67.1175 80.485 67.4535 80.541 67.9014C80.625 68.4053 80.835 68.6572 81.1709 68.6572ZM21.626 8.02051C20.5902 8.02051 19.7083 7.76855 18.9805 7.26465C18.2806 6.76074 17.9307 6.10286 17.9307 5.29102C17.9307 4.03125 18.6445 2.95345 20.0723 2.05762C21.5 1.13379 22.9417 0.671875 24.3975 0.671875C25.4613 0.671875 26.3291 0.923828 27.001 1.42773C27.7008 1.90365 28.0508 2.54753 28.0508 3.35938C28.0508 4.64714 27.3509 5.75293 25.9512 6.67676C24.5514 7.57259 23.1097 8.02051 21.626 8.02051ZM8.69238 35.9453C5.75293 35.2734 3.56934 34.1117 2.1416 32.46C0.713867 30.7803 0 28.8766 0 26.749C0 24.2015 0.909831 21.654 2.72949 19.1064C4.57715 16.5309 7.08268 14.1094 10.2461 11.8418C13.4375 9.54622 17.0628 7.5166 21.1221 5.75293C25.1813 3.96126 29.4645 2.56152 33.9717 1.55371C38.5068 0.517904 43.014 0 47.4932 0C53.0081 0 57.8932 0.797852 62.1484 2.39355C66.4316 3.96126 69.791 6.15885 72.2266 8.98633C74.6621 11.7858 75.8799 15.0332 75.8799 18.7285C75.8799 20.5482 75.5579 22.2559 74.9141 23.8516C74.2982 25.4193 73.3464 26.833 72.0586 28.0928C70.7988 29.3245 69.1891 30.3604 67.2295 31.2002L68.1113 29.1846L66.6836 26.4131C68.0553 25.6572 69.0911 24.5654 69.791 23.1377C70.4909 21.682 70.8408 20.2122 70.8408 18.7285C70.8408 16.013 69.805 13.6055 67.7334 11.5059C65.6618 9.37826 62.8623 7.69857 59.335 6.4668C55.8076 5.23503 51.8604 4.61914 47.4932 4.61914C43.7139 4.61914 39.8366 5.08105 35.8613 6.00488C31.8861 6.92871 28.0648 8.17448 24.3975 9.74219C20.7301 11.2819 17.4408 13.0176 14.5293 14.9492C11.6178 16.8809 9.30827 18.8685 7.60059 20.9121C5.8929 22.9277 5.03906 24.8734 5.03906 26.749C5.03906 27.8408 5.29102 28.6667 5.79492 29.2266C6.32682 29.7865 6.84473 30.1784 7.34863 30.4023L8.69238 35.9453ZM73.3184 54.9258C72.3945 54.9258 71.6807 54.6458 71.1768 54.0859C70.7008 53.498 70.4629 52.7422 70.4629 51.8184C70.4629 50.4746 70.9388 49.3968 71.8906 48.585C72.8704 47.7731 74.0042 47.3672 75.292 47.3672C76.2718 47.3672 77.0557 47.6471 77.6436 48.207C78.2594 48.7389 78.5674 49.4948 78.5674 50.4746C78.5674 51.8184 77.9795 52.8962 76.8037 53.708C75.6279 54.5199 74.4661 54.9258 73.3184 54.9258ZM60.8887 47.1572V32.334L65.9277 33.1738V43.9658L60.8887 47.1572ZM76.1318 51.8604C76.7477 51.8604 77.0557 51.4404 77.0557 50.6006C77.0557 49.3968 76.4398 48.7949 75.208 48.7949C74.6201 48.7949 74.3262 48.9629 74.3262 49.2988C74.3262 49.6068 74.5081 49.8727 74.8721 50.0967C75.236 50.3206 75.446 50.6566 75.502 51.1045C75.5859 51.6084 75.7959 51.8604 76.1318 51.8604ZM85.958 59.5029C85.0342 59.5029 84.2223 59.251 83.5225 58.7471C82.8226 58.2152 82.4727 57.4873 82.4727 56.5635C82.4727 55.3317 83.0186 54.2259 84.1104 53.2461C85.2301 52.2663 86.4619 51.7764 87.8057 51.7764C88.8695 51.7764 89.7233 52.0703 90.3672 52.6582C91.0111 53.2181 91.333 53.974 91.333 54.9258C91.333 56.1576 90.7871 57.2354 89.6953 58.1592C88.6035 59.055 87.3577 59.5029 85.958 59.5029ZM88.5195 56.5635C89.2474 56.5635 89.6113 56.0316 89.6113 54.9678C89.6113 53.512 88.8555 52.7842 87.3438 52.7842C86.6439 52.7842 86.2939 53.0081 86.2939 53.4561C86.2939 53.736 86.5179 54.0299 86.9658 54.3379C87.3857 54.6178 87.6377 55.0378 87.7217 55.5977C87.8057 56.2415 88.0716 56.5635 88.5195 56.5635ZM87.5957 29.9824L88.8975 25.9932C88.7015 25.5732 88.2816 25.2233 87.6377 24.9434C86.9938 24.6634 86.3359 24.5234 85.6641 24.5234L83.3965 28.0928C83.9564 28.2048 84.6702 28.4567 85.5381 28.8486C86.4059 29.2406 87.0918 29.6185 87.5957 29.9824ZM87.3438 41.7402L83.8164 40.9004L85.2861 37.709C84.9502 37.2891 84.4183 36.8831 83.6904 36.4912C82.9626 36.0993 82.1787 35.7633 81.3389 35.4834C80.499 35.1755 79.7292 34.9795 79.0293 34.8955L76.2998 40.9004L72.1426 41.6562L76.0898 32.8799C76.2578 32.04 76.6217 31.1722 77.1816 30.2764C77.7415 29.3805 78.3434 28.6527 78.9873 28.0928L82.7666 22.0879C82.6266 21.248 82.5566 20.4922 82.5566 19.8203C82.5566 16.069 83.5924 13.1156 85.6641 10.96C87.7637 8.80436 90.6051 7.72656 94.1885 7.72656C96.904 7.72656 99.3255 8.45443 101.453 9.91016C100.641 10.61 100.025 11.4219 99.6055 12.3457C99.2135 13.2695 99.0176 14.5573 99.0176 16.209C99.0176 19.2604 98.5277 21.584 97.5479 23.1797C96.568 24.7474 94.9583 25.9232 92.7188 26.707L90.4092 33.6357C90.4092 35.5674 89.8493 37.2751 88.7295 38.7588L87.3438 41.7402ZM91.0811 24.1035C92.2008 23.6836 93.0267 23.1517 93.5586 22.5078C94.1185 21.8639 94.3984 21.0661 94.3984 20.1143C94.3984 19.7223 94.3704 19.3304 94.3145 18.9385C94.2585 18.5465 94.2305 18.1546 94.2305 17.7627C94.2305 17.5387 94.2445 17.3288 94.2725 17.1328C94.3005 16.9089 94.3424 16.6989 94.3984 16.5029C93.7266 16.6149 93.1947 16.9928 92.8027 17.6367C92.4388 18.2806 92.2568 19.1064 92.2568 20.1143C92.0329 19.3864 91.9209 18.7005 91.9209 18.0566C91.9209 17.5807 91.9769 17.1328 92.0889 16.7129C92.2008 16.293 92.3548 15.901 92.5508 15.5371C91.8789 15.8451 91.235 16.349 90.6191 17.0488C90.0312 17.7207 89.5833 18.4906 89.2754 19.3584C89.2754 18.4626 89.4854 17.4408 89.9053 16.293C90.3532 15.1452 90.8291 14.3893 91.333 14.0254C89.7933 14.0254 88.4915 14.7812 87.4277 16.293C86.3639 17.8047 85.832 19.5684 85.832 21.584C86.8398 21.584 87.8337 21.8219 88.8135 22.2979C89.8213 22.7738 90.5771 23.3757 91.0811 24.1035ZM66.1377 62.3584C66.8936 62.3584 67.2715 61.8825 67.2715 60.9307C67.2715 60.2868 67.0615 59.7689 66.6416 59.377C66.2217 58.957 65.6898 58.7471 65.0459 58.7471C64.374 58.7471 64.0381 58.971 64.0381 59.4189C64.0381 59.7549 64.248 60.0348 64.668 60.2588C65.0039 60.4548 65.2419 60.8607 65.3818 61.4766C65.4938 62.0645 65.7458 62.3584 66.1377 62.3584Z" fill="#E5E5E5"/>
</svg>
