<svg width="105" height="89" viewBox="0 0 105 89" fill="none" xmlns="http://www.w3.org/2000/svg">
<path d="M52.0703 51.0625C42.6361 43.6719 35.6514 37.0931 31.1162 31.3262C26.609 25.5592 24.3555 20.1003 24.3555 14.9492C24.3555 12.0658 25.0133 9.50423 26.3291 7.26465C27.6449 5.02507 29.4085 3.26139 31.6201 1.97363C33.8597 0.657878 36.3652 0 39.1367 0C41.7682 0 44.2178 0.629883 46.4854 1.88965C48.7529 3.12142 50.6146 4.80111 52.0703 6.92871C53.526 4.80111 55.3877 3.12142 57.6553 1.88965C59.9229 0.629883 62.3724 0 65.0039 0C67.7754 0 70.2809 0.657878 72.5205 1.97363C74.7601 3.26139 76.5238 5.02507 77.8115 7.26465C79.1273 9.50423 79.7852 12.0658 79.7852 14.9492C79.7852 20.1003 77.5176 25.5592 72.9824 31.3262C68.4753 37.0931 61.5046 43.6719 52.0703 51.0625ZM26.665 76.4678C24.0055 76.4678 21.612 75.8659 19.4844 74.6621C17.3568 73.4583 15.8451 71.8346 14.9492 69.791L18.3926 68.2793C18.9805 69.5951 20.0163 70.6589 21.5 71.4707C23.0117 72.2826 24.7334 72.6885 26.665 72.6885C29.9964 72.6885 32.39 71.6247 33.8457 69.4971L36.9531 71.5967C35.9173 73.1364 34.4896 74.3262 32.6699 75.166C30.8503 76.0339 28.8486 76.4678 26.665 76.4678ZM18.2246 65.4238C17.2728 65.4238 16.5029 65.0179 15.915 64.2061C15.3551 63.3942 15.0752 62.4844 15.0752 61.4766C15.0752 60.3288 15.3831 59.335 15.999 58.4951C16.6429 57.6273 17.4408 57.1934 18.3926 57.1934C19.3444 57.1934 20.1003 57.5993 20.6602 58.4111C21.248 59.223 21.542 60.1328 21.542 61.1406C21.542 62.2884 21.2201 63.2962 20.5762 64.1641C19.9603 65.0039 19.1764 65.4238 18.2246 65.4238ZM25.6572 88.1836C17.3148 88.1836 10.946 86.9798 6.55078 84.5723C2.18359 82.1927 0 78.7214 0 74.1582C0 67.6914 1.0918 61.9805 3.27539 57.0254C5.45898 52.0423 8.48242 48.151 12.3457 45.3516C16.209 42.5241 20.6462 41.1104 25.6572 41.1104C30.6963 41.1104 35.1475 42.5241 39.0107 45.3516C42.874 48.151 45.8975 52.0283 48.0811 56.9834C50.2646 61.9385 51.3564 67.6634 51.3564 74.1582C51.3564 78.7214 49.1589 82.1927 44.7637 84.5723C40.3965 86.9798 34.0277 88.1836 25.6572 88.1836ZM25.6572 83.9844C32.6279 83.9844 37.877 83.1585 41.4043 81.5068C44.9596 79.8551 46.7373 77.4056 46.7373 74.1582C46.7373 68.5592 45.8275 63.5902 44.0078 59.251C42.2161 54.9118 39.7246 51.5104 36.5332 49.0469C33.3698 46.5553 29.7445 45.3096 25.6572 45.3096C21.598 45.3096 17.9867 46.5553 14.8232 49.0469C11.6598 51.5384 9.16829 54.9538 7.34863 59.293C5.52897 63.6322 4.61914 68.5872 4.61914 74.1582C4.61914 77.4056 6.38281 79.8551 9.91016 81.5068C13.4375 83.1585 18.6865 83.9844 25.6572 83.9844ZM35.4414 66.6836C34.4896 66.6836 33.7197 66.2777 33.1318 65.4658C32.5719 64.654 32.292 63.7441 32.292 62.7363C32.292 61.5885 32.5999 60.5947 33.2158 59.7549C33.8597 58.887 34.6576 58.4531 35.6094 58.4531C36.5612 58.4531 37.3171 58.859 37.877 59.6709C38.4648 60.4827 38.7588 61.3926 38.7588 62.4004C38.7588 63.5482 38.4368 64.556 37.793 65.4238C37.1771 66.2637 36.3932 66.6836 35.4414 66.6836ZM68.9092 66.6836C67.9574 66.6836 67.1595 66.2637 66.5156 65.4238C65.8997 64.556 65.5918 63.5482 65.5918 62.4004C65.5918 61.3926 65.8717 60.4827 66.4316 59.6709C67.0195 58.859 67.7894 58.4531 68.7412 58.4531C69.693 58.4531 70.4769 58.887 71.0928 59.7549C71.7367 60.5947 72.0586 61.5885 72.0586 62.7363C72.0586 63.7441 71.7646 64.654 71.1768 65.4658C70.6169 66.2777 69.861 66.6836 68.9092 66.6836ZM77.5596 76.4678C75.376 76.4678 73.3743 76.0339 71.5547 75.166C69.735 74.3262 68.3073 73.1364 67.2715 71.5967L70.3789 69.4971C71.8346 71.6247 74.2282 72.6885 77.5596 72.6885C79.4912 72.6885 81.1989 72.2826 82.6826 71.4707C84.1943 70.6589 85.2441 69.5951 85.832 68.2793L89.2754 69.791C88.4076 71.8346 86.8958 73.4583 84.7402 74.6621C82.6126 75.8659 80.2191 76.4678 77.5596 76.4678ZM78.4834 88.1836C70.141 88.1836 63.7721 86.9798 59.377 84.5723C54.9818 82.1927 52.7842 78.7214 52.7842 74.1582C52.7842 67.6634 53.876 61.9385 56.0596 56.9834C58.2432 52.0283 61.2666 48.151 65.1299 45.3516C68.9932 42.5241 73.4443 41.1104 78.4834 41.1104C83.4945 41.1104 87.9316 42.5241 91.7949 45.3516C95.6582 48.151 98.6816 52.0423 100.865 57.0254C103.049 61.9805 104.141 67.6914 104.141 74.1582C104.141 78.7214 101.957 82.1927 97.5898 84.5723C93.2227 86.9798 86.8538 88.1836 78.4834 88.1836ZM78.4834 83.9844C85.4541 83.9844 90.7031 83.1585 94.2305 81.5068C97.7578 79.8551 99.5215 77.4056 99.5215 74.1582C99.5215 68.5872 98.6117 63.6322 96.792 59.293C94.9723 54.9538 92.4808 51.5384 89.3174 49.0469C86.154 46.5553 82.5426 45.3096 78.4834 45.3096C74.3962 45.3096 70.7568 46.5553 67.5654 49.0469C64.402 51.5104 61.9105 54.9118 60.0908 59.251C58.2992 63.5902 57.4033 68.5592 57.4033 74.1582C57.4033 77.4056 59.167 79.8551 62.6943 81.5068C66.2497 83.1585 71.5127 83.9844 78.4834 83.9844ZM86.126 65.4238C85.1742 65.4238 84.3763 65.0039 83.7324 64.1641C83.1165 63.2962 82.8086 62.2884 82.8086 61.1406C82.8086 60.1328 83.0885 59.223 83.6484 58.4111C84.2363 57.5993 85.0062 57.1934 85.958 57.1934C86.9098 57.1934 87.6937 57.6273 88.3096 58.4951C88.9535 59.335 89.2754 60.3288 89.2754 61.4766C89.2754 62.4844 88.9814 63.3942 88.3936 64.2061C87.8337 65.0179 87.0778 65.4238 86.126 65.4238ZM52.0703 45.6875C60.0488 39.2487 65.8857 33.5518 69.5811 28.5967C73.3044 23.6136 75.166 19.0645 75.166 14.9492C75.166 11.7858 74.2142 9.21029 72.3105 7.22266C70.4349 5.20703 67.9993 4.19922 65.0039 4.19922C62.7083 4.19922 60.3428 5.13704 57.9072 7.0127C55.4717 8.86035 53.526 11.1559 52.0703 13.8994C50.6146 11.1559 48.6689 8.86035 46.2334 7.0127C43.8258 5.13704 41.4603 4.19922 39.1367 4.19922C36.1693 4.19922 33.7337 5.20703 31.8301 7.22266C29.9264 9.21029 28.9746 11.7858 28.9746 14.9492C28.9746 19.0645 30.8223 23.6136 34.5176 28.5967C38.2409 33.5518 44.0918 39.2487 52.0703 45.6875Z" fill="#E5E5E5"/>
</svg>
