<svg width="27" height="27" viewBox="0 0 27 27" fill="none" xmlns="http://www.w3.org/2000/svg">
<path d="M22.5 0C24.5508 0 26.25 1.69922 26.25 3.75V22.5C26.25 24.6094 24.5508 26.25 22.5 26.25H3.75C1.64062 26.25 0 24.6094 0 22.5V3.75C0 1.69922 1.64062 0 3.75 0H22.5ZM19.8633 10.5469C20.5078 9.90234 20.5078 8.90625 19.8633 8.26172C19.2188 7.61719 18.2227 7.61719 17.5781 8.26172L11.25 14.5898L8.61328 12.0117C7.96875 11.3672 6.97266 11.3672 6.32812 12.0117C5.68359 12.6562 5.68359 13.6523 6.32812 14.2969L10.0781 18.0469C10.7227 18.6914 11.7188 18.6914 12.3633 18.0469L19.8633 10.5469Z" fill="white"/>
</svg>
