<svg width="260" height="260" viewBox="0 0 260 260" fill="none" xmlns="http://www.w3.org/2000/svg">
<rect width="260" height="260" fill="white"/>
<g filter="url(#filter0_f_2137_680)">
<path d="M192.342 179.134C188.149 183.626 186.053 189.077 186.053 195.486C186.053 199.259 186.682 202.164 187.94 204.2C189.198 206.177 190.725 207.165 192.522 207.165C194.798 207.165 197.403 205.608 200.338 202.493C200.638 202.194 200.698 201.805 200.518 201.325C200.338 201.146 200.218 200.936 200.159 200.697C197.463 193.21 195.067 186.082 192.971 179.314C192.911 178.835 192.702 178.775 192.342 179.134ZM214.264 170.689C209.892 170.689 205.939 171.348 202.405 172.665C201.985 172.845 201.836 173.174 201.955 173.654C203.513 178.984 205.399 185.004 207.616 191.712C207.735 192.012 207.945 191.982 208.245 191.622C211.539 185.872 214.564 179.164 217.319 171.497C217.379 171.318 217.349 171.168 217.229 171.048C217.169 170.868 217.049 170.779 216.87 170.779C216.33 170.719 215.462 170.689 214.264 170.689ZM191.444 217.497C187.011 217.497 183.328 215.581 180.393 211.747C177.518 207.854 176.08 202.434 176.08 195.486C176.08 189.975 177.218 184.854 179.495 180.122C181.771 175.391 184.975 171.408 189.108 168.173C189.467 167.874 189.617 167.544 189.557 167.185C188.479 163.052 187.7 159.908 187.221 157.751C186.922 156.434 187.101 155.236 187.76 154.158C188.479 153.079 189.497 152.421 190.815 152.181L191.534 152.091C192.851 151.852 194.049 152.061 195.127 152.72C196.205 153.379 196.924 154.367 197.284 155.685C197.403 156.404 197.643 157.512 198.002 159.009C198.422 160.447 198.691 161.465 198.811 162.064C198.931 162.423 199.2 162.573 199.62 162.513C204.172 160.896 209.053 160.087 214.264 160.087C216.48 160.087 218.457 160.177 220.194 160.357C220.733 160.477 221.032 160.297 221.092 159.818C221.571 158.32 222.26 155.954 223.159 152.72C223.518 151.402 224.267 150.384 225.405 149.665C226.543 148.947 227.771 148.737 229.088 149.036L229.717 149.216C231.035 149.456 232.023 150.144 232.682 151.283C233.401 152.361 233.58 153.499 233.221 154.697C232.442 157.871 231.724 160.477 231.065 162.513C231.005 162.932 231.155 163.232 231.514 163.411C237.024 165.807 241.337 169.341 244.452 174.013C247.626 178.625 249.213 183.926 249.213 189.915C249.213 198.001 247.267 204.59 243.373 209.681C239.54 214.772 234 218.216 226.752 220.013C225.435 220.312 224.207 220.103 223.069 219.384C221.991 218.725 221.272 217.707 220.913 216.329L220.733 215.7C220.373 214.503 220.553 213.365 221.272 212.286C221.991 211.208 222.949 210.519 224.147 210.22C233.73 207.465 238.522 200.697 238.522 189.915C238.522 186.322 237.623 183.117 235.827 180.302C234.03 177.487 231.484 175.271 228.19 173.654C227.83 173.474 227.561 173.594 227.381 174.013C222.17 188.448 216.36 199.319 209.952 206.626C203.603 213.874 197.433 217.497 191.444 217.497Z" fill="#1185FE"/>
</g>
<path d="M190.742 177.534C186.549 182.027 184.453 187.477 184.453 193.886C184.453 197.659 185.082 200.564 186.34 202.601C187.598 204.577 189.125 205.566 190.922 205.566C193.198 205.566 195.803 204.008 198.738 200.894C199.038 200.594 199.098 200.205 198.918 199.726C198.738 199.546 198.618 199.337 198.559 199.097C195.863 191.61 193.467 184.482 191.371 177.714C191.311 177.235 191.102 177.175 190.742 177.534ZM212.664 169.089C208.292 169.089 204.339 169.748 200.805 171.066C200.385 171.245 200.236 171.575 200.355 172.054C201.913 177.385 203.799 183.404 206.016 190.113C206.135 190.412 206.345 190.382 206.645 190.023C209.939 184.273 212.964 177.564 215.719 169.898C215.779 169.718 215.749 169.568 215.629 169.449C215.569 169.269 215.449 169.179 215.27 169.179C214.73 169.119 213.862 169.089 212.664 169.089ZM189.844 215.898C185.411 215.898 181.728 213.981 178.793 210.148C175.918 206.255 174.48 200.834 174.48 193.886C174.48 188.376 175.618 183.255 177.895 178.523C180.171 173.791 183.375 169.808 187.508 166.574C187.867 166.274 188.017 165.945 187.957 165.585C186.879 161.452 186.1 158.308 185.621 156.152C185.322 154.834 185.501 153.636 186.16 152.558C186.879 151.48 187.897 150.821 189.215 150.581L189.934 150.491C191.251 150.252 192.449 150.462 193.527 151.12C194.605 151.779 195.324 152.768 195.684 154.085C195.803 154.804 196.043 155.912 196.402 157.409C196.822 158.847 197.091 159.865 197.211 160.464C197.331 160.824 197.6 160.973 198.02 160.913C202.572 159.296 207.453 158.488 212.664 158.488C214.88 158.488 216.857 158.577 218.594 158.757C219.133 158.877 219.432 158.697 219.492 158.218C219.971 156.721 220.66 154.355 221.559 151.12C221.918 149.803 222.667 148.784 223.805 148.066C224.943 147.347 226.171 147.137 227.488 147.437L228.117 147.616C229.435 147.856 230.423 148.545 231.082 149.683C231.801 150.761 231.98 151.899 231.621 153.097C230.842 156.271 230.124 158.877 229.465 160.913C229.405 161.333 229.555 161.632 229.914 161.812C235.424 164.208 239.737 167.741 242.852 172.413C246.026 177.025 247.613 182.326 247.613 188.316C247.613 196.402 245.667 202.99 241.773 208.081C237.94 213.172 232.4 216.616 225.152 218.413C223.835 218.713 222.607 218.503 221.469 217.784C220.391 217.126 219.672 216.107 219.312 214.73L219.133 214.101C218.773 212.903 218.953 211.765 219.672 210.687C220.391 209.609 221.349 208.92 222.547 208.62C232.13 205.865 236.922 199.097 236.922 188.316C236.922 184.722 236.023 181.518 234.227 178.702C232.43 175.887 229.884 173.671 226.59 172.054C226.23 171.874 225.961 171.994 225.781 172.413C220.57 186.848 214.76 197.719 208.352 205.027C202.003 212.274 195.833 215.898 189.844 215.898Z" fill="#454545"/>
<g filter="url(#filter1_f_2137_680)">
<path d="M128.269 219.462C117.967 219.462 110.18 217.755 104.909 214.341C99.6386 210.867 97.0032 205.806 97.0032 199.157C97.0032 191.91 101.346 185.411 110.03 179.661C110.33 179.422 110.45 179.062 110.39 178.583V178.404C108.294 169.419 106.706 161.932 105.628 155.943C105.448 154.685 105.718 153.517 106.437 152.439C107.155 151.301 108.174 150.612 109.491 150.372L111.648 150.103C112.965 149.863 114.133 150.163 115.152 151.001C116.17 151.78 116.829 152.798 117.128 154.056C118.386 160.644 119.704 166.963 121.081 173.013C121.201 173.552 121.501 173.702 121.98 173.462C129.527 170.288 138.601 167.413 149.202 164.837C150.52 164.538 151.748 164.747 152.886 165.466C154.024 166.125 154.683 167.113 154.863 168.431L155.042 169.15C155.342 170.467 155.102 171.665 154.323 172.743C153.605 173.822 152.616 174.51 151.359 174.81C137.223 178.224 126.592 181.997 119.464 186.13C112.336 190.263 108.773 194.396 108.773 198.529C108.773 205.776 115.271 209.4 128.269 209.4C135.636 209.4 143.093 208.921 150.64 207.962C151.958 207.782 153.096 208.082 154.054 208.861C155.072 209.639 155.671 210.687 155.851 212.005L155.941 212.544C156.12 213.862 155.791 215.06 154.952 216.138C154.174 217.216 153.155 217.845 151.898 218.025C144.77 218.983 136.894 219.462 128.269 219.462Z" fill="#1185FE"/>
</g>
<path d="M126.669 217.863C116.367 217.863 108.58 216.156 103.309 212.741C98.0386 209.268 95.4032 204.206 95.4032 197.558C95.4032 190.31 99.7456 183.812 108.43 178.062C108.73 177.822 108.85 177.463 108.79 176.984V176.804C106.694 167.82 105.106 160.333 104.028 154.343C103.848 153.085 104.118 151.917 104.837 150.839C105.555 149.701 106.574 149.012 107.891 148.773L110.048 148.503C111.365 148.264 112.533 148.563 113.552 149.402C114.57 150.18 115.229 151.199 115.528 152.456C116.786 159.045 118.104 165.364 119.481 171.413C119.601 171.952 119.901 172.102 120.38 171.863C127.927 168.688 137.001 165.813 147.602 163.238C148.92 162.938 150.148 163.148 151.286 163.866C152.424 164.525 153.083 165.514 153.263 166.831L153.442 167.55C153.742 168.868 153.502 170.066 152.723 171.144C152.005 172.222 151.016 172.911 149.759 173.21C135.623 176.624 124.992 180.398 117.864 184.531C110.736 188.663 107.173 192.796 107.173 196.929C107.173 204.176 113.671 207.8 126.669 207.8C134.036 207.8 141.493 207.321 149.04 206.363C150.358 206.183 151.496 206.482 152.454 207.261C153.472 208.04 154.071 209.088 154.251 210.406L154.341 210.945C154.52 212.262 154.191 213.46 153.352 214.538C152.574 215.616 151.555 216.245 150.298 216.425C143.17 217.383 135.294 217.863 126.669 217.863Z" fill="#454545"/>
<g filter="url(#filter2_f_2137_680)">
<path d="M36.518 211.186C40.2315 211.186 42.7771 210.557 44.1547 209.299C45.5922 208.041 46.3109 205.675 46.3109 202.201C46.3109 201.722 46.1013 201.423 45.682 201.303C42.6872 200.105 40.0219 199.506 37.6859 199.506C34.3917 199.506 32.0258 199.955 30.5883 200.854C29.1508 201.752 28.432 203.13 28.432 204.986C28.432 206.903 29.1208 208.43 30.4984 209.568C31.9359 210.646 33.9424 211.186 36.518 211.186ZM17.9203 166.174C16.6026 166.174 15.4646 165.725 14.5063 164.826C13.6078 163.868 13.1586 162.76 13.1586 161.502C13.1586 160.184 13.6078 159.076 14.5063 158.178C15.4646 157.219 16.6026 156.74 17.9203 156.74H45.5922C46.0714 156.74 46.3109 156.501 46.3109 156.021V153.326C46.3109 152.068 46.7602 150.99 47.6586 150.092C48.6169 149.133 49.7549 148.654 51.0727 148.654H52.2406C53.5583 148.654 54.6664 149.133 55.5648 150.092C56.4633 151.05 56.9125 152.128 56.9125 153.326V156.021C56.9125 156.501 57.1521 156.74 57.6312 156.74H73.6234C74.9411 156.74 76.0492 157.219 76.9477 158.178C77.906 159.076 78.3852 160.184 78.3852 161.502C78.3852 162.76 77.906 163.868 76.9477 164.826C76.0492 165.725 74.9411 166.174 73.6234 166.174H57.6312C57.1521 166.174 56.9125 166.413 56.9125 166.893V172.732C56.9125 173.212 57.1521 173.451 57.6312 173.451H70.7484C72.0062 173.451 73.0844 173.9 73.9828 174.799C74.8812 175.697 75.3305 176.805 75.3305 178.123C75.3305 179.381 74.8812 180.489 73.9828 181.447C73.0844 182.346 72.0062 182.795 70.7484 182.795H57.6312C57.1521 182.795 56.9125 183.035 56.9125 183.514V195.553C56.9125 195.972 57.0922 196.361 57.4516 196.721C62.4828 199.596 67.7237 203.369 73.1742 208.041C74.1326 208.88 74.6417 209.988 74.7016 211.365C74.7615 212.683 74.3721 213.821 73.5336 214.779L73.2641 215.049C72.3656 215.947 71.2576 216.426 69.9398 216.486C68.6221 216.606 67.4841 216.217 66.5258 215.318C62.9919 212.264 59.8474 209.748 57.0922 207.771C56.6729 207.472 56.4034 207.532 56.2836 207.951C55.4451 212.443 53.4385 215.678 50.2641 217.654C47.0896 219.631 42.5076 220.619 36.518 220.619C30.5883 220.619 25.9464 219.242 22.5922 216.486C19.238 213.731 17.5609 209.898 17.5609 204.986C17.5609 200.554 19.1182 196.99 22.2328 194.295C25.3474 191.6 30.1091 190.252 36.518 190.252C39.6924 190.252 42.7471 190.671 45.682 191.51C46.1013 191.57 46.3109 191.39 46.3109 190.971V183.514C46.3109 183.035 46.0714 182.795 45.5922 182.795H20.8852C19.5674 182.795 18.4594 182.346 17.5609 181.447C16.7224 180.549 16.3031 179.471 16.3031 178.213C16.3031 176.895 16.7224 175.787 17.5609 174.889C18.4594 173.93 19.5674 173.451 20.8852 173.451H45.5922C46.0714 173.451 46.3109 173.212 46.3109 172.732V166.982C46.3109 166.443 46.0714 166.174 45.5922 166.174H17.9203Z" fill="#1185FE"/>
</g>
<path d="M34.918 209.586C38.6315 209.586 41.1771 208.957 42.5547 207.699C43.9922 206.441 44.7109 204.076 44.7109 200.602C44.7109 200.122 44.5013 199.823 44.082 199.703C41.0872 198.505 38.4219 197.906 36.0859 197.906C32.7917 197.906 30.4258 198.355 28.9883 199.254C27.5508 200.152 26.832 201.53 26.832 203.387C26.832 205.303 27.5208 206.831 28.8984 207.969C30.3359 209.047 32.3424 209.586 34.918 209.586ZM16.3203 164.574C15.0026 164.574 13.8646 164.125 12.9063 163.227C12.0078 162.268 11.5586 161.16 11.5586 159.902C11.5586 158.585 12.0078 157.477 12.9063 156.578C13.8646 155.62 15.0026 155.141 16.3203 155.141H43.9922C44.4714 155.141 44.7109 154.901 44.7109 154.422V151.727C44.7109 150.469 45.1602 149.391 46.0586 148.492C47.0169 147.534 48.1549 147.055 49.4727 147.055H50.6406C51.9583 147.055 53.0664 147.534 53.9648 148.492C54.8633 149.451 55.3125 150.529 55.3125 151.727V154.422C55.3125 154.901 55.5521 155.141 56.0313 155.141H72.0234C73.3411 155.141 74.4492 155.62 75.3477 156.578C76.306 157.477 76.7852 158.585 76.7852 159.902C76.7852 161.16 76.306 162.268 75.3477 163.227C74.4492 164.125 73.3411 164.574 72.0234 164.574H56.0313C55.5521 164.574 55.3125 164.814 55.3125 165.293V171.133C55.3125 171.612 55.5521 171.852 56.0313 171.852H69.1484C70.4062 171.852 71.4844 172.301 72.3828 173.199C73.2812 174.098 73.7305 175.206 73.7305 176.523C73.7305 177.781 73.2812 178.889 72.3828 179.848C71.4844 180.746 70.4062 181.195 69.1484 181.195H56.0313C55.5521 181.195 55.3125 181.435 55.3125 181.914V193.953C55.3125 194.372 55.4922 194.762 55.8516 195.121C60.8828 197.996 66.1237 201.77 71.5742 206.441C72.5326 207.28 73.0417 208.388 73.1016 209.766C73.1615 211.083 72.7721 212.221 71.9336 213.18L71.6641 213.449C70.7656 214.348 69.6576 214.827 68.3398 214.887C67.0221 215.007 65.8841 214.617 64.9258 213.719C61.3919 210.664 58.2474 208.148 55.4922 206.172C55.0729 205.872 54.8034 205.932 54.6836 206.352C53.8451 210.844 51.8385 214.078 48.6641 216.055C45.4896 218.031 40.9076 219.02 34.918 219.02C28.9883 219.02 24.3464 217.642 20.9922 214.887C17.638 212.132 15.9609 208.298 15.9609 203.387C15.9609 198.954 17.5182 195.391 20.6328 192.695C23.7474 190 28.5091 188.652 34.918 188.652C38.0924 188.652 41.1471 189.072 44.082 189.91C44.5013 189.97 44.7109 189.79 44.7109 189.371V181.914C44.7109 181.435 44.4714 181.195 43.9922 181.195H19.2852C17.9674 181.195 16.8594 180.746 15.9609 179.848C15.1224 178.949 14.7031 177.871 14.7031 176.613C14.7031 175.296 15.1224 174.187 15.9609 173.289C16.8594 172.331 17.9674 171.852 19.2852 171.852H43.9922C44.4714 171.852 44.7109 171.612 44.7109 171.133V165.383C44.7109 164.844 44.4714 164.574 43.9922 164.574H16.3203Z" fill="#454545"/>
<g filter="url(#filter3_f_2137_680)">
<path d="M197.059 42.7872C198.138 43.506 198.796 44.4943 199.036 45.7521C199.276 47.0099 199.006 48.1479 198.227 49.1662C193.855 54.437 188.794 59.019 183.044 62.9122C181.966 63.631 180.828 63.8107 179.63 63.4513C178.432 63.032 177.563 62.2534 177.024 61.1154L176.755 60.4865C176.216 59.2287 176.156 57.9409 176.575 56.6232C176.994 55.3055 177.743 54.2872 178.821 53.5685C183.134 50.6935 186.877 47.3992 190.052 43.6857C190.89 42.7274 191.968 42.1583 193.286 41.9787C194.664 41.799 195.891 42.0386 196.97 42.6974L197.059 42.7872ZM175.317 89.1466L174.778 86.5412C174.059 83.6662 174.928 81.1805 177.384 79.0841C182.355 75.0112 186.757 70.1596 190.591 64.5294C191.369 63.4513 192.388 62.7625 193.645 62.463C194.963 62.1635 196.161 62.3732 197.239 63.0919L197.598 63.3615C198.796 64.0203 199.545 64.9787 199.845 66.2365C200.204 67.4943 200.054 68.7221 199.395 69.9201C198.317 71.7169 196.85 73.8133 194.993 76.2091C194.753 76.5685 194.634 76.9878 194.634 77.4669V112.596C194.634 113.854 194.154 114.932 193.196 115.83C192.238 116.729 191.1 117.178 189.782 117.178H188.434C187.117 117.178 185.979 116.729 185.02 115.83C184.122 114.932 183.673 113.854 183.673 112.596V87.1701C183.673 87.1102 183.583 87.0503 183.403 86.9904C183.283 86.9305 183.193 86.9604 183.134 87.0802C181.696 88.7573 180.618 89.9552 179.899 90.674C179.121 91.3927 178.222 91.6024 177.204 91.3029C176.246 90.9435 175.617 90.2248 175.317 89.1466ZM244.766 53.3888H209.817C208.499 53.3888 207.391 52.9096 206.493 51.9513C205.595 50.993 205.145 49.8849 205.145 48.6271C205.145 47.3094 205.595 46.2013 206.493 45.3029C207.391 44.3445 208.499 43.8654 209.817 43.8654H244.766C246.024 43.8654 247.102 44.3445 248.001 45.3029C248.959 46.2013 249.438 47.3094 249.438 48.6271C249.438 49.8849 248.959 50.993 248.001 51.9513C247.102 52.9096 246.024 53.3888 244.766 53.3888ZM248.36 65.338C249.618 65.338 250.696 65.8172 251.595 66.7755C252.553 67.674 253.032 68.782 253.032 70.0997C253.032 71.3576 252.553 72.4656 251.595 73.424C250.696 74.3823 249.618 74.8615 248.36 74.8615H241.173C240.634 74.8615 240.364 75.0711 240.364 75.4904V102.623C240.364 105.977 240.244 108.463 240.005 110.08C239.825 111.697 239.226 113.045 238.208 114.123C237.19 115.201 235.902 115.83 234.345 116.01C232.847 116.19 230.451 116.279 227.157 116.279C225.48 116.279 222.695 116.22 218.802 116.1C217.424 116.04 216.286 115.531 215.388 114.572C214.489 113.614 214.01 112.446 213.95 111.068V110.889C213.83 109.631 214.22 108.553 215.118 107.654C216.076 106.756 217.184 106.337 218.442 106.397C221.617 106.576 223.863 106.666 225.18 106.666C226.977 106.666 228.055 106.486 228.415 106.127C228.774 105.768 228.954 104.63 228.954 102.713V75.4904C228.954 75.0711 228.714 74.8615 228.235 74.8615H207.571C206.313 74.8615 205.205 74.3823 204.247 73.424C203.348 72.4656 202.899 71.3576 202.899 70.0997C202.899 68.782 203.378 67.674 204.337 66.7755C205.295 65.8172 206.373 65.338 207.571 65.338H248.36Z" fill="#1185FE"/>
</g>
<path d="M195.459 41.1867C196.538 41.9054 197.196 42.8937 197.436 44.1515C197.676 45.4093 197.406 46.5473 196.627 47.5656C192.255 52.8364 187.194 57.4184 181.444 61.3117C180.366 62.0304 179.228 62.2101 178.03 61.8507C176.832 61.4315 175.963 60.6528 175.424 59.5148L175.155 58.8859C174.616 57.6281 174.556 56.3403 174.975 55.0226C175.394 53.7049 176.143 52.6867 177.221 51.9679C181.534 49.0929 185.277 45.7986 188.452 42.0851C189.29 41.1268 190.368 40.5578 191.686 40.3781C193.064 40.1984 194.291 40.438 195.37 41.0968L195.459 41.1867ZM173.717 87.546L173.178 84.9406C172.459 82.0656 173.328 79.5799 175.784 77.4835C180.755 73.4106 185.157 68.5591 188.991 62.9288C189.769 61.8507 190.788 61.1619 192.045 60.8624C193.363 60.563 194.561 60.7726 195.639 61.4913L195.998 61.7609C197.196 62.4197 197.945 63.3781 198.245 64.6359C198.604 65.8937 198.454 67.1216 197.795 68.3195C196.717 70.1163 195.25 72.2127 193.393 74.6085C193.153 74.9679 193.034 75.3872 193.034 75.8663V110.995C193.034 112.253 192.554 113.331 191.596 114.23C190.638 115.128 189.5 115.577 188.182 115.577H186.834C185.517 115.577 184.379 115.128 183.42 114.23C182.522 113.331 182.073 112.253 182.073 110.995V85.5695C182.073 85.5096 181.983 85.4497 181.803 85.3898C181.683 85.3299 181.594 85.3598 181.534 85.4796C180.096 87.1567 179.018 88.3546 178.299 89.0734C177.521 89.7921 176.622 90.0018 175.604 89.7023C174.646 89.3429 174.017 88.6242 173.717 87.546ZM243.166 51.7882H208.217C206.899 51.7882 205.791 51.3091 204.893 50.3507C203.995 49.3924 203.545 48.2843 203.545 47.0265C203.545 45.7088 203.995 44.6007 204.893 43.7023C205.791 42.744 206.899 42.2648 208.217 42.2648H243.166C244.424 42.2648 245.502 42.744 246.401 43.7023C247.359 44.6007 247.838 45.7088 247.838 47.0265C247.838 48.2843 247.359 49.3924 246.401 50.3507C245.502 51.3091 244.424 51.7882 243.166 51.7882ZM246.76 63.7374C248.018 63.7374 249.096 64.2166 249.995 65.1749C250.953 66.0734 251.432 67.1815 251.432 68.4992C251.432 69.757 250.953 70.865 249.995 71.8234C249.096 72.7817 248.018 73.2609 246.76 73.2609H239.573C239.034 73.2609 238.764 73.4705 238.764 73.8898V101.023C238.764 104.377 238.644 106.862 238.405 108.48C238.225 110.097 237.626 111.444 236.608 112.523C235.59 113.601 234.302 114.23 232.745 114.409C231.247 114.589 228.851 114.679 225.557 114.679C223.88 114.679 221.095 114.619 217.202 114.499C215.824 114.439 214.686 113.93 213.788 112.972C212.889 112.013 212.41 110.846 212.35 109.468V109.288C212.23 108.03 212.62 106.952 213.518 106.054C214.476 105.155 215.584 104.736 216.842 104.796C220.017 104.976 222.263 105.066 223.58 105.066C225.377 105.066 226.455 104.886 226.815 104.527C227.174 104.167 227.354 103.029 227.354 101.112V73.8898C227.354 73.4705 227.114 73.2609 226.635 73.2609H205.971C204.713 73.2609 203.605 72.7817 202.647 71.8234C201.748 70.865 201.299 69.757 201.299 68.4992C201.299 67.1815 201.778 66.0734 202.737 65.1749C203.695 64.2166 204.773 63.7374 205.971 63.7374H246.76Z" fill="#454545"/>
<g filter="url(#filter4_f_2137_680)">
<path d="M91.2998 100.314L90.7608 99.3253C89.1436 96.6899 89.2334 94.0246 91.0303 91.3292C95.4626 84.5011 98.667 77.643 100.644 70.755H94.7139C93.4561 70.755 92.378 70.3358 91.4795 69.4972C90.641 68.5988 90.2217 67.5206 90.2217 66.2628C90.2217 64.9451 90.6709 63.8371 91.5694 62.9386C92.4678 62.0402 93.516 61.591 94.7139 61.591H100.015C100.434 61.591 100.644 61.3514 100.644 60.8722V54.4035C100.644 53.8644 100.404 53.6248 99.9249 53.6847C98.128 53.9243 96.7803 54.074 95.8819 54.1339C94.6241 54.2537 93.5459 53.9542 92.6475 53.2355C91.7491 52.4568 91.2699 51.4386 91.21 50.1808C91.0902 48.9829 91.3897 47.9347 92.1084 47.0363C92.8871 46.1378 93.8454 45.6287 94.9834 45.5089C101.572 44.8501 108.19 43.742 114.839 42.1847C115.917 41.9451 116.965 42.1248 117.983 42.7238C119.002 43.2628 119.72 44.1014 120.14 45.2394C120.559 46.3175 120.499 47.3956 119.96 48.4738C119.421 49.492 118.612 50.1509 117.534 50.4503C115.498 50.9894 113.461 51.4386 111.425 51.798C110.946 51.9178 110.706 52.2472 110.706 52.7863V60.8722C110.706 61.3514 110.946 61.591 111.425 61.591H115.737C116.995 61.591 118.073 62.0402 118.972 62.9386C119.87 63.8371 120.319 64.9451 120.319 66.2628C120.319 67.5206 119.87 68.5988 118.972 69.4972C118.073 70.3358 116.995 70.755 115.737 70.755H112.233C112.114 70.755 111.994 70.8149 111.874 70.9347C111.814 71.0545 111.844 71.1743 111.964 71.2941C113.042 73.3305 114.539 76.0558 116.456 79.4699C118.373 82.8839 119.72 85.2199 120.499 86.4777C121.038 87.5558 121.248 88.574 121.128 89.5324C121.128 89.6522 121.158 89.6821 121.218 89.6222C121.637 89.0233 122.176 88.5441 122.835 88.1847C127.806 85.729 132.718 82.5844 137.569 78.7511C137.629 78.6912 137.629 78.6613 137.569 78.6613C137.569 78.6613 137.509 78.6613 137.39 78.6613C134.036 80.0988 130.142 81.3266 125.71 82.3449C124.452 82.5844 123.224 82.4048 122.026 81.8058C120.888 81.1469 120.08 80.1587 119.601 78.841C119.241 77.7628 119.361 76.7147 119.96 75.6964C120.559 74.6782 121.427 74.0193 122.565 73.7199C128.016 72.6417 133.137 70.8449 137.929 68.3292C138.288 68.1496 138.318 67.88 138.019 67.5206L132.448 62.2199C131.849 61.6209 131.49 61.1118 131.37 60.6925C131.25 60.2134 131.011 60.1235 130.651 60.423C129.154 61.3214 128.196 61.8904 127.776 62.13C126.698 62.729 125.53 62.8787 124.273 62.5792C123.075 62.2199 122.086 61.561 121.308 60.6027C120.649 59.6443 120.469 58.6261 120.769 57.548C121.068 56.41 121.697 55.5115 122.655 54.8527C127.986 51.6183 132.838 47.8748 137.21 43.6222C139.366 41.466 141.822 40.9868 144.577 42.1847C146.314 42.9634 147.003 44.2212 146.644 45.9581C146.584 46.3175 146.793 46.4972 147.273 46.4972H159.491C160.569 46.4972 161.468 46.8865 162.187 47.6652C162.905 48.4438 163.265 49.3423 163.265 50.3605C163.265 51.5584 162.875 52.5167 162.097 53.2355C161.737 53.4751 161.618 53.8344 161.737 54.3136C162.157 55.6313 162.037 56.9191 161.378 58.1769C158.802 63.1483 155.119 67.4907 150.327 71.2042C150.267 71.324 150.237 71.4438 150.237 71.5636C150.297 71.6834 150.387 71.7733 150.507 71.8331H150.687C152.244 72.3722 153.023 73.4503 153.023 75.0675C153.023 75.5467 153.232 75.7863 153.651 75.7863H163.894C165.032 75.7863 165.99 76.2055 166.769 77.0441C167.607 77.8826 168.026 78.8709 168.026 80.0089C168.026 81.2068 167.547 82.1951 166.589 82.9738C166.23 83.2733 166.14 83.6326 166.319 84.0519C166.918 85.5493 166.888 86.9868 166.23 88.3644C162.576 95.7316 157.245 101.871 150.237 106.782C143.289 111.694 135.144 115.048 125.8 116.845C124.542 117.084 123.344 116.845 122.206 116.126C121.128 115.467 120.349 114.479 119.87 113.161C119.511 112.083 119.661 111.035 120.319 110.017C120.978 108.999 121.877 108.37 123.015 108.13C130.023 106.633 136.132 104.327 141.343 101.212C141.463 101.152 141.523 101.002 141.523 100.763C141.523 100.523 141.463 100.374 141.343 100.314C141.283 100.254 141.193 100.194 141.073 100.134C141.013 100.014 140.924 99.9542 140.804 99.9542C138.827 97.9178 136.851 95.9412 134.874 94.0246C134.575 93.7251 134.335 93.3358 134.155 92.8566C133.976 92.4972 133.676 92.4074 133.257 92.5871C131.4 93.785 129.543 94.8331 127.687 95.7316C126.608 96.2706 125.411 96.3605 124.093 96.0011C122.835 95.6417 121.877 94.923 121.218 93.8449C120.679 93.1261 120.469 92.3774 120.589 91.5988C120.589 91.5389 120.559 91.5089 120.499 91.5089C120.439 91.449 120.379 91.449 120.319 91.5089C119.96 92.048 119.571 92.4373 119.151 92.6769C118.253 93.2759 117.265 93.4555 116.187 93.216C115.108 92.9764 114.36 92.3774 113.94 91.4191C112.683 88.7238 111.724 86.7173 111.065 85.3996C111.006 85.3397 110.916 85.3097 110.796 85.3097C110.736 85.3097 110.706 85.3397 110.706 85.3996V112.622C110.706 113.88 110.227 114.958 109.269 115.857C108.31 116.755 107.172 117.204 105.855 117.204H105.405C104.088 117.204 102.95 116.755 101.991 115.857C101.093 114.958 100.644 113.88 100.644 112.622V92.1378C100.584 92.018 100.494 91.9581 100.374 91.9581C99.2959 94.8331 97.9782 97.6183 96.4209 100.314C95.8819 101.272 95.0134 101.751 93.8155 101.751C92.6775 101.751 91.8389 101.272 91.2998 100.314ZM144.847 61.8605C145.086 62.1001 145.266 62.3397 145.386 62.5792C145.446 62.699 145.565 62.7889 145.745 62.8488C145.985 62.8488 146.164 62.7889 146.284 62.6691C148.92 60.3331 151.196 57.6977 153.112 54.7628C153.232 54.643 153.232 54.5233 153.112 54.4035C153.052 54.2837 152.963 54.2238 152.843 54.2238H141.792C141.373 54.2238 140.894 54.1339 140.355 53.9542C139.995 53.7746 139.636 53.8344 139.276 54.1339C139.157 54.2537 138.947 54.4035 138.648 54.5831C138.408 54.7628 138.228 54.9126 138.108 55.0324C137.989 55.0923 137.929 55.242 137.929 55.4816C137.989 55.6613 138.108 55.7811 138.288 55.841C138.528 55.9608 138.857 56.2003 139.276 56.5597C139.815 57.0389 140.414 57.6079 141.073 58.2667C141.732 58.8657 142.421 59.5246 143.14 60.2433C143.918 60.9621 144.487 61.5011 144.847 61.8605ZM149.339 95.1027C152.453 92.2277 155.179 88.7537 157.515 84.6808C157.575 84.561 157.575 84.4412 157.515 84.3214C157.455 84.2016 157.335 84.1417 157.155 84.1417H147.003C146.823 84.1417 146.524 84.0818 146.105 83.9621C145.625 83.8423 145.206 83.9321 144.847 84.2316C143.529 85.3097 142.511 86.1183 141.792 86.6574C141.552 86.8969 141.582 87.1964 141.882 87.5558C141.942 87.5558 141.972 87.5858 141.972 87.6456C141.972 87.7055 142.002 87.7654 142.062 87.8253C143.439 89.2628 145.416 91.2993 147.991 93.9347C148.291 94.354 148.5 94.6834 148.62 94.923C148.86 95.2824 149.099 95.3423 149.339 95.1027Z" fill="#1185FE"/>
</g>
<path d="M89.6999 98.714L89.1608 97.7257C87.5436 95.0903 87.6334 92.4249 89.4303 89.7296C93.8626 82.9015 97.067 76.0434 99.0436 69.1554H93.1139C91.8561 69.1554 90.778 68.7361 89.8795 67.8976C89.041 66.9992 88.6217 65.921 88.6217 64.6632C88.6217 63.3455 89.0709 62.2374 89.9694 61.339C90.8678 60.4406 91.916 59.9913 93.1139 59.9913H98.4147C98.834 59.9913 99.0436 59.7518 99.0436 59.2726V52.8039C99.0436 52.2648 98.804 52.0252 98.3249 52.0851C96.528 52.3247 95.1803 52.4744 94.2819 52.5343C93.0241 52.6541 91.9459 52.3546 91.0475 51.6359C90.1491 50.8572 89.6699 49.839 89.61 48.5812C89.4902 47.3833 89.7897 46.3351 90.5084 45.4367C91.2871 44.5382 92.2454 44.0291 93.3834 43.9093C99.972 43.2505 106.59 42.1424 113.239 40.5851C114.317 40.3455 115.365 40.5252 116.383 41.1242C117.402 41.6632 118.12 42.5018 118.54 43.6398C118.959 44.7179 118.899 45.796 118.36 46.8742C117.821 47.8924 117.012 48.5512 115.934 48.8507C113.898 49.3898 111.861 49.839 109.825 50.1984C109.346 50.3182 109.106 50.6476 109.106 51.1867V59.2726C109.106 59.7518 109.346 59.9913 109.825 59.9913H114.137C115.395 59.9913 116.473 60.4406 117.372 61.339C118.27 62.2374 118.719 63.3455 118.719 64.6632C118.719 65.921 118.27 66.9992 117.372 67.8976C116.473 68.7361 115.395 69.1554 114.137 69.1554H110.633C110.514 69.1554 110.394 69.2153 110.274 69.3351C110.214 69.4549 110.244 69.5747 110.364 69.6945C111.442 71.7309 112.939 74.4562 114.856 77.8703C116.773 81.2843 118.12 83.6203 118.899 84.8781C119.438 85.9562 119.648 86.9744 119.528 87.9328C119.528 88.0525 119.558 88.0825 119.618 88.0226C120.037 87.4236 120.576 86.9445 121.235 86.5851C126.206 84.1294 131.118 80.9848 135.969 77.1515C136.029 77.0916 136.029 77.0617 135.969 77.0617C135.969 77.0617 135.909 77.0617 135.79 77.0617C132.436 78.4992 128.542 79.727 124.11 80.7453C122.852 80.9848 121.624 80.8052 120.426 80.2062C119.288 79.5473 118.48 78.5591 118.001 77.2414C117.641 76.1632 117.761 75.115 118.36 74.0968C118.959 73.0786 119.827 72.4197 120.965 72.1203C126.416 71.0421 131.537 69.2453 136.329 66.7296C136.688 66.5499 136.718 66.2804 136.419 65.921L130.848 60.6203C130.249 60.0213 129.89 59.5122 129.77 59.0929C129.65 58.6137 129.411 58.5239 129.051 58.8234C127.554 59.7218 126.596 60.2908 126.176 60.5304C125.098 61.1294 123.93 61.2791 122.673 60.9796C121.475 60.6203 120.486 59.9614 119.708 59.0031C119.049 58.0447 118.869 57.0265 119.169 55.9484C119.468 54.8104 120.097 53.9119 121.055 53.2531C126.386 50.0187 131.238 46.2752 135.61 42.0226C137.766 39.8664 140.222 39.3872 142.977 40.5851C144.714 41.3637 145.403 42.6216 145.044 44.3585C144.984 44.7179 145.193 44.8976 145.673 44.8976H157.891C158.969 44.8976 159.868 45.2869 160.587 46.0656C161.305 46.8442 161.665 47.7427 161.665 48.7609C161.665 49.9588 161.275 50.9171 160.497 51.6359C160.137 51.8755 160.018 52.2348 160.137 52.714C160.557 54.0317 160.437 55.3195 159.778 56.5773C157.202 61.5486 153.519 65.8911 148.727 69.6046C148.667 69.7244 148.637 69.8442 148.637 69.964C148.697 70.0838 148.787 70.1736 148.907 70.2335H149.087C150.644 70.7726 151.423 71.8507 151.423 73.4679C151.423 73.9471 151.632 74.1867 152.051 74.1867H162.294C163.432 74.1867 164.39 74.6059 165.169 75.4445C166.007 76.283 166.426 77.2713 166.426 78.4093C166.426 79.6072 165.947 80.5955 164.989 81.3742C164.63 81.6736 164.54 82.033 164.719 82.4523C165.318 83.9497 165.288 85.3872 164.63 86.7648C160.976 94.132 155.645 100.271 148.637 105.183C141.689 110.094 133.544 113.448 124.2 115.245C122.942 115.485 121.744 115.245 120.606 114.527C119.528 113.868 118.749 112.879 118.27 111.562C117.911 110.484 118.061 109.435 118.719 108.417C119.378 107.399 120.277 106.77 121.415 106.53C128.423 105.033 134.532 102.727 139.743 99.6124C139.863 99.5525 139.923 99.4028 139.923 99.1632C139.923 98.9236 139.863 98.7739 139.743 98.714C139.683 98.6541 139.593 98.5942 139.473 98.5343C139.413 98.4145 139.324 98.3546 139.204 98.3546C137.227 96.3182 135.251 94.3416 133.274 92.4249C132.975 92.1255 132.735 91.7361 132.555 91.257C132.376 90.8976 132.076 90.8078 131.657 90.9874C129.8 92.1854 127.943 93.2335 126.087 94.132C125.008 94.671 123.811 94.7609 122.493 94.4015C121.235 94.0421 120.277 93.3234 119.618 92.2453C119.079 91.5265 118.869 90.7778 118.989 89.9992C118.989 89.9393 118.959 89.9093 118.899 89.9093C118.839 89.8494 118.779 89.8494 118.719 89.9093C118.36 90.4484 117.971 90.8377 117.551 91.0773C116.653 91.6762 115.665 91.8559 114.587 91.6164C113.508 91.3768 112.76 90.7778 112.34 89.8195C111.083 87.1242 110.124 85.1177 109.465 83.7999C109.406 83.74 109.316 83.7101 109.196 83.7101C109.136 83.7101 109.106 83.74 109.106 83.7999V111.023C109.106 112.28 108.627 113.359 107.669 114.257C106.71 115.155 105.572 115.605 104.255 115.605H103.805C102.488 115.605 101.35 115.155 100.391 114.257C99.4928 113.359 99.0436 112.28 99.0436 111.023V90.5382C98.9837 90.4184 98.8939 90.3585 98.7741 90.3585C97.6959 93.2335 96.3782 96.0187 94.8209 98.714C94.2819 99.6723 93.4134 100.152 92.2155 100.152C91.0775 100.152 90.2389 99.6723 89.6999 98.714ZM143.247 60.2609C143.486 60.5005 143.666 60.74 143.786 60.9796C143.846 61.0994 143.965 61.1893 144.145 61.2492C144.385 61.2492 144.564 61.1893 144.684 61.0695C147.32 58.7335 149.596 56.0981 151.512 53.1632C151.632 53.0434 151.632 52.9236 151.512 52.8039C151.452 52.6841 151.363 52.6242 151.243 52.6242H140.192C139.773 52.6242 139.294 52.5343 138.755 52.3546C138.395 52.1749 138.036 52.2348 137.676 52.5343C137.557 52.6541 137.347 52.8039 137.048 52.9835C136.808 53.1632 136.628 53.313 136.508 53.4328C136.389 53.4927 136.329 53.6424 136.329 53.882C136.389 54.0617 136.508 54.1815 136.688 54.2414C136.928 54.3611 137.257 54.6007 137.676 54.9601C138.215 55.4393 138.814 56.0083 139.473 56.6671C140.132 57.2661 140.821 57.9249 141.54 58.6437C142.318 59.3624 142.887 59.9015 143.247 60.2609ZM147.739 93.5031C150.854 90.6281 153.579 87.1541 155.915 83.0812C155.975 82.9614 155.975 82.8416 155.915 82.7218C155.855 82.602 155.735 82.5421 155.555 82.5421H145.403C145.223 82.5421 144.924 82.4822 144.505 82.3624C144.025 82.2427 143.606 82.3325 143.247 82.632C141.929 83.7101 140.911 84.5187 140.192 85.0578C139.952 85.2973 139.982 85.5968 140.282 85.9562C140.342 85.9562 140.372 85.9861 140.372 86.046C140.372 86.1059 140.402 86.1658 140.462 86.2257C141.839 87.6632 143.816 89.6997 146.391 92.3351C146.691 92.7544 146.9 93.0838 147.02 93.3234C147.26 93.6828 147.499 93.7427 147.739 93.5031Z" fill="#454545"/>
<g filter="url(#filter5_f_2137_680)">
<path d="M21.3422 50.1189C30.4528 56.8671 40.2518 70.5502 43.85 77.8925C47.4482 70.5502 57.2472 56.8671 66.3578 50.1189C72.9315 45.2496 83.583 41.4822 83.583 53.4706C83.583 55.865 82.1917 73.5839 81.3756 76.4608C78.539 86.4617 68.2028 89.0126 59.0083 87.4687C75.0799 90.1674 79.1682 99.1064 70.3386 108.045C53.5696 125.022 46.2369 103.786 44.358 98.3443C44.0135 97.3467 43.8524 96.8801 43.85 97.2769C43.8476 96.8801 43.6865 97.3467 43.342 98.3443C41.4631 103.786 34.1304 125.022 17.3614 108.045C8.53181 99.1064 12.6201 90.1674 28.6917 87.4687C19.4971 89.0126 9.16096 86.4617 6.32439 76.4608C5.50832 73.5839 4.11697 55.865 4.11697 53.4706C4.11697 41.4822 14.7685 45.2496 21.3422 50.1189Z" fill="#1185FE"/>
</g>
<path d="M19.7422 48.5188C28.8528 55.267 38.6518 68.9501 42.25 76.2924C45.8482 68.9501 55.6472 55.267 64.7578 48.5188C71.3315 43.6496 81.983 39.8821 81.983 51.8705C81.983 54.2649 80.5917 71.9838 79.7756 74.8607C76.939 84.8616 66.6028 87.4125 57.4083 85.8686C73.4799 88.5673 77.5682 97.5063 68.7386 106.445C51.9696 123.422 44.6369 102.186 42.758 96.7442C42.4135 95.7466 42.2524 95.28 42.25 95.6768C42.2476 95.28 42.0864 95.7466 41.742 96.7442C39.8631 102.186 32.5304 123.422 15.7614 106.445C6.93181 97.5063 11.0201 88.5673 27.0917 85.8686C17.8971 87.4125 7.56096 84.8616 4.72439 74.8607C3.90832 71.9838 2.51696 54.2649 2.51696 51.8705C2.51696 39.8821 13.1685 43.6496 19.7422 48.5188Z" fill="#1185FE"/>
<defs>
<filter id="filter0_f_2137_680" x="172.08" y="144.904" width="81.1328" height="79.2412" filterUnits="userSpaceOnUse" color-interpolation-filters="sRGB">
<feFlood flood-opacity="0" result="BackgroundImageFix"/>
<feBlend mode="normal" in="SourceGraphic" in2="BackgroundImageFix" result="shape"/>
<feGaussianBlur stdDeviation="2" result="effect1_foregroundBlur_2137_680"/>
</filter>
<filter id="filter1_f_2137_680" x="93.0032" y="146.023" width="66.9851" height="77.4395" filterUnits="userSpaceOnUse" color-interpolation-filters="sRGB">
<feFlood flood-opacity="0" result="BackgroundImageFix"/>
<feBlend mode="normal" in="SourceGraphic" in2="BackgroundImageFix" result="shape"/>
<feGaussianBlur stdDeviation="2" result="effect1_foregroundBlur_2137_680"/>
</filter>
<filter id="filter2_f_2137_680" x="9.15859" y="144.654" width="73.2266" height="79.9648" filterUnits="userSpaceOnUse" color-interpolation-filters="sRGB">
<feFlood flood-opacity="0" result="BackgroundImageFix"/>
<feBlend mode="normal" in="SourceGraphic" in2="BackgroundImageFix" result="shape"/>
<feGaussianBlur stdDeviation="2" result="effect1_foregroundBlur_2137_680"/>
</filter>
<filter id="filter3_f_2137_680" x="170.534" y="37.9204" width="86.498" height="83.2573" filterUnits="userSpaceOnUse" color-interpolation-filters="sRGB">
<feFlood flood-opacity="0" result="BackgroundImageFix"/>
<feBlend mode="normal" in="SourceGraphic" in2="BackgroundImageFix" result="shape"/>
<feGaussianBlur stdDeviation="2" result="effect1_foregroundBlur_2137_680"/>
</filter>
<filter id="filter4_f_2137_680" x="85.6117" y="37.5425" width="86.4147" height="83.6616" filterUnits="userSpaceOnUse" color-interpolation-filters="sRGB">
<feFlood flood-opacity="0" result="BackgroundImageFix"/>
<feBlend mode="normal" in="SourceGraphic" in2="BackgroundImageFix" result="shape"/>
<feGaussianBlur stdDeviation="2" result="effect1_foregroundBlur_2137_680"/>
</filter>
<filter id="filter5_f_2137_680" x="-0.4" y="34.6001" width="88.5" height="83.9048" filterUnits="userSpaceOnUse" color-interpolation-filters="sRGB">
<feFlood flood-opacity="0" result="BackgroundImageFix"/>
<feBlend mode="normal" in="SourceGraphic" in2="BackgroundImageFix" result="shape"/>
<feGaussianBlur stdDeviation="2" result="effect1_foregroundBlur_2137_680"/>
</filter>
</defs>
</svg>
