<svg width="16" height="16" viewBox="0 0 16 16" fill="none" xmlns="http://www.w3.org/2000/svg">
<rect width="16" height="16" rx="2" fill="url(#paint0_linear_20_7)"/>
<path d="M4.85729 3.77287C6.10409 4.71376 7.44508 6.62154 7.9375 7.64524C8.42992 6.62154 9.77091 4.71376 11.0177 3.77287C11.9173 3.09398 13.375 2.56868 13.375 4.24021C13.375 4.57402 13.1846 7.04452 13.0729 7.44563C12.6847 8.84002 11.2702 9.19568 10.0119 8.98042C12.2113 9.35669 12.7708 10.603 11.5625 11.8494C9.26764 14.2164 8.26415 11.2555 8.00702 10.4968C7.95988 10.3577 7.93783 10.2926 7.9375 10.3479C7.93717 10.2926 7.91512 10.3577 7.86798 10.4968C7.61085 11.2555 6.60736 14.2164 4.3125 11.8494C3.10417 10.603 3.66366 9.35669 5.86307 8.98042C4.60479 9.19568 3.19028 8.84002 2.80208 7.44563C2.69041 7.04452 2.5 4.57402 2.5 4.24021C2.5 2.56868 3.95768 3.09398 4.85729 3.77287Z" fill="white"/>
<defs>
<linearGradient id="paint0_linear_20_7" x1="8" y1="0" x2="8" y2="16" gradientUnits="userSpaceOnUse">
<stop stop-color="#0C7BFF"/>
<stop offset="1" stop-color="#58B8FF"/>
</linearGradient>
</defs>
</svg>
