<svg width="310" height="310" viewBox="0 0 310 310" fill="none" xmlns="http://www.w3.org/2000/svg">
<rect width="310" height="310" fill="white"/>
<rect x="25" y="25" width="260" height="260" fill="white"/>
<path d="M220.342 207.135C216.149 211.627 214.053 217.078 214.053 223.487C214.053 227.26 214.682 230.165 215.94 232.201C217.198 234.178 218.725 235.166 220.522 235.166C222.798 235.166 225.403 233.609 228.338 230.494C228.638 230.195 228.698 229.806 228.518 229.326C228.338 229.147 228.218 228.937 228.159 228.698C225.463 221.211 223.067 214.083 220.971 207.315C220.911 206.836 220.702 206.776 220.342 207.135ZM242.264 198.69C237.892 198.69 233.939 199.349 230.405 200.666C229.985 200.846 229.836 201.175 229.955 201.655C231.513 206.985 233.399 213.005 235.616 219.713C235.735 220.013 235.945 219.983 236.245 219.623C239.539 213.873 242.564 207.165 245.319 199.498C245.379 199.319 245.349 199.169 245.229 199.049C245.169 198.869 245.049 198.78 244.87 198.78C244.33 198.72 243.462 198.69 242.264 198.69ZM219.444 245.498C215.011 245.498 211.328 243.582 208.393 239.748C205.518 235.855 204.08 230.435 204.08 223.487C204.08 217.976 205.218 212.855 207.495 208.123C209.771 203.392 212.975 199.408 217.108 196.174C217.467 195.875 217.617 195.545 217.557 195.186C216.479 191.053 215.7 187.908 215.221 185.752C214.922 184.435 215.101 183.237 215.76 182.158C216.479 181.08 217.497 180.422 218.815 180.182L219.534 180.092C220.851 179.853 222.049 180.062 223.127 180.721C224.205 181.38 224.924 182.368 225.284 183.686C225.403 184.405 225.643 185.513 226.002 187.01C226.422 188.448 226.691 189.466 226.811 190.065C226.931 190.424 227.2 190.574 227.62 190.514C232.172 188.897 237.053 188.088 242.264 188.088C244.48 188.088 246.457 188.178 248.194 188.358C248.733 188.478 249.032 188.298 249.092 187.819C249.571 186.321 250.26 183.955 251.159 180.721C251.518 179.403 252.267 178.385 253.405 177.666C254.543 176.948 255.771 176.738 257.088 177.037L257.717 177.217C259.035 177.457 260.023 178.145 260.682 179.283C261.401 180.362 261.58 181.5 261.221 182.698C260.442 185.872 259.724 188.478 259.065 190.514C259.005 190.933 259.155 191.233 259.514 191.412C265.024 193.808 269.337 197.342 272.452 202.014C275.626 206.626 277.213 211.927 277.213 217.916C277.213 226.002 275.267 232.591 271.373 237.682C267.54 242.773 262 246.217 254.752 248.014C253.435 248.313 252.207 248.104 251.069 247.385C249.991 246.726 249.272 245.708 248.913 244.33L248.733 243.701C248.373 242.504 248.553 241.366 249.272 240.287C249.991 239.209 250.949 238.52 252.147 238.221C261.73 235.466 266.522 228.698 266.522 217.916C266.522 214.323 265.623 211.118 263.827 208.303C262.03 205.488 259.484 203.272 256.19 201.655C255.83 201.475 255.561 201.595 255.381 202.014C250.17 216.449 244.36 227.32 237.952 234.627C231.603 241.875 225.433 245.498 219.444 245.498Z" fill="#A5D1FF"/>
<path d="M215.742 202.534C211.549 207.027 209.453 212.477 209.453 218.886C209.453 222.659 210.082 225.564 211.34 227.601C212.598 229.577 214.125 230.566 215.922 230.566C218.198 230.566 220.803 229.008 223.738 225.894C224.038 225.594 224.098 225.205 223.918 224.726C223.738 224.546 223.618 224.337 223.559 224.097C220.863 216.61 218.467 209.482 216.371 202.714C216.311 202.235 216.102 202.175 215.742 202.534ZM237.664 194.089C233.292 194.089 229.339 194.748 225.805 196.066C225.385 196.245 225.236 196.575 225.355 197.054C226.913 202.385 228.799 208.404 231.016 215.113C231.135 215.412 231.345 215.382 231.645 215.023C234.939 209.273 237.964 202.564 240.719 194.898C240.779 194.718 240.749 194.568 240.629 194.449C240.569 194.269 240.449 194.179 240.27 194.179C239.73 194.119 238.862 194.089 237.664 194.089ZM214.844 240.898C210.411 240.898 206.728 238.981 203.793 235.148C200.918 231.255 199.48 225.834 199.48 218.886C199.48 213.376 200.618 208.255 202.895 203.523C205.171 198.791 208.375 194.808 212.508 191.574C212.867 191.274 213.017 190.945 212.957 190.585C211.879 186.452 211.1 183.308 210.621 181.152C210.322 179.834 210.501 178.636 211.16 177.558C211.879 176.48 212.897 175.821 214.215 175.581L214.934 175.491C216.251 175.252 217.449 175.462 218.527 176.12C219.605 176.779 220.324 177.768 220.684 179.085C220.803 179.804 221.043 180.912 221.402 182.409C221.822 183.847 222.091 184.865 222.211 185.464C222.331 185.824 222.6 185.973 223.02 185.913C227.572 184.296 232.453 183.488 237.664 183.488C239.88 183.488 241.857 183.577 243.594 183.757C244.133 183.877 244.432 183.697 244.492 183.218C244.971 181.721 245.66 179.355 246.559 176.12C246.918 174.803 247.667 173.784 248.805 173.066C249.943 172.347 251.171 172.137 252.488 172.437L253.117 172.616C254.435 172.856 255.423 173.545 256.082 174.683C256.801 175.761 256.98 176.899 256.621 178.097C255.842 181.271 255.124 183.877 254.465 185.913C254.405 186.333 254.555 186.632 254.914 186.812C260.424 189.208 264.737 192.741 267.852 197.413C271.026 202.025 272.613 207.326 272.613 213.316C272.613 221.402 270.667 227.99 266.773 233.081C262.94 238.172 257.4 241.616 250.152 243.413C248.835 243.713 247.607 243.503 246.469 242.784C245.391 242.126 244.672 241.107 244.312 239.73L244.133 239.101C243.773 237.903 243.953 236.765 244.672 235.687C245.391 234.609 246.349 233.92 247.547 233.62C257.13 230.865 261.922 224.097 261.922 213.316C261.922 209.722 261.023 206.518 259.227 203.702C257.43 200.887 254.884 198.671 251.59 197.054C251.23 196.874 250.961 196.994 250.781 197.413C245.57 211.848 239.76 222.719 233.352 230.027C227.003 237.274 220.833 240.898 214.844 240.898Z" fill="#454545"/>
<path d="M156.269 247.462C145.967 247.462 138.18 245.755 132.909 242.341C127.639 238.867 125.003 233.805 125.003 227.157C125.003 219.91 129.346 213.411 138.03 207.661C138.33 207.421 138.45 207.062 138.39 206.583V206.403C136.294 197.419 134.706 189.932 133.628 183.942C133.448 182.684 133.718 181.516 134.437 180.438C135.155 179.3 136.174 178.611 137.491 178.372L139.648 178.102C140.965 177.863 142.133 178.162 143.152 179.001C144.17 179.779 144.829 180.798 145.128 182.055C146.386 188.644 147.704 194.963 149.081 201.012C149.201 201.552 149.501 201.701 149.98 201.462C157.527 198.287 166.601 195.412 177.202 192.837C178.52 192.537 179.748 192.747 180.886 193.466C182.024 194.124 182.683 195.113 182.863 196.43L183.042 197.149C183.342 198.467 183.102 199.665 182.323 200.743C181.605 201.821 180.616 202.51 179.359 202.809C165.223 206.223 154.592 209.997 147.464 214.13C140.336 218.262 136.773 222.395 136.773 226.528C136.773 233.775 143.271 237.399 156.269 237.399C163.636 237.399 171.093 236.92 178.64 235.962C179.958 235.782 181.096 236.081 182.054 236.86C183.072 237.639 183.671 238.687 183.851 240.005L183.941 240.544C184.12 241.861 183.791 243.059 182.952 244.137C182.174 245.216 181.155 245.845 179.898 246.024C172.77 246.983 164.894 247.462 156.269 247.462Z" fill="#A5D1FF"/>
<path d="M151.669 242.862C141.367 242.862 133.58 241.155 128.309 237.741C123.039 234.267 120.403 229.206 120.403 222.557C120.403 215.31 124.746 208.811 133.43 203.061C133.73 202.822 133.85 202.462 133.79 201.983V201.803C131.694 192.819 130.106 185.332 129.028 179.343C128.848 178.085 129.118 176.917 129.837 175.839C130.555 174.701 131.574 174.012 132.891 173.772L135.048 173.503C136.365 173.263 137.533 173.563 138.552 174.401C139.57 175.18 140.229 176.198 140.528 177.456C141.786 184.044 143.104 190.363 144.481 196.413C144.601 196.952 144.901 197.102 145.38 196.862C152.927 193.688 162.001 190.813 172.602 188.237C173.92 187.938 175.148 188.147 176.286 188.866C177.424 189.525 178.083 190.513 178.263 191.831L178.442 192.55C178.742 193.867 178.502 195.065 177.723 196.143C177.005 197.221 176.016 197.91 174.759 198.21C160.623 201.624 149.992 205.397 142.864 209.53C135.736 213.663 132.173 217.796 132.173 221.928C132.173 229.176 138.671 232.8 151.669 232.8C159.036 232.8 166.493 232.32 174.04 231.362C175.358 231.182 176.496 231.482 177.454 232.261C178.472 233.039 179.071 234.087 179.251 235.405L179.341 235.944C179.52 237.262 179.191 238.46 178.352 239.538C177.574 240.616 176.555 241.245 175.298 241.425C168.17 242.383 160.294 242.862 151.669 242.862Z" fill="#454545"/>
<path d="M64.518 239.186C68.2315 239.186 70.7771 238.557 72.1547 237.299C73.5922 236.041 74.3109 233.675 74.3109 230.201C74.3109 229.722 74.1013 229.423 73.682 229.303C70.6872 228.105 68.0219 227.506 65.6859 227.506C62.3917 227.506 60.0258 227.955 58.5883 228.854C57.1508 229.752 56.432 231.13 56.432 232.986C56.432 234.903 57.1208 236.43 58.4984 237.568C59.9359 238.646 61.9424 239.186 64.518 239.186ZM45.9203 194.174C44.6026 194.174 43.4646 193.725 42.5062 192.826C41.6078 191.868 41.1586 190.76 41.1586 189.502C41.1586 188.184 41.6078 187.076 42.5062 186.178C43.4646 185.219 44.6026 184.74 45.9203 184.74H73.5922C74.0714 184.74 74.3109 184.501 74.3109 184.021V181.326C74.3109 180.068 74.7602 178.99 75.6586 178.092C76.6169 177.133 77.7549 176.654 79.0727 176.654H80.2406C81.5583 176.654 82.6664 177.133 83.5648 178.092C84.4633 179.05 84.9125 180.128 84.9125 181.326V184.021C84.9125 184.501 85.1521 184.74 85.6312 184.74H101.623C102.941 184.74 104.049 185.219 104.948 186.178C105.906 187.076 106.385 188.184 106.385 189.502C106.385 190.76 105.906 191.868 104.948 192.826C104.049 193.725 102.941 194.174 101.623 194.174H85.6312C85.1521 194.174 84.9125 194.413 84.9125 194.893V200.732C84.9125 201.212 85.1521 201.451 85.6312 201.451H98.7484C100.006 201.451 101.084 201.9 101.983 202.799C102.881 203.697 103.33 204.805 103.33 206.123C103.33 207.381 102.881 208.489 101.983 209.447C101.084 210.346 100.006 210.795 98.7484 210.795H85.6312C85.1521 210.795 84.9125 211.035 84.9125 211.514V223.553C84.9125 223.972 85.0922 224.361 85.4516 224.721C90.4828 227.596 95.7237 231.369 101.174 236.041C102.133 236.88 102.642 237.988 102.702 239.365C102.761 240.683 102.372 241.821 101.534 242.779L101.264 243.049C100.366 243.947 99.2575 244.426 97.9398 244.486C96.6221 244.606 95.4841 244.217 94.5258 243.318C90.9919 240.264 87.8474 237.748 85.0922 235.771C84.6729 235.472 84.4034 235.532 84.2836 235.951C83.445 240.443 81.4385 243.678 78.2641 245.654C75.0896 247.631 70.5076 248.619 64.518 248.619C58.5883 248.619 53.9464 247.242 50.5922 244.486C47.238 241.731 45.5609 237.898 45.5609 232.986C45.5609 228.554 47.1182 224.99 50.2328 222.295C53.3474 219.6 58.1091 218.252 64.518 218.252C67.6924 218.252 70.7471 218.671 73.682 219.51C74.1013 219.57 74.3109 219.39 74.3109 218.971V211.514C74.3109 211.035 74.0714 210.795 73.5922 210.795H48.8852C47.5674 210.795 46.4594 210.346 45.5609 209.447C44.7224 208.549 44.3031 207.471 44.3031 206.213C44.3031 204.895 44.7224 203.787 45.5609 202.889C46.4594 201.93 47.5674 201.451 48.8852 201.451H73.5922C74.0714 201.451 74.3109 201.212 74.3109 200.732V194.982C74.3109 194.443 74.0714 194.174 73.5922 194.174H45.9203Z" fill="#A5D1FF"/>
<path d="M59.918 234.586C63.6315 234.586 66.1771 233.957 67.5547 232.699C68.9922 231.441 69.7109 229.076 69.7109 225.602C69.7109 225.122 69.5013 224.823 69.082 224.703C66.0872 223.505 63.4219 222.906 61.0859 222.906C57.7917 222.906 55.4258 223.355 53.9883 224.254C52.5508 225.152 51.832 226.53 51.832 228.387C51.832 230.303 52.5208 231.831 53.8984 232.969C55.3359 234.047 57.3424 234.586 59.918 234.586ZM41.3203 189.574C40.0026 189.574 38.8646 189.125 37.9062 188.227C37.0078 187.268 36.5586 186.16 36.5586 184.902C36.5586 183.585 37.0078 182.477 37.9062 181.578C38.8646 180.62 40.0026 180.141 41.3203 180.141H68.9922C69.4714 180.141 69.7109 179.901 69.7109 179.422V176.727C69.7109 175.469 70.1602 174.391 71.0586 173.492C72.0169 172.534 73.1549 172.055 74.4727 172.055H75.6406C76.9583 172.055 78.0664 172.534 78.9648 173.492C79.8633 174.451 80.3125 175.529 80.3125 176.727V179.422C80.3125 179.901 80.5521 180.141 81.0312 180.141H97.0234C98.3411 180.141 99.4492 180.62 100.348 181.578C101.306 182.477 101.785 183.585 101.785 184.902C101.785 186.16 101.306 187.268 100.348 188.227C99.4492 189.125 98.3411 189.574 97.0234 189.574H81.0312C80.5521 189.574 80.3125 189.814 80.3125 190.293V196.133C80.3125 196.612 80.5521 196.852 81.0312 196.852H94.1484C95.4062 196.852 96.4844 197.301 97.3828 198.199C98.2812 199.098 98.7305 200.206 98.7305 201.523C98.7305 202.781 98.2812 203.889 97.3828 204.848C96.4844 205.746 95.4062 206.195 94.1484 206.195H81.0312C80.5521 206.195 80.3125 206.435 80.3125 206.914V218.953C80.3125 219.372 80.4922 219.762 80.8516 220.121C85.8828 222.996 91.1237 226.77 96.5742 231.441C97.5326 232.28 98.0417 233.388 98.1016 234.766C98.1615 236.083 97.7721 237.221 96.9336 238.18L96.6641 238.449C95.7656 239.348 94.6576 239.827 93.3398 239.887C92.0221 240.007 90.8841 239.617 89.9258 238.719C86.3919 235.664 83.2474 233.148 80.4922 231.172C80.0729 230.872 79.8034 230.932 79.6836 231.352C78.8451 235.844 76.8385 239.078 73.6641 241.055C70.4896 243.031 65.9076 244.02 59.918 244.02C53.9883 244.02 49.3464 242.642 45.9922 239.887C42.638 237.132 40.9609 233.298 40.9609 228.387C40.9609 223.954 42.5182 220.391 45.6328 217.695C48.7474 215 53.5091 213.652 59.918 213.652C63.0924 213.652 66.1471 214.072 69.082 214.91C69.5013 214.97 69.7109 214.79 69.7109 214.371V206.914C69.7109 206.435 69.4714 206.195 68.9922 206.195H44.2852C42.9674 206.195 41.8594 205.746 40.9609 204.848C40.1224 203.949 39.7031 202.871 39.7031 201.613C39.7031 200.296 40.1224 199.187 40.9609 198.289C41.8594 197.331 42.9674 196.852 44.2852 196.852H68.9922C69.4714 196.852 69.7109 196.612 69.7109 196.133V190.383C69.7109 189.844 69.4714 189.574 68.9922 189.574H41.3203Z" fill="#454545"/>
<path d="M225.059 70.7863C226.138 71.505 226.796 72.4933 227.036 73.7511C227.276 75.0089 227.006 76.1469 226.227 77.1652C221.855 82.436 216.794 87.018 211.044 90.9113C209.966 91.63 208.828 91.8097 207.63 91.4503C206.432 91.0311 205.563 90.2524 205.024 89.1144L204.755 88.4855C204.216 87.2277 204.156 85.9399 204.575 84.6222C204.994 83.3045 205.743 82.2863 206.821 81.5675C211.134 78.6925 214.877 75.3983 218.052 71.6847C218.89 70.7264 219.968 70.1574 221.286 69.9777C222.664 69.798 223.891 70.0376 224.97 70.6964L225.059 70.7863ZM203.317 117.146L202.778 114.54C202.059 111.665 202.928 109.18 205.384 107.083C210.355 103.01 214.757 98.1587 218.591 92.5285C219.369 91.4503 220.388 90.7615 221.645 90.4621C222.963 90.1626 224.161 90.3722 225.239 91.091L225.598 91.3605C226.796 92.0193 227.545 92.9777 227.845 94.2355C228.204 95.4933 228.054 96.7212 227.395 97.9191C226.317 99.716 224.85 101.812 222.993 104.208C222.753 104.568 222.634 104.987 222.634 105.466V140.595C222.634 141.853 222.154 142.931 221.196 143.829C220.238 144.728 219.1 145.177 217.782 145.177H216.434C215.117 145.177 213.979 144.728 213.02 143.829C212.122 142.931 211.673 141.853 211.673 140.595V115.169C211.673 115.109 211.583 115.049 211.403 114.989C211.283 114.93 211.193 114.959 211.134 115.079C209.696 116.756 208.618 117.954 207.899 118.673C207.121 119.392 206.222 119.601 205.204 119.302C204.246 118.943 203.617 118.224 203.317 117.146ZM272.766 81.3878H237.817C236.499 81.3878 235.391 80.9087 234.493 79.9503C233.595 78.992 233.145 77.8839 233.145 76.6261C233.145 75.3084 233.595 74.2003 234.493 73.3019C235.391 72.3436 236.499 71.8644 237.817 71.8644H272.766C274.024 71.8644 275.102 72.3436 276.001 73.3019C276.959 74.2003 277.438 75.3084 277.438 76.6261C277.438 77.8839 276.959 78.992 276.001 79.9503C275.102 80.9087 274.024 81.3878 272.766 81.3878ZM276.36 93.3371C277.618 93.3371 278.696 93.8162 279.595 94.7746C280.553 95.673 281.032 96.7811 281.032 98.0988C281.032 99.3566 280.553 100.465 279.595 101.423C278.696 102.381 277.618 102.86 276.36 102.86H269.173C268.634 102.86 268.364 103.07 268.364 103.489V130.622C268.364 133.976 268.244 136.462 268.005 138.079C267.825 139.696 267.226 141.044 266.208 142.122C265.19 143.2 263.902 143.829 262.345 144.009C260.847 144.189 258.451 144.278 255.157 144.278C253.48 144.278 250.695 144.219 246.802 144.099C245.424 144.039 244.286 143.53 243.388 142.571C242.489 141.613 242.01 140.445 241.95 139.068V138.888C241.83 137.63 242.22 136.552 243.118 135.653C244.076 134.755 245.184 134.336 246.442 134.396C249.617 134.575 251.863 134.665 253.18 134.665C254.977 134.665 256.055 134.485 256.415 134.126C256.774 133.767 256.954 132.629 256.954 130.712V103.489C256.954 103.07 256.714 102.86 256.235 102.86H235.571C234.313 102.86 233.205 102.381 232.247 101.423C231.348 100.465 230.899 99.3566 230.899 98.0988C230.899 96.7811 231.378 95.673 232.337 94.7746C233.295 93.8162 234.373 93.3371 235.571 93.3371H276.36Z" fill="#A5D1FF"/>
<path d="M220.459 66.1867C221.538 66.9054 222.196 67.8937 222.436 69.1515C222.676 70.4093 222.406 71.5473 221.627 72.5656C217.255 77.8364 212.194 82.4184 206.444 86.3117C205.366 87.0304 204.228 87.2101 203.03 86.8507C201.832 86.4315 200.963 85.6528 200.424 84.5148L200.155 83.8859C199.616 82.6281 199.556 81.3403 199.975 80.0226C200.394 78.7049 201.143 77.6867 202.221 76.9679C206.534 74.0929 210.277 70.7986 213.452 67.0851C214.29 66.1268 215.368 65.5578 216.686 65.3781C218.064 65.1984 219.291 65.438 220.37 66.0968L220.459 66.1867ZM198.717 112.546L198.178 109.941C197.459 107.066 198.328 104.58 200.784 102.484C205.755 98.4106 210.157 93.5591 213.991 87.9288C214.769 86.8507 215.788 86.1619 217.045 85.8624C218.363 85.563 219.561 85.7726 220.639 86.4913L220.998 86.7609C222.196 87.4197 222.945 88.3781 223.245 89.6359C223.604 90.8937 223.454 92.1216 222.795 93.3195C221.717 95.1163 220.25 97.2127 218.393 99.6085C218.153 99.9679 218.034 100.387 218.034 100.866V135.995C218.034 137.253 217.554 138.331 216.596 139.23C215.638 140.128 214.5 140.577 213.182 140.577H211.834C210.517 140.577 209.379 140.128 208.42 139.23C207.522 138.331 207.073 137.253 207.073 135.995V110.569C207.073 110.51 206.983 110.45 206.803 110.39C206.683 110.33 206.594 110.36 206.534 110.48C205.096 112.157 204.018 113.355 203.299 114.073C202.521 114.792 201.622 115.002 200.604 114.702C199.646 114.343 199.017 113.624 198.717 112.546ZM268.166 76.7882H233.217C231.899 76.7882 230.791 76.3091 229.893 75.3507C228.995 74.3924 228.545 73.2843 228.545 72.0265C228.545 70.7088 228.995 69.6007 229.893 68.7023C230.791 67.744 231.899 67.2648 233.217 67.2648H268.166C269.424 67.2648 270.502 67.744 271.401 68.7023C272.359 69.6007 272.838 70.7088 272.838 72.0265C272.838 73.2843 272.359 74.3924 271.401 75.3507C270.502 76.3091 269.424 76.7882 268.166 76.7882ZM271.76 88.7374C273.018 88.7374 274.096 89.2166 274.995 90.1749C275.953 91.0734 276.432 92.1815 276.432 93.4992C276.432 94.757 275.953 95.865 274.995 96.8234C274.096 97.7817 273.018 98.2609 271.76 98.2609H264.573C264.034 98.2609 263.764 98.4705 263.764 98.8898V126.023C263.764 129.377 263.644 131.862 263.405 133.48C263.225 135.097 262.626 136.444 261.608 137.523C260.59 138.601 259.302 139.23 257.745 139.409C256.247 139.589 253.851 139.679 250.557 139.679C248.88 139.679 246.095 139.619 242.202 139.499C240.824 139.439 239.686 138.93 238.788 137.972C237.889 137.013 237.41 135.846 237.35 134.468V134.288C237.23 133.03 237.62 131.952 238.518 131.054C239.476 130.155 240.584 129.736 241.842 129.796C245.017 129.976 247.263 130.066 248.58 130.066C250.377 130.066 251.455 129.886 251.815 129.527C252.174 129.167 252.354 128.029 252.354 126.112V98.8898C252.354 98.4705 252.114 98.2609 251.635 98.2609H230.971C229.713 98.2609 228.605 97.7817 227.647 96.8234C226.748 95.865 226.299 94.757 226.299 93.4992C226.299 92.1815 226.778 91.0734 227.737 90.1749C228.695 89.2166 229.773 88.7374 230.971 88.7374H271.76Z" fill="#454545"/>
<path d="M119.3 128.313L118.761 127.324C117.144 124.689 117.233 122.024 119.03 119.328C123.463 112.5 126.667 105.642 128.644 98.754H122.714C121.456 98.754 120.378 98.3348 119.48 97.4962C118.641 96.5978 118.222 95.5197 118.222 94.2619C118.222 92.9441 118.671 91.8361 119.569 90.9376C120.468 90.0392 121.516 89.59 122.714 89.59H128.015C128.434 89.59 128.644 89.3504 128.644 88.8712V82.4025C128.644 81.8634 128.404 81.6238 127.925 81.6837C126.128 81.9233 124.78 82.0731 123.882 82.133C122.624 82.2527 121.546 81.9533 120.648 81.2345C119.749 80.4559 119.27 79.4376 119.21 78.1798C119.09 76.9819 119.39 75.9337 120.108 75.0353C120.887 74.1369 121.845 73.6277 122.983 73.508C129.572 72.8491 136.19 71.741 142.839 70.1837C143.917 69.9441 144.965 70.1238 145.983 70.7228C147.002 71.2619 147.72 72.1004 148.14 73.2384C148.559 74.3165 148.499 75.3947 147.96 76.4728C147.421 77.491 146.612 78.1499 145.534 78.4494C143.498 78.9884 141.461 79.4376 139.425 79.797C138.946 79.9168 138.706 80.2462 138.706 80.7853V88.8712C138.706 89.3504 138.946 89.59 139.425 89.59H143.737C144.995 89.59 146.073 90.0392 146.972 90.9376C147.87 91.8361 148.319 92.9441 148.319 94.2619C148.319 95.5197 147.87 96.5978 146.972 97.4962C146.073 98.3348 144.995 98.754 143.737 98.754H140.233C140.114 98.754 139.994 98.8139 139.874 98.9337C139.814 99.0535 139.844 99.1733 139.964 99.2931C141.042 101.33 142.539 104.055 144.456 107.469C146.373 110.883 147.72 113.219 148.499 114.477C149.038 115.555 149.248 116.573 149.128 117.531C149.128 117.651 149.158 117.681 149.218 117.621C149.637 117.022 150.176 116.543 150.835 116.184C155.806 113.728 160.718 110.583 165.569 106.75C165.629 106.69 165.629 106.66 165.569 106.66C165.569 106.66 165.509 106.66 165.39 106.66C162.036 108.098 158.142 109.326 153.71 110.344C152.452 110.583 151.224 110.404 150.026 109.805C148.888 109.146 148.08 108.158 147.601 106.84C147.241 105.762 147.361 104.714 147.96 103.695C148.559 102.677 149.427 102.018 150.565 101.719C156.016 100.641 161.137 98.8439 165.929 96.3283C166.288 96.1486 166.318 95.879 166.019 95.5197L160.448 90.2189C159.849 89.6199 159.49 89.1108 159.37 88.6915C159.25 88.2124 159.011 88.1225 158.651 88.422C157.154 89.3205 156.196 89.8895 155.776 90.129C154.698 90.728 153.53 90.8777 152.273 90.5783C151.075 90.2189 150.086 89.56 149.308 88.6017C148.649 87.6434 148.469 86.6251 148.769 85.547C149.068 84.409 149.697 83.5106 150.655 82.8517C155.986 79.6173 160.838 75.8738 165.21 71.6212C167.366 69.465 169.822 68.9858 172.577 70.1837C174.314 70.9624 175.003 72.2202 174.644 73.9572C174.584 74.3165 174.793 74.4962 175.273 74.4962H187.491C188.569 74.4962 189.468 74.8856 190.187 75.6642C190.905 76.4428 191.265 77.3413 191.265 78.3595C191.265 79.5574 190.875 80.5158 190.097 81.2345C189.737 81.4741 189.618 81.8335 189.737 82.3126C190.157 83.6303 190.037 84.9181 189.378 86.1759C186.802 91.1473 183.119 95.4897 178.327 99.2033C178.267 99.3231 178.237 99.4428 178.237 99.5626C178.297 99.6824 178.387 99.7723 178.507 99.8322H178.687C180.244 100.371 181.023 101.449 181.023 103.067C181.023 103.546 181.232 103.785 181.651 103.785H191.894C193.032 103.785 193.99 104.205 194.769 105.043C195.607 105.882 196.026 106.87 196.026 108.008C196.026 109.206 195.547 110.194 194.589 110.973C194.23 111.272 194.14 111.632 194.319 112.051C194.918 113.548 194.888 114.986 194.23 116.363C190.576 123.731 185.245 129.87 178.237 134.781C171.289 139.693 163.144 143.047 153.8 144.844C152.542 145.083 151.344 144.844 150.206 144.125C149.128 143.466 148.349 142.478 147.87 141.16C147.511 140.082 147.661 139.034 148.319 138.016C148.978 136.998 149.877 136.369 151.015 136.129C158.023 134.632 164.132 132.326 169.343 129.211C169.463 129.151 169.523 129.001 169.523 128.762C169.523 128.522 169.463 128.373 169.343 128.313C169.283 128.253 169.193 128.193 169.073 128.133C169.013 128.013 168.924 127.953 168.804 127.953C166.827 125.917 164.851 123.94 162.874 122.024C162.575 121.724 162.335 121.335 162.155 120.856C161.976 120.496 161.676 120.406 161.257 120.586C159.4 121.784 157.543 122.832 155.687 123.731C154.608 124.27 153.411 124.36 152.093 124C150.835 123.641 149.877 122.922 149.218 121.844C148.679 121.125 148.469 120.376 148.589 119.598C148.589 119.538 148.559 119.508 148.499 119.508C148.439 119.448 148.379 119.448 148.319 119.508C147.96 120.047 147.571 120.436 147.151 120.676C146.253 121.275 145.265 121.455 144.187 121.215C143.108 120.975 142.36 120.376 141.94 119.418C140.683 116.723 139.724 114.716 139.065 113.399C139.006 113.339 138.916 113.309 138.796 113.309C138.736 113.309 138.706 113.339 138.706 113.399V140.621C138.706 141.879 138.227 142.957 137.269 143.856C136.31 144.754 135.172 145.203 133.855 145.203H133.405C132.088 145.203 130.95 144.754 129.991 143.856C129.093 142.957 128.644 141.879 128.644 140.621V120.137C128.584 120.017 128.494 119.957 128.374 119.957C127.296 122.832 125.978 125.617 124.421 128.313C123.882 129.271 123.013 129.75 121.815 129.75C120.677 129.75 119.839 129.271 119.3 128.313ZM172.847 89.8595C173.086 90.0991 173.266 90.3387 173.386 90.5783C173.446 90.6981 173.565 90.7879 173.745 90.8478C173.985 90.8478 174.164 90.7879 174.284 90.6681C176.92 88.3322 179.196 85.6968 181.112 82.7619C181.232 82.6421 181.232 82.5223 181.112 82.4025C181.052 82.2827 180.963 82.2228 180.843 82.2228H169.792C169.373 82.2228 168.894 82.133 168.355 81.9533C167.995 81.7736 167.636 81.8335 167.276 82.133C167.157 82.2527 166.947 82.4025 166.648 82.5822C166.408 82.7619 166.228 82.9116 166.108 83.0314C165.989 83.0913 165.929 83.241 165.929 83.4806C165.989 83.6603 166.108 83.7801 166.288 83.84C166.528 83.9598 166.857 84.1994 167.276 84.5587C167.815 85.0379 168.414 85.6069 169.073 86.2658C169.732 86.8647 170.421 87.5236 171.14 88.2423C171.918 88.9611 172.487 89.5001 172.847 89.8595ZM177.339 123.102C180.453 120.227 183.179 116.753 185.515 112.68C185.575 112.56 185.575 112.44 185.515 112.32C185.455 112.201 185.335 112.141 185.155 112.141H175.003C174.823 112.141 174.524 112.081 174.105 111.961C173.625 111.841 173.206 111.931 172.847 112.231C171.529 113.309 170.511 114.117 169.792 114.656C169.552 114.896 169.582 115.195 169.882 115.555C169.942 115.555 169.972 115.585 169.972 115.645C169.972 115.705 170.002 115.764 170.062 115.824C171.439 117.262 173.416 119.298 175.991 121.934C176.291 122.353 176.5 122.682 176.62 122.922C176.86 123.281 177.099 123.341 177.339 123.102Z" fill="#A5D1FF"/>
<path d="M114.7 123.714L114.161 122.726C112.544 120.09 112.633 117.425 114.43 114.73C118.863 107.902 122.067 101.043 124.044 94.1554H118.114C116.856 94.1554 115.778 93.7361 114.88 92.8976C114.041 91.9992 113.622 90.921 113.622 89.6632C113.622 88.3455 114.071 87.2374 114.969 86.339C115.868 85.4406 116.916 84.9913 118.114 84.9913H123.415C123.834 84.9913 124.044 84.7518 124.044 84.2726V77.8039C124.044 77.2648 123.804 77.0252 123.325 77.0851C121.528 77.3247 120.18 77.4744 119.282 77.5343C118.024 77.6541 116.946 77.3546 116.048 76.6359C115.149 75.8572 114.67 74.839 114.61 73.5812C114.49 72.3833 114.79 71.3351 115.508 70.4367C116.287 69.5382 117.245 69.0291 118.383 68.9093C124.972 68.2505 131.59 67.1424 138.239 65.5851C139.317 65.3455 140.365 65.5252 141.383 66.1242C142.402 66.6632 143.12 67.5018 143.54 68.6398C143.959 69.7179 143.899 70.796 143.36 71.8742C142.821 72.8924 142.012 73.5512 140.934 73.8507C138.898 74.3898 136.861 74.839 134.825 75.1984C134.346 75.3182 134.106 75.6476 134.106 76.1867V84.2726C134.106 84.7518 134.346 84.9913 134.825 84.9913H139.137C140.395 84.9913 141.473 85.4406 142.372 86.339C143.27 87.2374 143.719 88.3455 143.719 89.6632C143.719 90.921 143.27 91.9992 142.372 92.8976C141.473 93.7361 140.395 94.1554 139.137 94.1554H135.633C135.514 94.1554 135.394 94.2153 135.274 94.3351C135.214 94.4549 135.244 94.5747 135.364 94.6945C136.442 96.7309 137.939 99.4562 139.856 102.87C141.773 106.284 143.12 108.62 143.899 109.878C144.438 110.956 144.648 111.974 144.528 112.933C144.528 113.053 144.558 113.082 144.618 113.023C145.037 112.424 145.576 111.944 146.235 111.585C151.206 109.129 156.118 105.985 160.969 102.152C161.029 102.092 161.029 102.062 160.969 102.062C160.969 102.062 160.909 102.062 160.79 102.062C157.436 103.499 153.542 104.727 149.11 105.745C147.852 105.985 146.624 105.805 145.426 105.206C144.288 104.547 143.48 103.559 143.001 102.241C142.641 101.163 142.761 100.115 143.36 99.0968C143.959 98.0786 144.827 97.4197 145.965 97.1203C151.416 96.0421 156.537 94.2453 161.329 91.7296C161.688 91.5499 161.718 91.2804 161.419 90.921L155.848 85.6203C155.249 85.0213 154.89 84.5122 154.77 84.0929C154.65 83.6137 154.411 83.5239 154.051 83.8234C152.554 84.7218 151.596 85.2908 151.176 85.5304C150.098 86.1294 148.93 86.2791 147.673 85.9796C146.475 85.6203 145.486 84.9614 144.708 84.0031C144.049 83.0447 143.869 82.0265 144.169 80.9484C144.468 79.8104 145.097 78.9119 146.055 78.2531C151.386 75.0187 156.238 71.2752 160.61 67.0226C162.766 64.8664 165.222 64.3872 167.977 65.5851C169.714 66.3637 170.403 67.6216 170.044 69.3585C169.984 69.7179 170.193 69.8976 170.673 69.8976H182.891C183.969 69.8976 184.868 70.2869 185.587 71.0656C186.305 71.8442 186.665 72.7427 186.665 73.7609C186.665 74.9588 186.275 75.9171 185.497 76.6359C185.137 76.8755 185.018 77.2348 185.137 77.714C185.557 79.0317 185.437 80.3195 184.778 81.5773C182.202 86.5486 178.519 90.8911 173.727 94.6046C173.667 94.7244 173.637 94.8442 173.637 94.964C173.697 95.0838 173.787 95.1736 173.907 95.2335H174.087C175.644 95.7726 176.423 96.8507 176.423 98.4679C176.423 98.9471 176.632 99.1867 177.051 99.1867H187.294C188.432 99.1867 189.39 99.6059 190.169 100.444C191.007 101.283 191.426 102.271 191.426 103.409C191.426 104.607 190.947 105.596 189.989 106.374C189.63 106.674 189.54 107.033 189.719 107.452C190.318 108.95 190.288 110.387 189.63 111.765C185.976 119.132 180.645 125.271 173.637 130.183C166.689 135.094 158.544 138.448 149.2 140.245C147.942 140.485 146.744 140.245 145.606 139.527C144.528 138.868 143.749 137.879 143.27 136.562C142.911 135.484 143.061 134.435 143.719 133.417C144.378 132.399 145.277 131.77 146.415 131.53C153.423 130.033 159.532 127.727 164.743 124.612C164.863 124.553 164.923 124.403 164.923 124.163C164.923 123.924 164.863 123.774 164.743 123.714C164.683 123.654 164.593 123.594 164.473 123.534C164.413 123.415 164.324 123.355 164.204 123.355C162.227 121.318 160.251 119.342 158.274 117.425C157.975 117.125 157.735 116.736 157.555 116.257C157.376 115.898 157.076 115.808 156.657 115.987C154.8 117.185 152.943 118.234 151.087 119.132C150.008 119.671 148.811 119.761 147.493 119.402C146.235 119.042 145.277 118.323 144.618 117.245C144.079 116.527 143.869 115.778 143.989 114.999C143.989 114.939 143.959 114.909 143.899 114.909C143.839 114.849 143.779 114.849 143.719 114.909C143.36 115.448 142.971 115.838 142.551 116.077C141.653 116.676 140.665 116.856 139.587 116.616C138.508 116.377 137.76 115.778 137.34 114.819C136.083 112.124 135.124 110.118 134.465 108.8C134.406 108.74 134.316 108.71 134.196 108.71C134.136 108.71 134.106 108.74 134.106 108.8V136.023C134.106 137.28 133.627 138.359 132.669 139.257C131.71 140.155 130.572 140.605 129.255 140.605H128.805C127.488 140.605 126.35 140.155 125.391 139.257C124.493 138.359 124.044 137.28 124.044 136.023V115.538C123.984 115.418 123.894 115.359 123.774 115.359C122.696 118.234 121.378 121.019 119.821 123.714C119.282 124.672 118.413 125.152 117.215 125.152C116.077 125.152 115.239 124.672 114.7 123.714ZM168.247 85.2609C168.486 85.5005 168.666 85.74 168.786 85.9796C168.846 86.0994 168.965 86.1893 169.145 86.2492C169.385 86.2492 169.564 86.1893 169.684 86.0695C172.32 83.7335 174.596 81.0981 176.512 78.1632C176.632 78.0434 176.632 77.9236 176.512 77.8039C176.452 77.6841 176.363 77.6242 176.243 77.6242H165.192C164.773 77.6242 164.294 77.5343 163.755 77.3546C163.395 77.1749 163.036 77.2348 162.676 77.5343C162.557 77.6541 162.347 77.8039 162.048 77.9835C161.808 78.1632 161.628 78.313 161.508 78.4328C161.389 78.4927 161.329 78.6424 161.329 78.882C161.389 79.0617 161.508 79.1815 161.688 79.2414C161.928 79.3611 162.257 79.6007 162.676 79.9601C163.215 80.4393 163.814 81.0083 164.473 81.6671C165.132 82.2661 165.821 82.9249 166.54 83.6437C167.318 84.3624 167.887 84.9015 168.247 85.2609ZM172.739 118.503C175.853 115.628 178.579 112.154 180.915 108.081C180.975 107.961 180.975 107.842 180.915 107.722C180.855 107.602 180.735 107.542 180.555 107.542H170.403C170.223 107.542 169.924 107.482 169.505 107.362C169.025 107.243 168.606 107.332 168.247 107.632C166.929 108.71 165.911 109.519 165.192 110.058C164.952 110.297 164.982 110.597 165.282 110.956C165.342 110.956 165.372 110.986 165.372 111.046C165.372 111.106 165.402 111.166 165.462 111.226C166.839 112.663 168.816 114.7 171.391 117.335C171.691 117.754 171.9 118.084 172.02 118.323C172.26 118.683 172.499 118.743 172.739 118.503Z" fill="#454545"/>
<path d="M50.3422 78.1184C59.4528 84.8666 69.2518 98.5497 72.85 105.892C76.4482 98.5497 86.2472 84.8666 95.3578 78.1184C101.932 73.2492 112.583 69.4817 112.583 81.4702C112.583 83.8645 111.192 101.583 110.376 104.46C107.539 114.461 97.2028 117.012 88.0083 115.468C104.08 118.167 108.168 127.106 99.3386 136.045C82.5696 153.022 75.2369 131.785 73.358 126.344C73.0135 125.346 72.8524 124.88 72.85 125.276C72.8476 124.88 72.6864 125.346 72.342 126.344C70.4631 131.785 63.1304 153.022 46.3614 136.045C37.5318 127.106 41.6201 118.167 57.6917 115.468C48.4971 117.012 38.161 114.461 35.3244 104.46C34.5083 101.583 33.117 83.8645 33.117 81.4702C33.117 69.4817 43.7685 73.2492 50.3422 78.1184Z" fill="#A5D1FF"/>
<path d="M45.7422 73.5188C54.8528 80.267 64.6518 93.9501 68.25 101.292C71.8482 93.9501 81.6472 80.267 90.7578 73.5188C97.3315 68.6496 107.983 64.8821 107.983 76.8705C107.983 79.2649 106.592 96.9838 105.776 99.8607C102.939 109.862 92.6028 112.412 83.4083 110.869C99.4799 113.567 103.568 122.506 94.7386 131.445C77.9696 148.422 70.6369 127.186 68.758 121.744C68.4135 120.747 68.2524 120.28 68.25 120.677C68.2476 120.28 68.0864 120.747 67.742 121.744C65.8631 127.186 58.5304 148.422 41.7614 131.445C32.9318 122.506 37.0201 113.567 53.0917 110.869C43.8971 112.412 33.561 109.862 30.7244 99.8607C29.9083 96.9838 28.517 79.2649 28.517 76.8705C28.517 64.8821 39.1685 68.6496 45.7422 73.5188Z" fill="#1185FE"/>
</svg>
