<svg width="310" height="310" viewBox="0 0 310 310" fill="none" xmlns="http://www.w3.org/2000/svg">
<rect width="310" height="310" fill="white"/>
<rect x="25" y="25" width="260" height="260" fill="white"/>
<path d="M218.688 263.828C217.542 263.828 216.552 263.411 215.719 262.578C214.938 261.797 214.547 260.859 214.547 259.766V207.812C214.547 206.667 214.938 205.703 215.719 204.922C216.552 204.089 217.542 203.672 218.688 203.672H220.562C221.708 203.672 222.698 204.089 223.531 204.922C224.365 205.703 224.781 206.667 224.781 207.812V223.516C224.781 223.932 224.938 224.167 225.25 224.219C236.812 227.031 248.583 230.573 260.562 234.844C261.656 235.208 262.438 235.911 262.906 236.953C263.427 237.943 263.479 238.984 263.062 240.078L262.594 241.484C262.229 242.578 261.552 243.385 260.562 243.906C259.573 244.375 258.557 244.427 257.516 244.062C246.005 240.052 235.25 236.797 225.25 234.297C225.146 234.245 225.042 234.271 224.938 234.375C224.833 234.479 224.781 234.609 224.781 234.766V259.766C224.781 260.911 224.365 261.875 223.531 262.656C222.698 263.438 221.708 263.828 220.562 263.828H218.688Z" fill="#A5D1FF"/>
<path d="M130.172 234.781L130.016 234C129.807 232.906 130.042 231.891 130.719 230.953C131.396 230.016 132.281 229.443 133.375 229.234C142.229 227.568 150.823 224.807 159.156 220.953C167.49 217.047 174.703 212.359 180.797 206.891C181.578 206.109 182.542 205.745 183.688 205.797C184.833 205.797 185.745 206.24 186.422 207.125L187.047 207.75C187.776 208.583 188.089 209.599 187.984 210.797C187.932 211.995 187.49 212.958 186.656 213.688C181.552 218.219 175.693 222.307 169.078 225.953C168.766 226.109 168.609 226.396 168.609 226.812C168.609 226.865 168.609 226.917 168.609 226.969C168.662 227.021 168.688 227.099 168.688 227.203V258.531C168.688 259.625 168.271 260.562 167.438 261.344C166.604 262.177 165.641 262.594 164.547 262.594H162.359C161.214 262.594 160.224 262.177 159.391 261.344C158.609 260.562 158.219 259.625 158.219 258.531V231.734C158.219 231.422 158.037 231.318 157.672 231.422C150.432 234.391 142.854 236.63 134.938 238.141C133.792 238.349 132.75 238.141 131.813 237.516C130.875 236.839 130.328 235.927 130.172 234.781Z" fill="#A5D1FF"/>
<path d="M56.3438 224.062C55.1979 224.062 54.2083 223.672 53.375 222.891C52.5938 222.057 52.2031 221.094 52.2031 220V219.453C52.2031 218.307 52.5938 217.344 53.375 216.562C54.2083 215.781 55.1979 215.391 56.3438 215.391H63.4531C63.8698 215.391 64.0781 215.156 64.0781 214.688V207.109C64.0781 205.964 64.4688 205 65.25 204.219C66.0833 203.385 67.0729 202.969 68.2188 202.969H69.3906C70.5365 202.969 71.526 203.385 72.3594 204.219C73.1927 205 73.6094 205.964 73.6094 207.109V214.688C73.6094 215.156 73.7917 215.391 74.1562 215.391H93.2969C93.7135 215.391 93.9219 215.156 93.9219 214.688V207.109C93.9219 205.964 94.3125 205 95.0938 204.219C95.9271 203.385 96.9167 202.969 98.0625 202.969H99.7812C100.927 202.969 101.891 203.385 102.672 204.219C103.505 205 103.922 205.964 103.922 207.109V214.688C103.922 215.156 104.13 215.391 104.547 215.391H111.656C112.802 215.391 113.766 215.781 114.547 216.562C115.38 217.344 115.797 218.307 115.797 219.453V220C115.797 221.146 115.38 222.109 114.547 222.891C113.766 223.672 112.802 224.062 111.656 224.062H104.547C104.13 224.062 103.922 224.271 103.922 224.688V228.203C103.922 239.245 101.5 247.448 96.6562 252.812C91.8646 258.125 83.7656 261.51 72.3594 262.969C71.1615 263.125 70.0938 262.839 69.1562 262.109C68.2188 261.432 67.6458 260.521 67.4375 259.375L67.2031 258.75C66.9948 257.656 67.2031 256.667 67.8281 255.781C68.5052 254.844 69.4167 254.297 70.5625 254.141C79.625 252.943 85.7708 250.495 89 246.797C92.2812 243.099 93.9219 236.901 93.9219 228.203V224.688C93.9219 224.271 93.7135 224.062 93.2969 224.062H74.1562C73.7917 224.062 73.6094 224.271 73.6094 224.688V234.766C73.6094 235.911 73.1927 236.901 72.3594 237.734C71.526 238.516 70.5365 238.906 69.3906 238.906H68.2188C67.0729 238.906 66.0833 238.49 65.25 237.656C64.4688 236.823 64.0781 235.859 64.0781 234.766V224.688C64.0781 224.271 63.8698 224.062 63.4531 224.062H56.3438Z" fill="#A5D1FF"/>
<path d="M218.141 154.287C214.495 158.193 212.672 162.933 212.672 168.506C212.672 171.787 213.219 174.313 214.312 176.084C215.406 177.802 216.734 178.662 218.297 178.662C220.276 178.662 222.542 177.308 225.094 174.599C225.354 174.339 225.406 174 225.25 173.584C225.094 173.427 224.99 173.245 224.938 173.037C222.594 166.526 220.51 160.328 218.688 154.443C218.635 154.026 218.453 153.974 218.141 154.287ZM237.203 146.943C233.401 146.943 229.964 147.516 226.891 148.662C226.526 148.818 226.396 149.104 226.5 149.521C227.854 154.157 229.495 159.391 231.422 165.224C231.526 165.485 231.708 165.459 231.969 165.146C234.833 160.146 237.464 154.313 239.859 147.646C239.911 147.49 239.885 147.36 239.781 147.256C239.729 147.099 239.625 147.021 239.469 147.021C239 146.969 238.245 146.943 237.203 146.943ZM217.359 187.646C213.505 187.646 210.302 185.979 207.75 182.646C205.25 179.261 204 174.547 204 168.506C204 163.714 204.99 159.261 206.969 155.146C208.948 151.032 211.734 147.568 215.328 144.756C215.641 144.495 215.771 144.209 215.719 143.896C214.781 140.302 214.104 137.568 213.688 135.693C213.427 134.547 213.583 133.506 214.156 132.568C214.781 131.631 215.667 131.058 216.812 130.849L217.438 130.771C218.583 130.563 219.625 130.745 220.562 131.318C221.5 131.891 222.125 132.75 222.438 133.896C222.542 134.521 222.75 135.485 223.062 136.787C223.427 138.037 223.661 138.922 223.766 139.443C223.87 139.756 224.104 139.886 224.469 139.834C228.427 138.427 232.672 137.724 237.203 137.724C239.13 137.724 240.849 137.802 242.359 137.959C242.828 138.063 243.089 137.907 243.141 137.49C243.557 136.188 244.156 134.131 244.938 131.318C245.25 130.172 245.901 129.287 246.891 128.662C247.88 128.037 248.948 127.854 250.094 128.115L250.641 128.271C251.786 128.479 252.646 129.078 253.219 130.068C253.844 131.006 254 131.995 253.688 133.037C253.01 135.797 252.385 138.063 251.812 139.834C251.76 140.198 251.891 140.459 252.203 140.615C256.995 142.698 260.745 145.771 263.453 149.834C266.214 153.844 267.594 158.453 267.594 163.662C267.594 170.693 265.901 176.422 262.516 180.849C259.182 185.276 254.365 188.271 248.062 189.834C246.917 190.094 245.849 189.912 244.859 189.287C243.922 188.714 243.297 187.828 242.984 186.631L242.828 186.084C242.516 185.042 242.672 184.052 243.297 183.115C243.922 182.177 244.755 181.578 245.797 181.318C254.13 178.922 258.297 173.037 258.297 163.662C258.297 160.537 257.516 157.75 255.953 155.302C254.391 152.854 252.177 150.927 249.312 149.521C249 149.365 248.766 149.469 248.609 149.834C244.078 162.386 239.026 171.839 233.453 178.193C227.932 184.495 222.568 187.646 217.359 187.646Z" fill="#A5D1FF"/>
<path d="M160.188 189.382C151.229 189.382 144.458 187.898 139.875 184.929C135.292 181.908 133 177.507 133 171.726C133 165.424 136.776 159.773 144.328 154.773C144.589 154.564 144.693 154.252 144.641 153.835V153.679C142.818 145.866 141.438 139.356 140.5 134.148C140.344 133.054 140.578 132.038 141.203 131.101C141.828 130.111 142.714 129.512 143.859 129.304L145.734 129.069C146.88 128.861 147.896 129.122 148.781 129.851C149.667 130.528 150.24 131.413 150.5 132.507C151.594 138.236 152.74 143.731 153.938 148.991C154.042 149.46 154.302 149.59 154.719 149.382C161.281 146.622 169.172 144.122 178.391 141.882C179.536 141.622 180.604 141.804 181.594 142.429C182.583 143.002 183.156 143.861 183.312 145.007L183.469 145.632C183.729 146.778 183.521 147.819 182.844 148.757C182.219 149.694 181.359 150.293 180.266 150.554C167.974 153.523 158.729 156.804 152.531 160.398C146.333 163.991 143.234 167.585 143.234 171.179C143.234 177.481 148.885 180.632 160.188 180.632C166.594 180.632 173.078 180.215 179.641 179.382C180.786 179.226 181.776 179.486 182.609 180.163C183.495 180.84 184.016 181.752 184.172 182.898L184.25 183.366C184.406 184.512 184.12 185.554 183.391 186.491C182.714 187.429 181.828 187.976 180.734 188.132C174.536 188.965 167.688 189.382 160.188 189.382Z" fill="#A5D1FF"/>
<path d="M76.875 182.172C80.1042 182.172 82.3177 181.625 83.5156 180.531C84.7656 179.438 85.3906 177.38 85.3906 174.359C85.3906 173.943 85.2083 173.682 84.8438 173.578C82.2396 172.536 79.9219 172.016 77.8906 172.016C75.026 172.016 72.9688 172.406 71.7188 173.188C70.4688 173.969 69.8438 175.167 69.8438 176.781C69.8438 178.448 70.4427 179.776 71.6406 180.766C72.8906 181.703 74.6354 182.172 76.875 182.172ZM60.7031 143.031C59.5573 143.031 58.5677 142.641 57.7344 141.859C56.9531 141.026 56.5625 140.062 56.5625 138.969C56.5625 137.823 56.9531 136.859 57.7344 136.078C58.5677 135.245 59.5573 134.828 60.7031 134.828H84.7656C85.1823 134.828 85.3906 134.62 85.3906 134.203V131.859C85.3906 130.766 85.7812 129.828 86.5625 129.047C87.3958 128.214 88.3854 127.797 89.5312 127.797H90.5469C91.6927 127.797 92.6562 128.214 93.4375 129.047C94.2188 129.88 94.6094 130.818 94.6094 131.859V134.203C94.6094 134.62 94.8177 134.828 95.2344 134.828H109.141C110.286 134.828 111.25 135.245 112.031 136.078C112.865 136.859 113.281 137.823 113.281 138.969C113.281 140.062 112.865 141.026 112.031 141.859C111.25 142.641 110.286 143.031 109.141 143.031H95.2344C94.8177 143.031 94.6094 143.24 94.6094 143.656V148.734C94.6094 149.151 94.8177 149.359 95.2344 149.359H106.641C107.734 149.359 108.672 149.75 109.453 150.531C110.234 151.312 110.625 152.276 110.625 153.422C110.625 154.516 110.234 155.479 109.453 156.312C108.672 157.094 107.734 157.484 106.641 157.484H95.2344C94.8177 157.484 94.6094 157.693 94.6094 158.109V168.578C94.6094 168.943 94.7656 169.281 95.0781 169.594C99.4531 172.094 104.01 175.375 108.75 179.438C109.583 180.167 110.026 181.13 110.078 182.328C110.13 183.474 109.792 184.464 109.062 185.297L108.828 185.531C108.047 186.312 107.083 186.729 105.938 186.781C104.792 186.885 103.802 186.547 102.969 185.766C99.8958 183.109 97.1615 180.922 94.7656 179.203C94.401 178.943 94.1667 178.995 94.0625 179.359C93.3333 183.266 91.5885 186.078 88.8281 187.797C86.0677 189.516 82.0833 190.375 76.875 190.375C71.7188 190.375 67.6823 189.177 64.7656 186.781C61.849 184.385 60.3906 181.052 60.3906 176.781C60.3906 172.927 61.7448 169.828 64.4531 167.484C67.1615 165.141 71.3021 163.969 76.875 163.969C79.6354 163.969 82.2917 164.333 84.8438 165.062C85.2083 165.115 85.3906 164.958 85.3906 164.594V158.109C85.3906 157.693 85.1823 157.484 84.7656 157.484H63.2812C62.1354 157.484 61.1719 157.094 60.3906 156.312C59.6615 155.531 59.2969 154.594 59.2969 153.5C59.2969 152.354 59.6615 151.391 60.3906 150.609C61.1719 149.776 62.1354 149.359 63.2812 149.359H84.7656C85.1823 149.359 85.3906 149.151 85.3906 148.734V143.734C85.3906 143.266 85.1823 143.031 84.7656 143.031H60.7031Z" fill="#A5D1FF"/>
<path d="M223.391 53.0312C224.328 53.6562 224.901 54.5156 225.109 55.6093C225.318 56.7031 225.083 57.6926 224.406 58.5781C220.604 63.1614 216.203 67.1458 211.203 70.5312C210.266 71.1562 209.276 71.3124 208.234 70.9999C207.193 70.6353 206.438 69.9583 205.969 68.9687L205.734 68.4218C205.266 67.3281 205.214 66.2083 205.578 65.0624C205.943 63.9166 206.594 63.0312 207.531 62.4062C211.281 59.9062 214.537 57.0416 217.297 53.8124C218.026 52.9791 218.964 52.4843 220.109 52.3281C221.307 52.1718 222.375 52.3801 223.313 52.9531L223.391 53.0312ZM204.484 93.3437L204.016 91.0781C203.391 88.5781 204.146 86.4166 206.281 84.5937C210.604 81.052 214.432 76.8333 217.766 71.9374C218.443 70.9999 219.328 70.401 220.422 70.1406C221.568 69.8801 222.609 70.0624 223.547 70.6874L223.859 70.9218C224.901 71.4947 225.552 72.3281 225.813 73.4218C226.125 74.5156 225.995 75.5833 225.422 76.6249C224.484 78.1874 223.208 80.0103 221.594 82.0937C221.386 82.4062 221.281 82.7708 221.281 83.1874V113.734C221.281 114.828 220.865 115.766 220.031 116.547C219.198 117.328 218.208 117.719 217.063 117.719H215.891C214.745 117.719 213.755 117.328 212.922 116.547C212.141 115.766 211.75 114.828 211.75 113.734V91.6249C211.75 91.5728 211.672 91.5208 211.516 91.4687C211.412 91.4166 211.333 91.4426 211.281 91.5468C210.031 93.0051 209.094 94.0468 208.469 94.6718C207.792 95.2968 207.011 95.4791 206.125 95.2187C205.292 94.9062 204.745 94.2812 204.484 93.3437ZM264.875 62.2499H234.484C233.339 62.2499 232.375 61.8333 231.594 60.9999C230.813 60.1666 230.422 59.2031 230.422 58.1093C230.422 56.9635 230.813 55.9999 231.594 55.2187C232.375 54.3853 233.339 53.9687 234.484 53.9687H264.875C265.969 53.9687 266.906 54.3853 267.688 55.2187C268.521 55.9999 268.938 56.9635 268.938 58.1093C268.938 59.2031 268.521 60.1666 267.688 60.9999C266.906 61.8333 265.969 62.2499 264.875 62.2499ZM268 72.6406C269.094 72.6406 270.031 73.0572 270.813 73.8906C271.646 74.6718 272.063 75.6353 272.063 76.7812C272.063 77.8749 271.646 78.8385 270.813 79.6718C270.031 80.5051 269.094 80.9218 268 80.9218H261.75C261.281 80.9218 261.047 81.1041 261.047 81.4687V105.062C261.047 107.979 260.943 110.141 260.734 111.547C260.578 112.953 260.057 114.125 259.172 115.062C258.287 116 257.167 116.547 255.813 116.703C254.511 116.859 252.427 116.937 249.563 116.937C248.104 116.937 245.682 116.885 242.297 116.781C241.099 116.729 240.109 116.286 239.328 115.453C238.547 114.62 238.13 113.604 238.078 112.406V112.25C237.974 111.156 238.313 110.219 239.094 109.437C239.927 108.656 240.891 108.292 241.984 108.344C244.745 108.5 246.698 108.578 247.844 108.578C249.406 108.578 250.344 108.422 250.656 108.109C250.969 107.797 251.125 106.807 251.125 105.141V81.4687C251.125 81.1041 250.917 80.9218 250.5 80.9218H232.531C231.438 80.9218 230.474 80.5051 229.641 79.6718C228.859 78.8385 228.469 77.8749 228.469 76.7812C228.469 75.6353 228.886 74.6718 229.719 73.8906C230.552 73.0572 231.49 72.6406 232.531 72.6406H268Z" fill="#A5D1FF"/>
<path d="M128.344 103.031L127.875 102.172C126.469 99.8801 126.547 97.5624 128.109 95.2187C131.963 89.2812 134.75 83.3176 136.469 77.3281H131.312C130.219 77.3281 129.281 76.9635 128.5 76.2343C127.771 75.4531 127.406 74.5156 127.406 73.4218C127.406 72.276 127.797 71.3124 128.578 70.5312C129.359 69.7499 130.271 69.3593 131.312 69.3593H135.922C136.286 69.3593 136.469 69.151 136.469 68.7343V63.1093C136.469 62.6406 136.26 62.4322 135.844 62.4843C134.281 62.6926 133.109 62.8228 132.328 62.8749C131.234 62.9791 130.297 62.7187 129.516 62.0937C128.734 61.4166 128.318 60.5312 128.266 59.4374C128.161 58.3958 128.422 57.4843 129.047 56.7031C129.724 55.9218 130.557 55.4791 131.547 55.3749C137.276 54.802 143.031 53.8385 148.812 52.4843C149.75 52.276 150.661 52.4322 151.547 52.9531C152.432 53.4218 153.057 54.151 153.422 55.1406C153.786 56.0781 153.734 57.0156 153.266 57.9531C152.797 58.8385 152.094 59.4114 151.156 59.6718C149.385 60.1406 147.614 60.5312 145.844 60.8437C145.427 60.9478 145.219 61.2343 145.219 61.7031V68.7343C145.219 69.151 145.427 69.3593 145.844 69.3593H149.594C150.687 69.3593 151.625 69.7499 152.406 70.5312C153.187 71.3124 153.578 72.276 153.578 73.4218C153.578 74.5156 153.187 75.4531 152.406 76.2343C151.625 76.9635 150.687 77.3281 149.594 77.3281H146.547C146.443 77.3281 146.338 77.3801 146.234 77.4843C146.182 77.5885 146.208 77.6926 146.312 77.7968C147.25 79.5676 148.552 81.9374 150.219 84.9062C151.885 87.8749 153.057 89.9062 153.734 90.9999C154.203 91.9374 154.385 92.8228 154.281 93.6562C154.281 93.7603 154.307 93.7864 154.359 93.7343C154.724 93.2135 155.193 92.7968 155.766 92.4843C160.088 90.3489 164.359 87.6145 168.578 84.2812C168.63 84.2291 168.63 84.2031 168.578 84.2031C168.578 84.2031 168.526 84.2031 168.422 84.2031C165.505 85.4531 162.12 86.5208 158.266 87.4062C157.172 87.6145 156.104 87.4583 155.062 86.9374C154.073 86.3645 153.37 85.5051 152.953 84.3593C152.641 83.4218 152.745 82.5103 153.266 81.6249C153.786 80.7395 154.542 80.1666 155.531 79.9062C160.271 78.9687 164.724 77.4062 168.891 75.2187C169.203 75.0624 169.229 74.8281 168.969 74.5156L164.125 69.9062C163.604 69.3853 163.292 68.9426 163.187 68.5781C163.083 68.1614 162.875 68.0833 162.562 68.3437C161.26 69.1249 160.427 69.6197 160.062 69.8281C159.125 70.3489 158.109 70.4791 157.016 70.2187C155.974 69.9062 155.114 69.3333 154.437 68.4999C153.864 67.6666 153.708 66.7812 153.969 65.8437C154.229 64.8541 154.776 64.0728 155.609 63.4999C160.245 60.6874 164.463 57.4322 168.266 53.7343C170.141 51.8593 172.276 51.4426 174.672 52.4843C176.182 53.1614 176.781 54.2551 176.469 55.7656C176.417 56.0781 176.599 56.2343 177.016 56.2343H187.641C188.578 56.2343 189.359 56.5728 189.984 57.2499C190.609 57.927 190.922 58.7083 190.922 59.5937C190.922 60.6353 190.583 61.4687 189.906 62.0937C189.594 62.302 189.489 62.6145 189.594 63.0312C189.958 64.177 189.854 65.2968 189.281 66.3906C187.042 70.7135 183.838 74.4895 179.672 77.7187C179.62 77.8228 179.594 77.927 179.594 78.0312C179.646 78.1353 179.724 78.2135 179.828 78.2656H179.984C181.338 78.7343 182.016 79.6718 182.016 81.0781C182.016 81.4947 182.198 81.7031 182.562 81.7031H191.469C192.458 81.7031 193.292 82.0676 193.969 82.7968C194.698 83.526 195.062 84.3853 195.062 85.3749C195.062 86.4166 194.646 87.276 193.812 87.9531C193.5 88.2135 193.422 88.526 193.578 88.8906C194.099 90.1926 194.073 91.4426 193.5 92.6406C190.323 99.0468 185.687 104.385 179.594 108.656C173.552 112.927 166.469 115.844 158.344 117.406C157.25 117.615 156.208 117.406 155.219 116.781C154.281 116.208 153.604 115.349 153.187 114.203C152.875 113.266 153.005 112.354 153.578 111.469C154.151 110.583 154.932 110.036 155.922 109.828C162.016 108.526 167.328 106.521 171.859 103.812C171.963 103.76 172.016 103.63 172.016 103.422C172.016 103.213 171.963 103.083 171.859 103.031C171.807 102.979 171.729 102.927 171.625 102.875C171.573 102.771 171.495 102.719 171.391 102.719C169.672 100.948 167.953 99.2291 166.234 97.5624C165.974 97.302 165.766 96.9635 165.609 96.5468C165.453 96.2343 165.193 96.1562 164.828 96.3124C163.213 97.3541 161.599 98.2656 159.984 99.0468C159.047 99.5156 158.005 99.5937 156.859 99.2812C155.766 98.9687 154.932 98.3437 154.359 97.4062C153.891 96.7812 153.708 96.1301 153.812 95.4531C153.812 95.401 153.786 95.3749 153.734 95.3749C153.682 95.3228 153.63 95.3228 153.578 95.3749C153.266 95.8437 152.927 96.1822 152.562 96.3906C151.781 96.9114 150.922 97.0676 149.984 96.8593C149.047 96.651 148.396 96.1301 148.031 95.2968C146.937 92.9531 146.104 91.2083 145.531 90.0624C145.479 90.0103 145.401 89.9843 145.297 89.9843C145.245 89.9843 145.219 90.0103 145.219 90.0624V113.734C145.219 114.828 144.802 115.766 143.969 116.547C143.135 117.328 142.146 117.719 141 117.719H140.609C139.463 117.719 138.474 117.328 137.641 116.547C136.859 115.766 136.469 114.828 136.469 113.734V95.9218C136.417 95.8176 136.338 95.7656 136.234 95.7656C135.297 98.2656 134.151 100.687 132.797 103.031C132.328 103.865 131.573 104.281 130.531 104.281C129.542 104.281 128.812 103.865 128.344 103.031ZM174.906 69.5937C175.114 69.802 175.271 70.0103 175.375 70.2187C175.427 70.3228 175.531 70.401 175.687 70.4531C175.896 70.4531 176.052 70.401 176.156 70.2968C178.448 68.2656 180.427 65.9739 182.094 63.4218C182.198 63.3176 182.198 63.2135 182.094 63.1093C182.042 63.0051 181.963 62.9531 181.859 62.9531H172.25C171.885 62.9531 171.469 62.8749 171 62.7187C170.687 62.5624 170.375 62.6145 170.062 62.8749C169.958 62.9791 169.776 63.1093 169.516 63.2656C169.307 63.4218 169.151 63.552 169.047 63.6562C168.943 63.7083 168.891 63.8385 168.891 64.0468C168.943 64.2031 169.047 64.3072 169.203 64.3593C169.411 64.4635 169.698 64.6718 170.062 64.9843C170.531 65.401 171.052 65.8958 171.625 66.4687C172.198 66.9895 172.797 67.5624 173.422 68.1874C174.099 68.8124 174.594 69.2812 174.906 69.5937ZM178.812 98.4999C181.521 95.9999 183.891 92.9791 185.922 89.4374C185.974 89.3333 185.974 89.2291 185.922 89.1249C185.87 89.0208 185.766 88.9687 185.609 88.9687H176.781C176.625 88.9687 176.364 88.9166 176 88.8124C175.583 88.7083 175.219 88.7864 174.906 89.0468C173.76 89.9843 172.875 90.6874 172.25 91.1562C172.042 91.3645 172.068 91.6249 172.328 91.9374C172.38 91.9374 172.406 91.9635 172.406 92.0156C172.406 92.0676 172.432 92.1197 172.484 92.1718C173.682 93.4218 175.401 95.1926 177.641 97.4843C177.901 97.8489 178.083 98.1353 178.187 98.3437C178.396 98.6562 178.604 98.7083 178.812 98.4999Z" fill="#A5D1FF"/>
<path d="M64.428 59.0162C72.3503 64.8842 80.8711 76.7826 84 83.1671C87.1289 76.7826 95.6497 64.8842 103.572 59.0162C109.288 54.7821 118.55 51.506 118.55 61.9308C118.55 64.0128 117.341 79.4206 116.631 81.9222C114.164 90.6187 105.176 92.8368 97.1811 91.4943C111.156 93.841 114.711 101.614 107.034 109.387C92.4518 124.15 86.0756 105.683 84.4417 100.951C84.1422 100.084 84.0021 99.6781 84 100.023C83.9979 99.6781 83.8578 100.084 83.5583 100.951C81.9244 105.683 75.5482 124.15 60.9664 109.387C53.2885 101.614 56.8436 93.841 70.8189 91.4943C62.8236 92.8368 53.8356 90.6187 51.369 81.9222C50.6594 79.4206 49.4495 64.0128 49.4495 61.9308C49.4495 51.506 58.7117 54.7821 64.428 59.0162Z" fill="#A5D1FF"/>
<path d="M214.688 259.828C213.542 259.828 212.552 259.411 211.719 258.578C210.938 257.797 210.547 256.859 210.547 255.766V203.812C210.547 202.667 210.938 201.703 211.719 200.922C212.552 200.089 213.542 199.672 214.688 199.672H216.562C217.708 199.672 218.698 200.089 219.531 200.922C220.365 201.703 220.781 202.667 220.781 203.812V219.516C220.781 219.932 220.938 220.167 221.25 220.219C232.812 223.031 244.583 226.573 256.562 230.844C257.656 231.208 258.438 231.911 258.906 232.953C259.427 233.943 259.479 234.984 259.062 236.078L258.594 237.484C258.229 238.578 257.552 239.385 256.562 239.906C255.573 240.375 254.557 240.427 253.516 240.062C242.005 236.052 231.25 232.797 221.25 230.297C221.146 230.245 221.042 230.271 220.938 230.375C220.833 230.479 220.781 230.609 220.781 230.766V255.766C220.781 256.911 220.365 257.875 219.531 258.656C218.698 259.438 217.708 259.828 216.562 259.828H214.688Z" fill="#454545"/>
<path d="M126.172 230.781L126.016 230C125.807 228.906 126.042 227.891 126.719 226.953C127.396 226.016 128.281 225.443 129.375 225.234C138.229 223.568 146.823 220.807 155.156 216.953C163.49 213.047 170.703 208.359 176.797 202.891C177.578 202.109 178.542 201.745 179.688 201.797C180.833 201.797 181.745 202.24 182.422 203.125L183.047 203.75C183.776 204.583 184.089 205.599 183.984 206.797C183.932 207.995 183.49 208.958 182.656 209.688C177.552 214.219 171.693 218.307 165.078 221.953C164.766 222.109 164.609 222.396 164.609 222.812C164.609 222.865 164.609 222.917 164.609 222.969C164.662 223.021 164.688 223.099 164.688 223.203V254.531C164.688 255.625 164.271 256.562 163.438 257.344C162.604 258.177 161.641 258.594 160.547 258.594H158.359C157.214 258.594 156.224 258.177 155.391 257.344C154.609 256.562 154.219 255.625 154.219 254.531V227.734C154.219 227.422 154.037 227.318 153.672 227.422C146.432 230.391 138.854 232.63 130.938 234.141C129.792 234.349 128.75 234.141 127.813 233.516C126.875 232.839 126.328 231.927 126.172 230.781Z" fill="#454545"/>
<path d="M52.3438 220.062C51.1979 220.062 50.2083 219.672 49.375 218.891C48.5938 218.057 48.2031 217.094 48.2031 216V215.453C48.2031 214.307 48.5938 213.344 49.375 212.562C50.2083 211.781 51.1979 211.391 52.3438 211.391H59.4531C59.8698 211.391 60.0781 211.156 60.0781 210.688V203.109C60.0781 201.964 60.4688 201 61.25 200.219C62.0833 199.385 63.0729 198.969 64.2188 198.969H65.3906C66.5365 198.969 67.526 199.385 68.3594 200.219C69.1927 201 69.6094 201.964 69.6094 203.109V210.688C69.6094 211.156 69.7917 211.391 70.1562 211.391H89.2969C89.7135 211.391 89.9219 211.156 89.9219 210.688V203.109C89.9219 201.964 90.3125 201 91.0938 200.219C91.9271 199.385 92.9167 198.969 94.0625 198.969H95.7812C96.9271 198.969 97.8906 199.385 98.6719 200.219C99.5052 201 99.9219 201.964 99.9219 203.109V210.688C99.9219 211.156 100.13 211.391 100.547 211.391H107.656C108.802 211.391 109.766 211.781 110.547 212.562C111.38 213.344 111.797 214.307 111.797 215.453V216C111.797 217.146 111.38 218.109 110.547 218.891C109.766 219.672 108.802 220.062 107.656 220.062H100.547C100.13 220.062 99.9219 220.271 99.9219 220.688V224.203C99.9219 235.245 97.5 243.448 92.6562 248.812C87.8646 254.125 79.7656 257.51 68.3594 258.969C67.1615 259.125 66.0938 258.839 65.1562 258.109C64.2188 257.432 63.6458 256.521 63.4375 255.375L63.2031 254.75C62.9948 253.656 63.2031 252.667 63.8281 251.781C64.5052 250.844 65.4167 250.297 66.5625 250.141C75.625 248.943 81.7708 246.495 85 242.797C88.2812 239.099 89.9219 232.901 89.9219 224.203V220.688C89.9219 220.271 89.7135 220.062 89.2969 220.062H70.1562C69.7917 220.062 69.6094 220.271 69.6094 220.688V230.766C69.6094 231.911 69.1927 232.901 68.3594 233.734C67.526 234.516 66.5365 234.906 65.3906 234.906H64.2188C63.0729 234.906 62.0833 234.49 61.25 233.656C60.4688 232.823 60.0781 231.859 60.0781 230.766V220.688C60.0781 220.271 59.8698 220.062 59.4531 220.062H52.3438Z" fill="#454545"/>
<path d="M214.141 150.287C210.495 154.193 208.672 158.933 208.672 164.506C208.672 167.787 209.219 170.313 210.312 172.084C211.406 173.802 212.734 174.662 214.297 174.662C216.276 174.662 218.542 173.308 221.094 170.599C221.354 170.339 221.406 170 221.25 169.584C221.094 169.427 220.99 169.245 220.938 169.037C218.594 162.526 216.51 156.328 214.688 150.443C214.635 150.026 214.453 149.974 214.141 150.287ZM233.203 142.943C229.401 142.943 225.964 143.516 222.891 144.662C222.526 144.818 222.396 145.104 222.5 145.521C223.854 150.157 225.495 155.391 227.422 161.224C227.526 161.485 227.708 161.459 227.969 161.146C230.833 156.146 233.464 150.313 235.859 143.646C235.911 143.49 235.885 143.36 235.781 143.256C235.729 143.099 235.625 143.021 235.469 143.021C235 142.969 234.245 142.943 233.203 142.943ZM213.359 183.646C209.505 183.646 206.302 181.979 203.75 178.646C201.25 175.261 200 170.547 200 164.506C200 159.714 200.99 155.261 202.969 151.146C204.948 147.032 207.734 143.568 211.328 140.756C211.641 140.495 211.771 140.209 211.719 139.896C210.781 136.302 210.104 133.568 209.688 131.693C209.427 130.547 209.583 129.506 210.156 128.568C210.781 127.631 211.667 127.058 212.812 126.849L213.438 126.771C214.583 126.563 215.625 126.745 216.562 127.318C217.5 127.891 218.125 128.75 218.438 129.896C218.542 130.521 218.75 131.485 219.062 132.787C219.427 134.037 219.661 134.922 219.766 135.443C219.87 135.756 220.104 135.886 220.469 135.834C224.427 134.427 228.672 133.724 233.203 133.724C235.13 133.724 236.849 133.802 238.359 133.959C238.828 134.063 239.089 133.907 239.141 133.49C239.557 132.188 240.156 130.131 240.938 127.318C241.25 126.172 241.901 125.287 242.891 124.662C243.88 124.037 244.948 123.854 246.094 124.115L246.641 124.271C247.786 124.479 248.646 125.078 249.219 126.068C249.844 127.006 250 127.995 249.688 129.037C249.01 131.797 248.385 134.063 247.812 135.834C247.76 136.198 247.891 136.459 248.203 136.615C252.995 138.698 256.745 141.771 259.453 145.834C262.214 149.844 263.594 154.453 263.594 159.662C263.594 166.693 261.901 172.422 258.516 176.849C255.182 181.276 250.365 184.271 244.062 185.834C242.917 186.094 241.849 185.912 240.859 185.287C239.922 184.714 239.297 183.828 238.984 182.631L238.828 182.084C238.516 181.042 238.672 180.052 239.297 179.115C239.922 178.177 240.755 177.578 241.797 177.318C250.13 174.922 254.297 169.037 254.297 159.662C254.297 156.537 253.516 153.75 251.953 151.302C250.391 148.854 248.177 146.927 245.312 145.521C245 145.365 244.766 145.469 244.609 145.834C240.078 158.386 235.026 167.839 229.453 174.193C223.932 180.495 218.568 183.646 213.359 183.646Z" fill="#454545"/>
<path d="M156.188 185.382C147.229 185.382 140.458 183.898 135.875 180.929C131.292 177.908 129 173.507 129 167.726C129 161.424 132.776 155.773 140.328 150.773C140.589 150.564 140.693 150.252 140.641 149.835V149.679C138.818 141.866 137.438 135.356 136.5 130.148C136.344 129.054 136.578 128.038 137.203 127.101C137.828 126.111 138.714 125.512 139.859 125.304L141.734 125.069C142.88 124.861 143.896 125.122 144.781 125.851C145.667 126.528 146.24 127.413 146.5 128.507C147.594 134.236 148.74 139.731 149.938 144.991C150.042 145.46 150.302 145.59 150.719 145.382C157.281 142.622 165.172 140.122 174.391 137.882C175.536 137.622 176.604 137.804 177.594 138.429C178.583 139.002 179.156 139.861 179.312 141.007L179.469 141.632C179.729 142.778 179.521 143.819 178.844 144.757C178.219 145.694 177.359 146.293 176.266 146.554C163.974 149.523 154.729 152.804 148.531 156.398C142.333 159.991 139.234 163.585 139.234 167.179C139.234 173.481 144.885 176.632 156.188 176.632C162.594 176.632 169.078 176.215 175.641 175.382C176.786 175.226 177.776 175.486 178.609 176.163C179.495 176.84 180.016 177.752 180.172 178.898L180.25 179.366C180.406 180.512 180.12 181.554 179.391 182.491C178.714 183.429 177.828 183.976 176.734 184.132C170.536 184.965 163.688 185.382 156.188 185.382Z" fill="#454545"/>
<path d="M72.875 178.172C76.1042 178.172 78.3177 177.625 79.5156 176.531C80.7656 175.438 81.3906 173.38 81.3906 170.359C81.3906 169.943 81.2083 169.682 80.8438 169.578C78.2396 168.536 75.9219 168.016 73.8906 168.016C71.026 168.016 68.9688 168.406 67.7188 169.188C66.4688 169.969 65.8438 171.167 65.8438 172.781C65.8438 174.448 66.4427 175.776 67.6406 176.766C68.8906 177.703 70.6354 178.172 72.875 178.172ZM56.7031 139.031C55.5573 139.031 54.5677 138.641 53.7344 137.859C52.9531 137.026 52.5625 136.062 52.5625 134.969C52.5625 133.823 52.9531 132.859 53.7344 132.078C54.5677 131.245 55.5573 130.828 56.7031 130.828H80.7656C81.1823 130.828 81.3906 130.62 81.3906 130.203V127.859C81.3906 126.766 81.7812 125.828 82.5625 125.047C83.3958 124.214 84.3854 123.797 85.5312 123.797H86.5469C87.6927 123.797 88.6562 124.214 89.4375 125.047C90.2188 125.88 90.6094 126.818 90.6094 127.859V130.203C90.6094 130.62 90.8177 130.828 91.2344 130.828H105.141C106.286 130.828 107.25 131.245 108.031 132.078C108.865 132.859 109.281 133.823 109.281 134.969C109.281 136.062 108.865 137.026 108.031 137.859C107.25 138.641 106.286 139.031 105.141 139.031H91.2344C90.8177 139.031 90.6094 139.24 90.6094 139.656V144.734C90.6094 145.151 90.8177 145.359 91.2344 145.359H102.641C103.734 145.359 104.672 145.75 105.453 146.531C106.234 147.312 106.625 148.276 106.625 149.422C106.625 150.516 106.234 151.479 105.453 152.312C104.672 153.094 103.734 153.484 102.641 153.484H91.2344C90.8177 153.484 90.6094 153.693 90.6094 154.109V164.578C90.6094 164.943 90.7656 165.281 91.0781 165.594C95.4531 168.094 100.01 171.375 104.75 175.438C105.583 176.167 106.026 177.13 106.078 178.328C106.13 179.474 105.792 180.464 105.062 181.297L104.828 181.531C104.047 182.312 103.083 182.729 101.938 182.781C100.792 182.885 99.8021 182.547 98.9688 181.766C95.8958 179.109 93.1615 176.922 90.7656 175.203C90.401 174.943 90.1667 174.995 90.0625 175.359C89.3333 179.266 87.5885 182.078 84.8281 183.797C82.0677 185.516 78.0833 186.375 72.875 186.375C67.7188 186.375 63.6823 185.177 60.7656 182.781C57.849 180.385 56.3906 177.052 56.3906 172.781C56.3906 168.927 57.7448 165.828 60.4531 163.484C63.1615 161.141 67.3021 159.969 72.875 159.969C75.6354 159.969 78.2917 160.333 80.8438 161.062C81.2083 161.115 81.3906 160.958 81.3906 160.594V154.109C81.3906 153.693 81.1823 153.484 80.7656 153.484H59.2812C58.1354 153.484 57.1719 153.094 56.3906 152.312C55.6615 151.531 55.2969 150.594 55.2969 149.5C55.2969 148.354 55.6615 147.391 56.3906 146.609C57.1719 145.776 58.1354 145.359 59.2812 145.359H80.7656C81.1823 145.359 81.3906 145.151 81.3906 144.734V139.734C81.3906 139.266 81.1823 139.031 80.7656 139.031H56.7031Z" fill="#454545"/>
<path d="M219.391 49.0312C220.328 49.6562 220.901 50.5156 221.109 51.6093C221.318 52.7031 221.083 53.6926 220.406 54.5781C216.604 59.1614 212.203 63.1458 207.203 66.5312C206.266 67.1562 205.276 67.3124 204.234 66.9999C203.193 66.6353 202.438 65.9583 201.969 64.9687L201.734 64.4218C201.266 63.3281 201.214 62.2083 201.578 61.0624C201.943 59.9166 202.594 59.0312 203.531 58.4062C207.281 55.9062 210.537 53.0416 213.297 49.8124C214.026 48.9791 214.964 48.4843 216.109 48.3281C217.307 48.1718 218.375 48.3801 219.313 48.9531L219.391 49.0312ZM200.484 89.3437L200.016 87.0781C199.391 84.5781 200.146 82.4166 202.281 80.5937C206.604 77.052 210.432 72.8333 213.766 67.9374C214.443 66.9999 215.328 66.401 216.422 66.1406C217.568 65.8801 218.609 66.0624 219.547 66.6874L219.859 66.9218C220.901 67.4947 221.552 68.3281 221.813 69.4218C222.125 70.5156 221.995 71.5833 221.422 72.6249C220.484 74.1874 219.208 76.0103 217.594 78.0937C217.386 78.4062 217.281 78.7708 217.281 79.1874V109.734C217.281 110.828 216.865 111.766 216.031 112.547C215.198 113.328 214.208 113.719 213.063 113.719H211.891C210.745 113.719 209.755 113.328 208.922 112.547C208.141 111.766 207.75 110.828 207.75 109.734V87.6249C207.75 87.5728 207.672 87.5208 207.516 87.4687C207.412 87.4166 207.333 87.4426 207.281 87.5468C206.031 89.0051 205.094 90.0468 204.469 90.6718C203.792 91.2968 203.011 91.4791 202.125 91.2187C201.292 90.9062 200.745 90.2812 200.484 89.3437ZM260.875 58.2499H230.484C229.339 58.2499 228.375 57.8333 227.594 56.9999C226.813 56.1666 226.422 55.2031 226.422 54.1093C226.422 52.9635 226.813 51.9999 227.594 51.2187C228.375 50.3853 229.339 49.9687 230.484 49.9687H260.875C261.969 49.9687 262.906 50.3853 263.688 51.2187C264.521 51.9999 264.938 52.9635 264.938 54.1093C264.938 55.2031 264.521 56.1666 263.688 56.9999C262.906 57.8333 261.969 58.2499 260.875 58.2499ZM264 68.6406C265.094 68.6406 266.031 69.0572 266.813 69.8906C267.646 70.6718 268.063 71.6353 268.063 72.7812C268.063 73.8749 267.646 74.8385 266.813 75.6718C266.031 76.5051 265.094 76.9218 264 76.9218H257.75C257.281 76.9218 257.047 77.1041 257.047 77.4687V101.062C257.047 103.979 256.943 106.141 256.734 107.547C256.578 108.953 256.057 110.125 255.172 111.062C254.287 112 253.167 112.547 251.813 112.703C250.511 112.859 248.427 112.937 245.563 112.937C244.104 112.937 241.682 112.885 238.297 112.781C237.099 112.729 236.109 112.286 235.328 111.453C234.547 110.62 234.13 109.604 234.078 108.406V108.25C233.974 107.156 234.313 106.219 235.094 105.437C235.927 104.656 236.891 104.292 237.984 104.344C240.745 104.5 242.698 104.578 243.844 104.578C245.406 104.578 246.344 104.422 246.656 104.109C246.969 103.797 247.125 102.807 247.125 101.141V77.4687C247.125 77.1041 246.917 76.9218 246.5 76.9218H228.531C227.438 76.9218 226.474 76.5051 225.641 75.6718C224.859 74.8385 224.469 73.8749 224.469 72.7812C224.469 71.6353 224.886 70.6718 225.719 69.8906C226.552 69.0572 227.49 68.6406 228.531 68.6406H264Z" fill="#454545"/>
<path d="M124.344 99.0312L123.875 98.1718C122.469 95.8801 122.547 93.5624 124.109 91.2187C127.963 85.2812 130.75 79.3176 132.469 73.3281H127.312C126.219 73.3281 125.281 72.9635 124.5 72.2343C123.771 71.4531 123.406 70.5156 123.406 69.4218C123.406 68.276 123.797 67.3124 124.578 66.5312C125.359 65.7499 126.271 65.3593 127.312 65.3593H131.922C132.286 65.3593 132.469 65.151 132.469 64.7343V59.1093C132.469 58.6406 132.26 58.4322 131.844 58.4843C130.281 58.6926 129.109 58.8228 128.328 58.8749C127.234 58.9791 126.297 58.7187 125.516 58.0937C124.734 57.4166 124.318 56.5312 124.266 55.4374C124.161 54.3958 124.422 53.4843 125.047 52.7031C125.724 51.9218 126.557 51.4791 127.547 51.3749C133.276 50.802 139.031 49.8385 144.812 48.4843C145.75 48.276 146.661 48.4322 147.547 48.9531C148.432 49.4218 149.057 50.151 149.422 51.1406C149.786 52.0781 149.734 53.0156 149.266 53.9531C148.797 54.8385 148.094 55.4114 147.156 55.6718C145.385 56.1406 143.614 56.5312 141.844 56.8437C141.427 56.9478 141.219 57.2343 141.219 57.7031V64.7343C141.219 65.151 141.427 65.3593 141.844 65.3593H145.594C146.687 65.3593 147.625 65.7499 148.406 66.5312C149.187 67.3124 149.578 68.276 149.578 69.4218C149.578 70.5156 149.187 71.4531 148.406 72.2343C147.625 72.9635 146.687 73.3281 145.594 73.3281H142.547C142.443 73.3281 142.338 73.3801 142.234 73.4843C142.182 73.5885 142.208 73.6926 142.312 73.7968C143.25 75.5676 144.552 77.9374 146.219 80.9062C147.885 83.8749 149.057 85.9062 149.734 86.9999C150.203 87.9374 150.385 88.8228 150.281 89.6562C150.281 89.7603 150.307 89.7864 150.359 89.7343C150.724 89.2135 151.193 88.7968 151.766 88.4843C156.088 86.3489 160.359 83.6145 164.578 80.2812C164.63 80.2291 164.63 80.2031 164.578 80.2031C164.578 80.2031 164.526 80.2031 164.422 80.2031C161.505 81.4531 158.12 82.5208 154.266 83.4062C153.172 83.6145 152.104 83.4583 151.062 82.9374C150.073 82.3645 149.37 81.5051 148.953 80.3593C148.641 79.4218 148.745 78.5103 149.266 77.6249C149.786 76.7395 150.542 76.1666 151.531 75.9062C156.271 74.9687 160.724 73.4062 164.891 71.2187C165.203 71.0624 165.229 70.8281 164.969 70.5156L160.125 65.9062C159.604 65.3853 159.292 64.9426 159.187 64.5781C159.083 64.1614 158.875 64.0833 158.562 64.3437C157.26 65.1249 156.427 65.6197 156.062 65.8281C155.125 66.3489 154.109 66.4791 153.016 66.2187C151.974 65.9062 151.114 65.3333 150.437 64.4999C149.864 63.6666 149.708 62.7812 149.969 61.8437C150.229 60.8541 150.776 60.0728 151.609 59.4999C156.245 56.6874 160.463 53.4322 164.266 49.7343C166.141 47.8593 168.276 47.4426 170.672 48.4843C172.182 49.1614 172.781 50.2551 172.469 51.7656C172.417 52.0781 172.599 52.2343 173.016 52.2343H183.641C184.578 52.2343 185.359 52.5728 185.984 53.2499C186.609 53.927 186.922 54.7083 186.922 55.5937C186.922 56.6353 186.583 57.4687 185.906 58.0937C185.594 58.302 185.489 58.6145 185.594 59.0312C185.958 60.177 185.854 61.2968 185.281 62.3906C183.042 66.7135 179.838 70.4895 175.672 73.7187C175.62 73.8228 175.594 73.927 175.594 74.0312C175.646 74.1353 175.724 74.2135 175.828 74.2656H175.984C177.338 74.7343 178.016 75.6718 178.016 77.0781C178.016 77.4947 178.198 77.7031 178.562 77.7031H187.469C188.458 77.7031 189.292 78.0676 189.969 78.7968C190.698 79.526 191.062 80.3853 191.062 81.3749C191.062 82.4166 190.646 83.276 189.812 83.9531C189.5 84.2135 189.422 84.526 189.578 84.8906C190.099 86.1926 190.073 87.4426 189.5 88.6406C186.323 95.0468 181.687 100.385 175.594 104.656C169.552 108.927 162.469 111.844 154.344 113.406C153.25 113.615 152.208 113.406 151.219 112.781C150.281 112.208 149.604 111.349 149.187 110.203C148.875 109.266 149.005 108.354 149.578 107.469C150.151 106.583 150.932 106.036 151.922 105.828C158.016 104.526 163.328 102.521 167.859 99.8124C167.963 99.7603 168.016 99.6301 168.016 99.4218C168.016 99.2135 167.963 99.0833 167.859 99.0312C167.807 98.9791 167.729 98.927 167.625 98.8749C167.573 98.7708 167.495 98.7187 167.391 98.7187C165.672 96.9478 163.953 95.2291 162.234 93.5624C161.974 93.302 161.766 92.9635 161.609 92.5468C161.453 92.2343 161.193 92.1562 160.828 92.3124C159.213 93.3541 157.599 94.2656 155.984 95.0468C155.047 95.5156 154.005 95.5937 152.859 95.2812C151.766 94.9687 150.932 94.3437 150.359 93.4062C149.891 92.7812 149.708 92.1301 149.812 91.4531C149.812 91.401 149.786 91.3749 149.734 91.3749C149.682 91.3228 149.63 91.3228 149.578 91.3749C149.266 91.8437 148.927 92.1822 148.562 92.3906C147.781 92.9114 146.922 93.0676 145.984 92.8593C145.047 92.651 144.396 92.1301 144.031 91.2968C142.937 88.9531 142.104 87.2083 141.531 86.0624C141.479 86.0103 141.401 85.9843 141.297 85.9843C141.245 85.9843 141.219 86.0103 141.219 86.0624V109.734C141.219 110.828 140.802 111.766 139.969 112.547C139.135 113.328 138.146 113.719 137 113.719H136.609C135.463 113.719 134.474 113.328 133.641 112.547C132.859 111.766 132.469 110.828 132.469 109.734V91.9218C132.417 91.8176 132.338 91.7656 132.234 91.7656C131.297 94.2656 130.151 96.6874 128.797 99.0312C128.328 99.8645 127.573 100.281 126.531 100.281C125.542 100.281 124.812 99.8645 124.344 99.0312ZM170.906 65.5937C171.114 65.802 171.271 66.0103 171.375 66.2187C171.427 66.3228 171.531 66.401 171.687 66.4531C171.896 66.4531 172.052 66.401 172.156 66.2968C174.448 64.2656 176.427 61.9739 178.094 59.4218C178.198 59.3176 178.198 59.2135 178.094 59.1093C178.042 59.0051 177.963 58.9531 177.859 58.9531H168.25C167.885 58.9531 167.469 58.8749 167 58.7187C166.687 58.5624 166.375 58.6145 166.062 58.8749C165.958 58.9791 165.776 59.1093 165.516 59.2656C165.307 59.4218 165.151 59.552 165.047 59.6562C164.943 59.7083 164.891 59.8385 164.891 60.0468C164.943 60.2031 165.047 60.3072 165.203 60.3593C165.411 60.4635 165.698 60.6718 166.062 60.9843C166.531 61.401 167.052 61.8958 167.625 62.4687C168.198 62.9895 168.797 63.5624 169.422 64.1874C170.099 64.8124 170.594 65.2812 170.906 65.5937ZM174.812 94.4999C177.521 91.9999 179.891 88.9791 181.922 85.4374C181.974 85.3333 181.974 85.2291 181.922 85.1249C181.87 85.0208 181.766 84.9687 181.609 84.9687H172.781C172.625 84.9687 172.364 84.9166 172 84.8124C171.583 84.7083 171.219 84.7864 170.906 85.0468C169.76 85.9843 168.875 86.6874 168.25 87.1562C168.042 87.3645 168.068 87.6249 168.328 87.9374C168.38 87.9374 168.406 87.9635 168.406 88.0156C168.406 88.0676 168.432 88.1197 168.484 88.1718C169.682 89.4218 171.401 91.1926 173.641 93.4843C173.901 93.8489 174.083 94.1353 174.187 94.3437C174.396 94.6562 174.604 94.7083 174.812 94.4999Z" fill="#454545"/>
<path d="M60.428 55.0162C68.3503 60.8842 76.8711 72.7826 80 79.1671C83.1289 72.7826 91.6497 60.8842 99.572 55.0162C105.288 50.7821 114.55 47.506 114.55 57.9308C114.55 60.0128 113.341 75.4206 112.631 77.9222C110.164 86.6187 101.176 88.8368 93.1811 87.4943C107.156 89.841 110.711 97.614 103.034 105.387C88.4518 120.15 82.0756 101.683 80.4417 96.9514C80.1422 96.0839 80.0021 95.6781 80 96.0232C79.9979 95.6781 79.8578 96.0839 79.5583 96.9514C77.9244 101.683 71.5482 120.15 56.9664 105.387C49.2885 97.614 52.8436 89.841 66.8189 87.4943C58.8236 88.8368 49.8356 86.6187 47.369 77.9222C46.6594 75.4206 45.4495 60.0128 45.4495 57.9308C45.4495 47.506 54.7117 50.7821 60.428 55.0162Z" fill="#1185FE"/>
</svg>
