<svg width="40" height="40" viewBox="0 0 40 40" fill="none" xmlns="http://www.w3.org/2000/svg">
<rect width="40" height="40" fill="#1185FE"/>
<path d="M20 8C20.7969 8 21.5 8.70312 21.5 9.5V12.5H27.125C28.9531 12.5 30.5 14.0469 30.5 15.875V28.625C30.5 30.5 28.9531 32 27.125 32H12.875C11 32 9.5 30.5 9.5 28.625V15.875C9.5 14.0469 11 12.5 12.875 12.5H18.5V9.5C18.5 8.70312 19.1562 8 20 8ZM14.75 26C14.3281 26 14 26.375 14 26.75C14 27.1719 14.3281 27.5 14.75 27.5H16.25C16.625 27.5 17 27.1719 17 26.75C17 26.375 16.625 26 16.25 26H14.75ZM19.25 26C18.8281 26 18.5 26.375 18.5 26.75C18.5 27.1719 18.8281 27.5 19.25 27.5H20.75C21.125 27.5 21.5 27.1719 21.5 26.75C21.5 26.375 21.125 26 20.75 26H19.25ZM23.75 26C23.3281 26 23 26.375 23 26.75C23 27.1719 23.3281 27.5 23.75 27.5H25.25C25.625 27.5 26 27.1719 26 26.75C26 26.375 25.625 26 25.25 26H23.75ZM17.375 20C17.375 19.3438 17 18.7344 16.4375 18.4062C15.8281 18.0781 15.125 18.0781 14.5625 18.4062C13.9531 18.7344 13.625 19.3438 13.625 20C13.625 20.7031 13.9531 21.3125 14.5625 21.6406C15.125 21.9688 15.8281 21.9688 16.4375 21.6406C17 21.3125 17.375 20.7031 17.375 20ZM24.5 21.875C25.1562 21.875 25.7656 21.5469 26.0938 20.9375C26.4219 20.375 26.4219 19.6719 26.0938 19.0625C25.7656 18.5 25.1562 18.125 24.5 18.125C23.7969 18.125 23.1875 18.5 22.8594 19.0625C22.5312 19.6719 22.5312 20.375 22.8594 20.9375C23.1875 21.5469 23.7969 21.875 24.5 21.875ZM7.25 18.5H8V27.5H7.25C5.98438 27.5 5 26.5156 5 25.25V20.75C5 19.5312 5.98438 18.5 7.25 18.5ZM32.75 18.5C33.9688 18.5 35 19.5312 35 20.75V25.25C35 26.5156 33.9688 27.5 32.75 27.5H32V18.5H32.75Z" fill="white"/>
</svg>
