<svg width="40" height="40" viewBox="0 0 40 40" fill="none" xmlns="http://www.w3.org/2000/svg">
<rect width="40" height="40" fill="#1185FE"/>
<path d="M12.4375 7.25H27.0625C28.3828 7.25 29.5 8.36719 29.5 9.6875V30.8125C29.5 32.1836 28.3828 33.25 27.0625 33.25H22.1875V29.1875C22.1875 27.8672 21.0703 26.75 19.75 26.75C18.3789 26.75 17.3125 27.8672 17.3125 29.1875V33.25H12.4375C11.0664 33.25 10 32.1836 10 30.8125V9.6875C10 8.36719 11.0664 7.25 12.4375 7.25ZM13.25 19.4375V21.0625C13.25 21.5195 13.6055 21.875 14.0625 21.875H15.6875C16.0938 21.875 16.5 21.5195 16.5 21.0625V19.4375C16.5 19.0312 16.0938 18.625 15.6875 18.625H14.0625C13.6055 18.625 13.25 19.0312 13.25 19.4375ZM18.9375 18.625C18.4805 18.625 18.125 19.0312 18.125 19.4375V21.0625C18.125 21.5195 18.4805 21.875 18.9375 21.875H20.5625C20.9688 21.875 21.375 21.5195 21.375 21.0625V19.4375C21.375 19.0312 20.9688 18.625 20.5625 18.625H18.9375ZM23 19.4375V21.0625C23 21.5195 23.3555 21.875 23.8125 21.875H25.4375C25.8438 21.875 26.25 21.5195 26.25 21.0625V19.4375C26.25 19.0312 25.8438 18.625 25.4375 18.625H23.8125C23.3555 18.625 23 19.0312 23 19.4375ZM14.0625 12.125C13.6055 12.125 13.25 12.5312 13.25 12.9375V14.5625C13.25 15.0195 13.6055 15.375 14.0625 15.375H15.6875C16.0938 15.375 16.5 15.0195 16.5 14.5625V12.9375C16.5 12.5312 16.0938 12.125 15.6875 12.125H14.0625ZM18.125 12.9375V14.5625C18.125 15.0195 18.4805 15.375 18.9375 15.375H20.5625C20.9688 15.375 21.375 15.0195 21.375 14.5625V12.9375C21.375 12.5312 20.9688 12.125 20.5625 12.125H18.9375C18.4805 12.125 18.125 12.5312 18.125 12.9375ZM23.8125 12.125C23.3555 12.125 23 12.5312 23 12.9375V14.5625C23 15.0195 23.3555 15.375 23.8125 15.375H25.4375C25.8438 15.375 26.25 15.0195 26.25 14.5625V12.9375C26.25 12.5312 25.8438 12.125 25.4375 12.125H23.8125Z" fill="white"/>
</svg>
