<svg width="40" height="40" viewBox="0 0 40 40" fill="none" xmlns="http://www.w3.org/2000/svg">
<rect width="40" height="40" fill="#1185FE"/>
<path d="M5.9375 11.3125C5.9375 10.2188 6.48438 9.23438 7.46875 8.6875C8.39844 8.14062 9.54688 8.14062 10.5312 8.6875C11.4609 9.23438 12.0625 10.2188 12.0625 11.3125C12.0625 12.4609 11.4609 13.4453 10.5312 13.9922C9.54688 14.5391 8.39844 14.5391 7.46875 13.9922C6.48438 13.4453 5.9375 12.4609 5.9375 11.3125ZM5.5 19.9531C4.95312 20.5547 4.625 21.375 4.625 22.25C4.625 23.1797 4.95312 24 5.5 24.6016V19.9531ZM13.375 17.2734C11.7344 18.6953 10.75 20.8281 10.75 23.125C10.75 25.0391 11.4062 26.7344 12.5 28.1016V29.25C12.5 30.2344 11.6797 31 10.75 31H7.25C6.26562 31 5.5 30.2344 5.5 29.25V27.8281C3.42188 26.8438 2 24.7109 2 22.25C2 18.9141 4.73438 16.125 8.125 16.125H9.875C11.1875 16.125 12.3906 16.5625 13.375 17.2734ZM26.5 29.25V28.1016C27.5938 26.7344 28.25 25.0391 28.25 23.125C28.25 20.8281 27.2109 18.6953 25.5703 17.2734C26.5547 16.5625 27.8125 16.125 29.125 16.125H30.875C34.2109 16.125 37 18.9141 37 22.25C37 24.7109 35.5234 26.8438 33.5 27.8281V29.25C33.5 30.2344 32.6797 31 31.75 31H28.25C27.2656 31 26.5 30.2344 26.5 29.25ZM26.9375 11.3125C26.9375 10.2188 27.4844 9.23438 28.4688 8.6875C29.3984 8.14062 30.5469 8.14062 31.5312 8.6875C32.4609 9.23438 33.0625 10.2188 33.0625 11.3125C33.0625 12.4609 32.4609 13.4453 31.5312 13.9922C30.5469 14.5391 29.3984 14.5391 28.4688 13.9922C27.4844 13.4453 26.9375 12.4609 26.9375 11.3125ZM33.5 19.9531V24.6016C34.0469 24 34.375 23.1797 34.375 22.3047C34.375 21.375 34.0469 20.5547 33.5 19.9531ZM19.5 8.25C20.7031 8.25 21.8516 8.96094 22.5078 10C23.1094 11.0938 23.1094 12.4609 22.5078 13.5C21.8516 14.5938 20.7031 15.25 19.5 15.25C18.2422 15.25 17.0938 14.5938 16.4375 13.5C15.8359 12.4609 15.8359 11.0938 16.4375 10C17.0938 8.96094 18.2422 8.25 19.5 8.25ZM15.125 23.125C15.125 24.0547 15.4531 24.8203 16 25.4766V20.8281C15.4531 21.4297 15.125 22.25 15.125 23.125ZM23 20.8281V25.4766C23.5469 24.875 23.875 24.0547 23.875 23.1797C23.875 22.25 23.5469 21.4297 23 20.8281ZM26.5 23.125C26.5 25.5859 25.0234 27.7188 23 28.7031V31C23 31.9844 22.1797 32.75 21.25 32.75H17.75C16.7656 32.75 16 31.9844 16 31V28.7031C13.9219 27.7188 12.5 25.5859 12.5 23.125C12.5 19.7891 15.2344 17 18.625 17H20.375C23.7109 17 26.5 19.7891 26.5 23.125Z" fill="white"/>
</svg>
