<svg width="40" height="40" viewBox="0 0 40 40" fill="none" xmlns="http://www.w3.org/2000/svg">
<rect width="40" height="40" fill="#1185FE"/>
<path d="M11.25 8.25C11.25 7.32031 12.0156 6.5 13 6.5H16.5C17.4297 6.5 18.25 7.32031 18.25 8.25V13.5H11.25V8.25ZM11.25 15.25H18.25C21.1484 15.25 23.5 17.6016 23.5 20.5V31.875C23.5 33.3516 22.2969 34.5 20.875 34.5H8.625C7.14844 34.5 6 33.3516 6 31.875V20.5C6 17.6016 8.35156 15.25 11.25 15.25ZM14.75 20.5C13.1641 20.5 11.7422 21.375 10.9219 22.6875C10.1562 24.0547 10.1562 25.75 10.9219 27.0625C11.7422 28.4297 13.1641 29.25 14.75 29.25C16.2812 29.25 17.7031 28.4297 18.5234 27.0625C19.2891 25.75 19.2891 24.0547 18.5234 22.6875C17.7031 21.375 16.2812 20.5 14.75 20.5ZM27 9.125C27 9.23438 26.9453 9.28906 26.8359 9.34375L25.25 10L24.5391 11.6406C24.5391 11.6953 24.4297 11.75 24.375 11.75C24.2656 11.75 24.2109 11.6953 24.1562 11.6406L23.5 10L21.8594 9.34375C21.8047 9.28906 21.75 9.23438 21.75 9.125C21.75 9.07031 21.8047 8.96094 21.8594 8.96094L23.5 8.25L24.1562 6.66406C24.2109 6.55469 24.2656 6.5 24.375 6.5C24.4297 6.5 24.5391 6.55469 24.5391 6.66406L25.25 8.25L26.8359 8.96094C26.9453 8.96094 27 9.07031 27 9.125ZM31.1562 11.6406L30.5 10L28.8594 9.34375C28.8047 9.28906 28.75 9.23438 28.75 9.125C28.75 9.07031 28.8047 8.96094 28.8594 8.96094L30.5 8.25L31.1562 6.66406C31.2109 6.55469 31.2656 6.5 31.375 6.5C31.4297 6.5 31.5391 6.55469 31.5391 6.66406L32.25 8.25L33.8359 8.96094C33.9453 8.96094 34 9.07031 34 9.125C34 9.23438 33.9453 9.28906 33.8359 9.34375L32.25 10L31.5391 11.6406C31.5391 11.6953 31.4297 11.75 31.375 11.75C31.2656 11.75 31.2109 11.6953 31.1562 11.6406ZM31.5391 17.1641L32.25 18.75L33.8359 19.4609C33.9453 19.4609 34 19.5703 34 19.625C34 19.7344 33.9453 19.7891 33.8359 19.8438L32.25 20.5L31.5391 22.1406C31.5391 22.1953 31.4297 22.25 31.375 22.25C31.2656 22.25 31.2109 22.1953 31.1562 22.1406L30.5 20.5L28.8594 19.8438C28.8047 19.7891 28.75 19.7344 28.75 19.625C28.75 19.5703 28.8047 19.4609 28.8594 19.4609L30.5 18.75L31.1562 17.1641C31.2109 17.0547 31.2656 17 31.375 17C31.4297 17 31.5391 17.0547 31.5391 17.1641ZM30.5 14.375C30.5 14.4844 30.4453 14.5391 30.3359 14.5938L28.75 15.25L28.0391 16.8906C28.0391 16.9453 27.9297 17 27.875 17C27.7656 17 27.7109 16.9453 27.6562 16.8906L27 15.25L25.3594 14.5938C25.3047 14.5391 25.25 14.4844 25.25 14.375C25.25 14.3203 25.3047 14.2109 25.3594 14.2109L27 13.5L27.6562 11.9141C27.7109 11.8047 27.7656 11.75 27.875 11.75C27.9297 11.75 28.0391 11.8047 28.0391 11.9141L28.75 13.5L30.3359 14.2109C30.4453 14.2109 30.5 14.3203 30.5 14.375Z" fill="white"/>
</svg>
