<svg width="40" height="40" viewBox="0 0 40 40" fill="none" xmlns="http://www.w3.org/2000/svg">
<rect width="40" height="40" fill="#1185FE"/>
<path d="M13.25 10.5H26.25C31.6328 10.5 36 14.8672 36 20.25C36 25.6328 31.6328 30 26.25 30H13.25C7.86719 30 3.5 25.6328 3.5 20.25C3.5 14.8672 7.86719 10.5 13.25 10.5ZM28.6875 15.7812C27.9258 15.7812 27.2656 16.1875 26.9102 16.7969C26.5547 17.457 26.5547 18.2188 26.9102 18.8281C27.2656 19.4883 27.9258 19.8438 28.6875 19.8438C29.3984 19.8438 30.0586 19.4883 30.4141 18.8281C30.7695 18.2188 30.7695 17.457 30.4141 16.7969C30.0586 16.1875 29.3984 15.7812 28.6875 15.7812ZM23.4062 22.6875C23.4062 23.4492 23.7617 24.1094 24.4219 24.4648C25.0312 24.8203 25.793 24.8203 26.4531 24.4648C27.0625 24.1094 27.4688 23.4492 27.4688 22.6875C27.4688 21.9766 27.0625 21.3164 26.4531 20.9609C25.793 20.6055 25.0312 20.6055 24.4219 20.9609C23.7617 21.3164 23.4062 21.9766 23.4062 22.6875ZM12.0312 17.4062V19.0312H10.4062C9.69531 19.0312 9.1875 19.5898 9.1875 20.25C9.1875 20.9609 9.69531 21.4688 10.4062 21.4688H12.0312V23.0938C12.0312 23.8047 12.5391 24.3125 13.25 24.3125C13.9102 24.3125 14.4688 23.8047 14.4688 23.0938V21.4688H16.0938C16.7539 21.4688 17.3125 20.9609 17.3125 20.25C17.3125 19.5898 16.7539 19.0312 16.0938 19.0312H14.4688V17.4062C14.4688 16.7461 13.9102 16.1875 13.25 16.1875C12.5391 16.1875 12.0312 16.7461 12.0312 17.4062Z" fill="white"/>
</svg>
