<svg width="40" height="40" viewBox="0 0 40 40" fill="none" xmlns="http://www.w3.org/2000/svg">
<rect width="40" height="40" fill="#1185FE"/>
<path d="M32.5742 21.875H30.9492L31 30C31 31.8281 29.5273 33.25 27.75 33.25H11.5C9.67188 33.25 8.25 31.8281 8.25 30V21.875H6.625C5.71094 21.875 5 21.1641 5 20.25C5 19.793 5.15234 19.3867 5.50781 19.0312L18.5078 7.65625C18.8633 7.30078 19.2695 7.25 19.625 7.25C19.9805 7.25 20.3867 7.35156 20.6914 7.60547L26.125 12.3789V10.5C26.125 9.63672 26.8359 8.875 27.75 8.875H29.375C30.2383 8.875 31 9.63672 31 10.5V16.6445L33.6406 19.0312C34.0469 19.3867 34.25 19.793 34.1992 20.25C34.1992 21.1641 33.4375 21.875 32.5742 21.875ZM19.625 15.375C18.457 15.375 17.3906 16.0352 16.7812 17C16.2227 18.0156 16.2227 19.2852 16.7812 20.25C17.3906 21.2656 18.457 21.875 19.625 21.875C20.7422 21.875 21.8086 21.2656 22.418 20.25C22.9766 19.2852 22.9766 18.0156 22.418 17C21.8086 16.0352 20.7422 15.375 19.625 15.375ZM13.9375 27.5625C13.9375 28.0195 14.293 28.375 14.75 28.375H24.5C24.9062 28.375 25.3125 28.0195 25.3125 27.5625C25.3125 25.3281 23.4844 23.5 21.25 23.5H18C15.7148 23.5 13.9375 25.3281 13.9375 27.5625Z" fill="white"/>
</svg>
