<svg width="40" height="40" viewBox="0 0 40 40" fill="none" xmlns="http://www.w3.org/2000/svg">
<rect width="40" height="40" fill="#1185FE"/>
<path d="M25.125 13.625C25.125 16.2031 21.6562 20.75 20.1562 22.625C19.8281 23.0938 19.125 23.0938 18.7969 22.625C17.2969 20.75 13.875 16.2031 13.875 13.625C13.875 10.5312 16.3594 8 19.5 8C22.5938 8 25.125 10.5312 25.125 13.625ZM25.5 17.4219C25.6406 17.0938 25.7812 16.7656 25.9219 16.4375C25.9688 16.3906 25.9688 16.3438 26.0156 16.2969L31.4531 14.0938C32.1562 13.8125 33 14.3281 33 15.125V27.8281C33 28.2969 32.7188 28.7188 32.25 28.9062L25.5 31.5781V17.4219ZM12.4219 14.5156C12.5625 15.1719 12.75 15.8281 13.0312 16.4375C13.1719 16.7656 13.3125 17.0938 13.5 17.4219V29.1875L7.5 31.5781C6.79688 31.8594 6 31.3438 6 30.5469V17.8438C6 17.375 6.28125 16.9531 6.70312 16.8125L12.4219 14.5156ZM21.3281 23.5625C21.9844 22.7656 23.0156 21.4531 24 19.9531V31.6719L15 29.0938V19.9531C15.9375 21.4531 16.9688 22.7656 17.625 23.5625C18.5625 24.7812 20.3906 24.7812 21.3281 23.5625ZM19.5 15.125C20.1562 15.125 20.7656 14.7969 21.0938 14.1875C21.4219 13.625 21.4219 12.9219 21.0938 12.3125C20.7656 11.75 20.1562 11.375 19.5 11.375C18.7969 11.375 18.1875 11.75 17.8594 12.3125C17.5312 12.9219 17.5312 13.625 17.8594 14.1875C18.1875 14.7969 18.7969 15.125 19.5 15.125Z" fill="white"/>
</svg>
