<svg width="40" height="40" viewBox="0 0 40 40" fill="none" xmlns="http://www.w3.org/2000/svg">
<rect width="40" height="40" fill="#1185FE"/>
<path d="M30.3398 7.60547C30.7461 7.91016 31 8.36719 31 8.875V12.5312V25.9375C31 28.2227 28.8164 30 26.125 30C23.4336 30 21.25 28.2227 21.25 25.9375C21.25 23.7031 23.4336 21.875 26.125 21.875C26.6836 21.875 27.2422 21.9766 27.75 22.1289V14.7148L14.75 18.625V29.1875C14.75 31.4727 12.5664 33.25 9.875 33.25C7.18359 33.25 5 31.4727 5 29.1875C5 26.9531 7.18359 25.125 9.875 25.125C10.4336 25.125 10.9922 25.2266 11.5 25.3789V17.4062V13.75C11.5 13.0391 11.957 12.4297 12.6172 12.2266L28.8672 7.35156C29.375 7.19922 29.9336 7.30078 30.3398 7.60547Z" fill="white"/>
</svg>
