<svg width="40" height="40" viewBox="0 0 40 40" fill="none" xmlns="http://www.w3.org/2000/svg">
<rect width="40" height="40" fill="#1185FE"/>
<path d="M22.5001 8.875H29.0001C29.8634 8.875 30.6251 9.63672 30.6251 10.5C30.6251 11.4141 29.8634 12.125 29.0001 12.125H23.211C22.9571 13.4453 22.0431 14.5625 20.8751 15.0703V30H29.0001C29.8634 30 30.6251 30.7617 30.6251 31.625C30.6251 32.5391 29.8634 33.25 29.0001 33.25H19.2501H9.50008C8.58602 33.25 7.87508 32.5391 7.87508 31.625C7.87508 30.7617 8.58602 30 9.50008 30H17.6251V15.0703C16.4063 14.5117 15.4923 13.4453 15.2384 12.125H9.50008C8.58602 12.125 7.87508 11.4141 7.87508 10.5C7.87508 9.63672 8.58602 8.875 9.50008 8.875H16.0001C16.711 7.91016 17.879 7.25 19.2501 7.25C20.5704 7.25 21.7384 7.91016 22.5001 8.875ZM25.2931 23.5H32.6563L29.0001 17.2031L25.2931 23.5ZM29.0001 28.375C25.8009 28.375 23.1095 26.6484 22.6016 24.4141C22.4493 23.8555 22.6524 23.2461 22.9063 22.7383L27.7306 14.4609C27.9845 14.0547 28.4923 13.75 29.0001 13.75C29.4571 13.75 29.9649 14.0547 30.2188 14.4609L35.0431 22.7383C35.3477 23.2461 35.5001 23.8555 35.3985 24.4141C34.8399 26.6484 32.1485 28.375 29.0001 28.375ZM9.39852 17.2031L5.74227 23.5H13.1056L9.39852 17.2031ZM3.00008 24.4141C2.89852 23.8555 3.05087 23.2461 3.35555 22.7383L8.17977 14.4609C8.43368 14.0547 8.94149 13.75 9.39852 13.75C9.90633 13.75 10.4141 14.0547 10.6681 14.4609L15.4923 22.7383C15.7462 23.2461 15.9493 23.8555 15.797 24.4141C15.2891 26.6484 12.5977 28.375 9.39852 28.375C6.1993 28.375 3.55868 26.6484 3.00008 24.4141Z" fill="white"/>
</svg>
