<svg width="40" height="40" viewBox="0 0 40 40" fill="none" xmlns="http://www.w3.org/2000/svg">
<rect width="40" height="40" fill="#1185FE"/>
<path d="M18.1992 29.0312C17.082 28.6016 15.1055 28 13.6875 28C12.0117 28 9.86328 28.5586 8.53125 28.9883C8.01562 29.1602 7.5 28.7734 7.5 28.3008V12.3594C7.5 11.8438 7.75781 11.3711 8.27344 11.1992C9.47656 10.7266 11.4961 10.125 13.6875 10.125C16.1797 10.125 18.1133 10.9844 18.9727 11.6719C19.1016 11.8008 19.1875 11.9727 19.1875 12.1445V28.3438C19.1875 28.8594 18.6719 29.2031 18.1992 29.0312ZM21.5078 29.0312C21.0352 29.2031 20.5625 28.8594 20.5625 28.3438V12.1445C20.5625 11.9727 20.6055 11.8008 20.7773 11.6719C21.5938 10.9844 23.5273 10.125 26.0625 10.125C28.2109 10.125 30.2305 10.7266 31.4336 11.1992C31.9492 11.3711 32.25 11.8438 32.25 12.3594V28.3008C32.25 28.7734 31.6914 29.1602 31.1758 28.9883C29.8438 28.5586 27.6953 28 26.0625 28C24.6016 28 22.668 28.6016 21.5078 29.0312Z" fill="white"/>
</svg>
