<svg width="40" height="40" viewBox="0 0 40 40" fill="none" xmlns="http://www.w3.org/2000/svg">
<rect width="40" height="40" fill="#1185FE"/>
<path d="M24.75 8C25.9688 8 27 9.03125 26.9531 10.2969C26.9062 10.5312 26.9062 10.7656 26.9062 11H31.875C32.4844 11 33 11.5156 33 12.125C33 16.4844 31.4062 19.4844 29.2969 21.5469C27.2344 23.5625 24.7031 24.5938 22.8281 25.1094C21.7031 25.3906 21 26.3281 21 27.2656C21 28.2031 21.7969 29 22.7344 29H24C24.7969 29 25.5 29.7031 25.5 30.5C25.5 31.3438 24.7969 32 24 32H15C14.1562 32 13.5 31.3438 13.5 30.5C13.5 29.7031 14.1562 29 15 29H16.2188C17.2031 29 18 28.2031 18 27.2656C18 26.3281 17.25 25.3906 16.125 25.1094C14.25 24.5938 11.7188 23.5625 9.65625 21.5469C7.54688 19.4844 6 16.4844 6 12.125C6 11.5156 6.46875 11 7.125 11H12.0469C12.0469 10.7656 12.0469 10.5312 12 10.2969C11.9531 9.03125 12.9844 8 14.25 8H24.75ZM8.25 13.25H8.29688C8.53125 16.3906 9.75 18.5 11.25 19.9531C12.2812 20.9844 13.5 21.6875 14.6719 22.2031C13.5938 20.3281 12.6562 17.5156 12.2344 13.25H8.25ZM27.75 19.9531C29.25 18.5 30.4688 16.3906 30.7031 13.25H26.7188C26.2969 17.5156 25.3594 20.3281 24.2812 22.2031C25.4531 21.6875 26.6719 20.9844 27.75 19.9531Z" fill="white"/>
</svg>
