<svg width="40" height="40" viewBox="0 0 40 40" fill="none" xmlns="http://www.w3.org/2000/svg">
<rect width="40" height="40" fill="#1185FE"/>
<path d="M22.5 12.125H6.25V23.5H22.5V12.125ZM6.25 8.875H22.5C24.2773 8.875 25.75 10.3477 25.75 12.125V23.5C25.75 25.3281 24.2773 26.75 22.5 26.75H16.5078L17.0664 28.375H20.875C21.7383 28.375 22.5 29.1367 22.5 30C22.5 30.9141 21.7383 31.625 20.875 31.625H7.875C6.96094 31.625 6.25 30.9141 6.25 30C6.25 29.1367 6.96094 28.375 7.875 28.375H11.6328L12.1914 26.75H6.25C4.42188 26.75 3 25.3281 3 23.5V12.125C3 10.3477 4.42188 8.875 6.25 8.875ZM29.8125 8.875H33.0625C34.3828 8.875 35.5 9.99219 35.5 11.3125V29.1875C35.5 30.5586 34.3828 31.625 33.0625 31.625H29.8125C28.4414 31.625 27.375 30.5586 27.375 29.1875V11.3125C27.375 9.99219 28.4414 8.875 29.8125 8.875ZM30.625 12.125C30.168 12.125 29.8125 12.5312 29.8125 12.9375C29.8125 13.3945 30.168 13.75 30.625 13.75H32.25C32.6562 13.75 33.0625 13.3945 33.0625 12.9375C33.0625 12.5312 32.6562 12.125 32.25 12.125H30.625ZM29.8125 16.1875C29.8125 16.6445 30.168 17 30.625 17H32.25C32.6562 17 33.0625 16.6445 33.0625 16.1875C33.0625 15.7812 32.6562 15.375 32.25 15.375H30.625C30.168 15.375 29.8125 15.7812 29.8125 16.1875ZM31.4375 24.3125C30.5234 24.3125 29.8125 25.0742 29.8125 25.9375C29.8125 26.8516 30.5234 27.5625 31.4375 27.5625C32.3008 27.5625 33.0625 26.8516 33.0625 25.9375C33.0625 25.0742 32.3008 24.3125 31.4375 24.3125Z" fill="white"/>
</svg>
