<svg width="40" height="40" viewBox="0 0 40 40" fill="none" xmlns="http://www.w3.org/2000/svg">
<rect width="40" height="40" fill="#1185FE"/>
<path d="M7 12.125C7 10.3477 8.42188 8.875 10.25 8.875H29.75C31.5273 8.875 33 10.3477 33 12.125V28.375C33 30.2031 31.5273 31.625 29.75 31.625H10.25C8.42188 31.625 7 30.2031 7 28.375V12.125ZM9.4375 25.9375V27.5625C9.4375 28.0195 9.79297 28.375 10.25 28.375H11.875C12.2812 28.375 12.6875 28.0195 12.6875 27.5625V25.9375C12.6875 25.5312 12.2812 25.125 11.875 25.125H10.25C9.79297 25.125 9.4375 25.5312 9.4375 25.9375ZM28.125 25.125C27.668 25.125 27.3125 25.5312 27.3125 25.9375V27.5625C27.3125 28.0195 27.668 28.375 28.125 28.375H29.75C30.1562 28.375 30.5625 28.0195 30.5625 27.5625V25.9375C30.5625 25.5312 30.1562 25.125 29.75 25.125H28.125ZM9.4375 19.4375V21.0625C9.4375 21.5195 9.79297 21.875 10.25 21.875H11.875C12.2812 21.875 12.6875 21.5195 12.6875 21.0625V19.4375C12.6875 19.0312 12.2812 18.625 11.875 18.625H10.25C9.79297 18.625 9.4375 19.0312 9.4375 19.4375ZM28.125 18.625C27.668 18.625 27.3125 19.0312 27.3125 19.4375V21.0625C27.3125 21.5195 27.668 21.875 28.125 21.875H29.75C30.1562 21.875 30.5625 21.5195 30.5625 21.0625V19.4375C30.5625 19.0312 30.1562 18.625 29.75 18.625H28.125ZM9.4375 12.9375V14.5625C9.4375 15.0195 9.79297 15.375 10.25 15.375H11.875C12.2812 15.375 12.6875 15.0195 12.6875 14.5625V12.9375C12.6875 12.5312 12.2812 12.125 11.875 12.125H10.25C9.79297 12.125 9.4375 12.5312 9.4375 12.9375ZM28.125 12.125C27.668 12.125 27.3125 12.5312 27.3125 12.9375V14.5625C27.3125 15.0195 27.668 15.375 28.125 15.375H29.75C30.1562 15.375 30.5625 15.0195 30.5625 14.5625V12.9375C30.5625 12.5312 30.1562 12.125 29.75 12.125H28.125ZM15.125 13.75V17C15.125 17.9141 15.8359 18.625 16.75 18.625H23.25C24.1133 18.625 24.875 17.9141 24.875 17V13.75C24.875 12.8867 24.1133 12.125 23.25 12.125H16.75C15.8359 12.125 15.125 12.8867 15.125 13.75ZM16.75 21.875C15.8359 21.875 15.125 22.6367 15.125 23.5V26.75C15.125 27.6641 15.8359 28.375 16.75 28.375H23.25C24.1133 28.375 24.875 27.6641 24.875 26.75V23.5C24.875 22.6367 24.1133 21.875 23.25 21.875H16.75Z" fill="white"/>
</svg>
