<svg width="40" height="40" viewBox="0 0 40 40" fill="none" xmlns="http://www.w3.org/2000/svg">
<rect width="40" height="40" fill="#1185FE"/>
<path d="M33 20.25C33 20.3008 33 20.3516 33 20.4023C32.9492 22.2812 31.2734 23.5 29.3945 23.5H24.4688C23.0977 23.5 22.0312 24.6172 22.0312 25.9375C22.0312 26.1406 22.0312 26.293 22.082 26.4453C22.1836 27.0039 22.3867 27.4609 22.5898 27.9688C22.8945 28.6797 23.1992 29.3906 23.1992 30.1016C23.1992 31.7266 22.1328 33.1992 20.5078 33.25C20.3555 33.25 20.1523 33.25 19.9492 33.25C12.7891 33.25 7 27.4609 7 20.25C7 13.0898 12.7891 7.25 20 7.25C27.1602 7.25 33 13.0898 33 20.25ZM13.5 21.875C13.5 21.0117 12.7383 20.25 11.875 20.25C10.9609 20.25 10.25 21.0117 10.25 21.875C10.25 22.7891 10.9609 23.5 11.875 23.5C12.7383 23.5 13.5 22.7891 13.5 21.875ZM13.5 17C14.3633 17 15.125 16.2891 15.125 15.375C15.125 14.5117 14.3633 13.75 13.5 13.75C12.5859 13.75 11.875 14.5117 11.875 15.375C11.875 16.2891 12.5859 17 13.5 17ZM21.625 12.125C21.625 11.2617 20.8633 10.5 20 10.5C19.0859 10.5 18.375 11.2617 18.375 12.125C18.375 13.0391 19.0859 13.75 20 13.75C20.8633 13.75 21.625 13.0391 21.625 12.125ZM26.5 17C27.3633 17 28.125 16.2891 28.125 15.375C28.125 14.5117 27.3633 13.75 26.5 13.75C25.5859 13.75 24.875 14.5117 24.875 15.375C24.875 16.2891 25.5859 17 26.5 17Z" fill="white"/>
</svg>
